solid arcade_cabinet
facet normal 0.0 0.0 1.0
  outer loop
    vertex 245.75009999999995 160.67589999999998 103.82409999999999
    vertex 243.75009999999995 182.6759 103.82409999999999
    vertex 243.75009999999995 162.67589999999998 103.82409999999999
  endloop
endfacet
facet normal 0.0 0.0 1.0
  outer loop
    vertex 243.75009999999995 182.6759 103.82409999999999
    vertex 245.75009999999995 160.67589999999998 103.82409999999999
    vertex 245.75009999999995 184.67589999999998 103.82409999999999
  endloop
endfacet
facet normal 0.0 0.0 1.0
  outer loop
    vertex 245.75009999999995 184.67589999999998 103.82409999999999
    vertex 245.75009999999995 160.67589999999998 103.82409999999999
    vertex 326.7500999999999 160.67589999999998 103.82409999999999
  endloop
endfacet
facet normal 0.0 0.0 1.0
  outer loop
    vertex 245.75009999999995 184.67589999999998 103.82409999999999
    vertex 326.7500999999999 160.67589999999998 103.82409999999999
    vertex 286.2501 184.67589999999998 103.82409999999999
  endloop
endfacet
facet normal 0.0 0.0 1.0
  outer loop
    vertex 286.2501 184.67589999999998 103.82409999999999
    vertex 326.7500999999999 160.67589999999998 103.82409999999999
    vertex 326.7500999999999 184.67589999999998 103.82409999999999
  endloop
endfacet
facet normal 0.0 0.0 1.0
  outer loop
    vertex 326.7500999999999 184.67589999999998 103.82409999999999
    vertex 326.7500999999999 160.67589999999998 103.82409999999999
    vertex 328.7500999999999 162.67589999999998 103.82409999999999
  endloop
endfacet
facet normal 0.0 0.0 1.0
  outer loop
    vertex 326.7500999999999 184.67589999999998 103.82409999999999
    vertex 328.7500999999999 162.67589999999998 103.82409999999999
    vertex 328.7500999999999 182.6759 103.82409999999999
  endloop
endfacet
facet normal 0.0 0.0 1.0
  outer loop
    vertex 326.95919999999995 160.6868 103.82409999999999
    vertex 327.56359999999995 160.84879999999998 103.82409999999999
    vertex 326.7500999999999 160.67589999999998 103.82409999999999
  endloop
endfacet
facet normal 0.0 0.0 1.0
  outer loop
    vertex 327.56359999999995 160.84879999999998 103.82409999999999
    vertex 326.95919999999995 160.6868 103.82409999999999
    vertex 327.16589999999997 160.71959999999999 103.82409999999999
  endloop
endfacet
facet normal 0.0 0.0 1.0
  outer loop
    vertex 327.56359999999995 160.84879999999998 103.82409999999999
    vertex 327.16589999999997 160.71959999999999 103.82409999999999
    vertex 327.36809999999997 160.7738 103.82409999999999
  endloop
endfacet
facet normal 0.0 0.0 1.0
  outer loop
    vertex 327.7500999999999 160.9438 103.82409999999999
    vertex 326.7500999999999 160.67589999999998 103.82409999999999
    vertex 327.56359999999995 160.84879999999998 103.82409999999999
  endloop
endfacet
facet normal 0.0 0.0 1.0
  outer loop
    vertex 327.92569999999995 161.0578 103.82409999999999
    vertex 326.7500999999999 160.67589999999998 103.82409999999999
    vertex 327.7500999999999 160.9438 103.82409999999999
  endloop
endfacet
facet normal 0.0 0.0 1.0
  outer loop
    vertex 328.0883999999999 161.18959999999998 103.82409999999999
    vertex 326.7500999999999 160.67589999999998 103.82409999999999
    vertex 327.92569999999995 161.0578 103.82409999999999
  endloop
endfacet
facet normal 0.0 0.0 1.0
  outer loop
    vertex 328.23639999999995 161.3376 103.82409999999999
    vertex 326.7500999999999 160.67589999999998 103.82409999999999
    vertex 328.0883999999999 161.18959999999998 103.82409999999999
  endloop
endfacet
facet normal 0.0 0.0 1.0
  outer loop
    vertex 328.3680999999999 161.5003 103.82409999999999
    vertex 326.7500999999999 160.67589999999998 103.82409999999999
    vertex 328.23639999999995 161.3376 103.82409999999999
  endloop
endfacet
facet normal 0.0 0.0 1.0
  outer loop
    vertex 328.48209999999995 161.67589999999998 103.82409999999999
    vertex 326.7500999999999 160.67589999999998 103.82409999999999
    vertex 328.3680999999999 161.5003 103.82409999999999
  endloop
endfacet
facet normal 0.0 0.0 1.0
  outer loop
    vertex 328.57719999999995 161.8624 103.82409999999999
    vertex 326.7500999999999 160.67589999999998 103.82409999999999
    vertex 328.48209999999995 161.67589999999998 103.82409999999999
  endloop
endfacet
facet normal 0.0 0.0 1.0
  outer loop
    vertex 328.65219999999994 162.0578 103.82409999999999
    vertex 326.7500999999999 160.67589999999998 103.82409999999999
    vertex 328.57719999999995 161.8624 103.82409999999999
  endloop
endfacet
facet normal 0.0 0.0 1.0
  outer loop
    vertex 328.7063999999999 162.2601 103.82409999999999
    vertex 326.7500999999999 160.67589999999998 103.82409999999999
    vertex 328.65219999999994 162.0578 103.82409999999999
  endloop
endfacet
facet normal 0.0 0.0 1.0
  outer loop
    vertex 328.7390999999999 162.4668 103.82409999999999
    vertex 326.7500999999999 160.67589999999998 103.82409999999999
    vertex 328.7063999999999 162.2601 103.82409999999999
  endloop
endfacet
facet normal 0.0 0.0 1.0
  outer loop
    vertex 328.7500999999999 162.67589999999998 103.82409999999999
    vertex 326.7500999999999 160.67589999999998 103.82409999999999
    vertex 328.7390999999999 162.4668 103.82409999999999
  endloop
endfacet
facet normal 0.0 0.0 1.0
  outer loop
    vertex 328.7500999999999 182.6759 103.82409999999999
    vertex 328.7390999999999 182.88489999999996 103.82409999999999
    vertex 326.7500999999999 184.67589999999998 103.82409999999999
  endloop
endfacet
facet normal 0.0 0.0 1.0
  outer loop
    vertex 328.7390999999999 182.88489999999996 103.82409999999999
    vertex 328.7063999999999 183.09169999999997 103.82409999999999
    vertex 326.7500999999999 184.67589999999998 103.82409999999999
  endloop
endfacet
facet normal 0.0 0.0 1.0
  outer loop
    vertex 328.7063999999999 183.09169999999997 103.82409999999999
    vertex 328.65219999999994 183.29389999999998 103.82409999999999
    vertex 326.7500999999999 184.67589999999998 103.82409999999999
  endloop
endfacet
facet normal 0.0 0.0 1.0
  outer loop
    vertex 328.65219999999994 183.29389999999998 103.82409999999999
    vertex 328.57719999999995 183.4894 103.82409999999999
    vertex 326.7500999999999 184.67589999999998 103.82409999999999
  endloop
endfacet
facet normal 0.0 0.0 1.0
  outer loop
    vertex 328.57719999999995 183.4894 103.82409999999999
    vertex 328.48209999999995 183.6759 103.82409999999999
    vertex 326.7500999999999 184.67589999999998 103.82409999999999
  endloop
endfacet
facet normal 0.0 0.0 1.0
  outer loop
    vertex 328.48209999999995 183.6759 103.82409999999999
    vertex 328.3680999999999 183.85149999999996 103.82409999999999
    vertex 326.7500999999999 184.67589999999998 103.82409999999999
  endloop
endfacet
facet normal 0.0 0.0 1.0
  outer loop
    vertex 328.3680999999999 183.85149999999996 103.82409999999999
    vertex 328.23639999999995 184.0141 103.82409999999999
    vertex 326.7500999999999 184.67589999999998 103.82409999999999
  endloop
endfacet
facet normal 0.0 0.0 1.0
  outer loop
    vertex 328.23639999999995 184.0141 103.82409999999999
    vertex 328.0883999999999 184.1622 103.82409999999999
    vertex 326.7500999999999 184.67589999999998 103.82409999999999
  endloop
endfacet
facet normal 0.0 0.0 1.0
  outer loop
    vertex 328.0883999999999 184.1622 103.82409999999999
    vertex 327.92569999999995 184.2939 103.82409999999999
    vertex 326.7500999999999 184.67589999999998 103.82409999999999
  endloop
endfacet
facet normal 0.0 0.0 1.0
  outer loop
    vertex 327.92569999999995 184.2939 103.82409999999999
    vertex 327.7500999999999 184.4079 103.82409999999999
    vertex 326.7500999999999 184.67589999999998 103.82409999999999
  endloop
endfacet
facet normal 0.0 0.0 1.0
  outer loop
    vertex 327.7500999999999 184.4079 103.82409999999999
    vertex 327.56359999999995 184.503 103.82409999999999
    vertex 326.7500999999999 184.67589999999998 103.82409999999999
  endloop
endfacet
facet normal 0.0 0.0 1.0
  outer loop
    vertex 327.56359999999995 184.503 103.82409999999999
    vertex 326.95919999999995 184.6649 103.82409999999999
    vertex 326.7500999999999 184.67589999999998 103.82409999999999
  endloop
endfacet
facet normal 0.0 0.0 1.0
  outer loop
    vertex 326.95919999999995 184.6649 103.82409999999999
    vertex 327.56359999999995 184.503 103.82409999999999
    vertex 327.16589999999997 184.6322 103.82409999999999
  endloop
endfacet
facet normal 0.0 0.0 1.0
  outer loop
    vertex 327.16589999999997 184.6322 103.82409999999999
    vertex 327.56359999999995 184.503 103.82409999999999
    vertex 327.36809999999997 184.57799999999997 103.82409999999999
  endloop
endfacet
facet normal 0.0 0.0 1.0
  outer loop
    vertex 245.75009999999995 184.67589999999998 103.82409999999999
    vertex 245.13209999999998 184.57799999999997 103.82409999999999
    vertex 244.93659999999997 184.503 103.82409999999999
  endloop
endfacet
facet normal 0.0 0.0 1.0
  outer loop
    vertex 245.13209999999998 184.57799999999997 103.82409999999999
    vertex 245.75009999999995 184.67589999999998 103.82409999999999
    vertex 245.33429999999996 184.6322 103.82409999999999
  endloop
endfacet
facet normal 0.0 0.0 1.0
  outer loop
    vertex 245.33429999999996 184.6322 103.82409999999999
    vertex 245.75009999999995 184.67589999999998 103.82409999999999
    vertex 245.54099999999994 184.6649 103.82409999999999
  endloop
endfacet
facet normal 0.0 0.0 1.0
  outer loop
    vertex 245.75009999999995 184.67589999999998 103.82409999999999
    vertex 244.93659999999997 184.503 103.82409999999999
    vertex 244.75009999999995 184.4079 103.82409999999999
  endloop
endfacet
facet normal 0.0 0.0 1.0
  outer loop
    vertex 245.75009999999995 184.67589999999998 103.82409999999999
    vertex 244.75009999999995 184.4079 103.82409999999999
    vertex 244.57449999999994 184.2939 103.82409999999999
  endloop
endfacet
facet normal 0.0 0.0 1.0
  outer loop
    vertex 245.75009999999995 184.67589999999998 103.82409999999999
    vertex 244.57449999999994 184.2939 103.82409999999999
    vertex 244.41179999999997 184.1622 103.82409999999999
  endloop
endfacet
facet normal 0.0 0.0 1.0
  outer loop
    vertex 245.75009999999995 184.67589999999998 103.82409999999999
    vertex 244.41179999999997 184.1622 103.82409999999999
    vertex 244.26379999999995 184.0141 103.82409999999999
  endloop
endfacet
facet normal 0.0 0.0 1.0
  outer loop
    vertex 245.75009999999995 184.67589999999998 103.82409999999999
    vertex 244.26379999999995 184.0141 103.82409999999999
    vertex 244.13209999999998 183.85149999999996 103.82409999999999
  endloop
endfacet
facet normal 0.0 0.0 1.0
  outer loop
    vertex 245.75009999999995 184.67589999999998 103.82409999999999
    vertex 244.13209999999998 183.85149999999996 103.82409999999999
    vertex 244.01809999999992 183.6759 103.82409999999999
  endloop
endfacet
facet normal 0.0 0.0 1.0
  outer loop
    vertex 245.75009999999995 184.67589999999998 103.82409999999999
    vertex 244.01809999999992 183.6759 103.82409999999999
    vertex 243.92299999999992 183.4894 103.82409999999999
  endloop
endfacet
facet normal 0.0 0.0 1.0
  outer loop
    vertex 245.75009999999995 184.67589999999998 103.82409999999999
    vertex 243.92299999999992 183.4894 103.82409999999999
    vertex 243.84799999999996 183.29389999999998 103.82409999999999
  endloop
endfacet
facet normal 0.0 0.0 1.0
  outer loop
    vertex 245.75009999999995 184.67589999999998 103.82409999999999
    vertex 243.84799999999996 183.29389999999998 103.82409999999999
    vertex 243.79379999999992 183.09169999999997 103.82409999999999
  endloop
endfacet
facet normal 0.0 0.0 1.0
  outer loop
    vertex 245.75009999999995 184.67589999999998 103.82409999999999
    vertex 243.79379999999992 183.09169999999997 103.82409999999999
    vertex 243.76099999999994 182.88489999999996 103.82409999999999
  endloop
endfacet
facet normal 0.0 0.0 1.0
  outer loop
    vertex 245.75009999999995 184.67589999999998 103.82409999999999
    vertex 243.76099999999994 182.88489999999996 103.82409999999999
    vertex 243.75009999999995 182.6759 103.82409999999999
  endloop
endfacet
facet normal 0.0 0.0 1.0
  outer loop
    vertex 245.75009999999995 160.67589999999998 103.82409999999999
    vertex 243.75009999999995 162.67589999999998 103.82409999999999
    vertex 243.76099999999994 162.4668 103.82409999999999
  endloop
endfacet
facet normal 0.0 0.0 1.0
  outer loop
    vertex 245.75009999999995 160.67589999999998 103.82409999999999
    vertex 243.76099999999994 162.4668 103.82409999999999
    vertex 243.79379999999992 162.2601 103.82409999999999
  endloop
endfacet
facet normal 0.0 0.0 1.0
  outer loop
    vertex 245.75009999999995 160.67589999999998 103.82409999999999
    vertex 243.79379999999992 162.2601 103.82409999999999
    vertex 243.84799999999996 162.0578 103.82409999999999
  endloop
endfacet
facet normal 0.0 0.0 1.0
  outer loop
    vertex 245.75009999999995 160.67589999999998 103.82409999999999
    vertex 243.84799999999996 162.0578 103.82409999999999
    vertex 243.92299999999992 161.8624 103.82409999999999
  endloop
endfacet
facet normal 0.0 0.0 1.0
  outer loop
    vertex 245.75009999999995 160.67589999999998 103.82409999999999
    vertex 243.92299999999992 161.8624 103.82409999999999
    vertex 244.01809999999992 161.67589999999998 103.82409999999999
  endloop
endfacet
facet normal 0.0 0.0 1.0
  outer loop
    vertex 245.75009999999995 160.67589999999998 103.82409999999999
    vertex 244.01809999999992 161.67589999999998 103.82409999999999
    vertex 244.13209999999998 161.5003 103.82409999999999
  endloop
endfacet
facet normal 0.0 0.0 1.0
  outer loop
    vertex 245.75009999999995 160.67589999999998 103.82409999999999
    vertex 244.13209999999998 161.5003 103.82409999999999
    vertex 244.26379999999995 161.3376 103.82409999999999
  endloop
endfacet
facet normal 0.0 0.0 1.0
  outer loop
    vertex 245.75009999999995 160.67589999999998 103.82409999999999
    vertex 244.26379999999995 161.3376 103.82409999999999
    vertex 244.41179999999997 161.18959999999998 103.82409999999999
  endloop
endfacet
facet normal 0.0 0.0 1.0
  outer loop
    vertex 245.75009999999995 160.67589999999998 103.82409999999999
    vertex 244.41179999999997 161.18959999999998 103.82409999999999
    vertex 244.57449999999994 161.0578 103.82409999999999
  endloop
endfacet
facet normal 0.0 0.0 1.0
  outer loop
    vertex 245.75009999999995 160.67589999999998 103.82409999999999
    vertex 244.57449999999994 161.0578 103.82409999999999
    vertex 244.75009999999995 160.9438 103.82409999999999
  endloop
endfacet
facet normal 0.0 0.0 1.0
  outer loop
    vertex 245.75009999999995 160.67589999999998 103.82409999999999
    vertex 244.75009999999995 160.9438 103.82409999999999
    vertex 244.93659999999997 160.84879999999998 103.82409999999999
  endloop
endfacet
facet normal 0.0 0.0 1.0
  outer loop
    vertex 245.13209999999998 160.7738 103.82409999999999
    vertex 245.75009999999995 160.67589999999998 103.82409999999999
    vertex 244.93659999999997 160.84879999999998 103.82409999999999
  endloop
endfacet
facet normal 0.0 0.0 1.0
  outer loop
    vertex 245.75009999999995 160.67589999999998 103.82409999999999
    vertex 245.13209999999998 160.7738 103.82409999999999
    vertex 245.33429999999996 160.71959999999999 103.82409999999999
  endloop
endfacet
facet normal 0.0 0.0 1.0
  outer loop
    vertex 245.75009999999995 160.67589999999998 103.82409999999999
    vertex 245.33429999999996 160.71959999999999 103.82409999999999
    vertex 245.54099999999994 160.6868 103.82409999999999
  endloop
endfacet
facet normal 0.052057487223597654 -0.9986440897657007 -1.4744809158661434e-18
  outer loop
    vertex 326.7500999999999 160.67589999999998 103.82409999999999
    vertex 326.7500999999999 160.67589999999998 102.82409999999999
    vertex 326.95919999999995 160.6868 102.82409999999999
  endloop
endfacet
facet normal 0.05205748722359767 -0.9986440897657007 0.0
  outer loop
    vertex 326.7500999999999 160.67589999999998 103.82409999999999
    vertex 326.95919999999995 160.6868 102.82409999999999
    vertex 326.95919999999995 160.6868 103.82409999999999
  endloop
endfacet
facet normal 0.15672315626123764 -0.9876425731465387 0.0
  outer loop
    vertex 326.95919999999995 160.6868 103.82409999999999
    vertex 326.95919999999995 160.6868 102.82409999999999
    vertex 327.16589999999997 160.71959999999999 102.82409999999999
  endloop
endfacet
facet normal 0.15672315626123764 -0.9876425731465387 0.0
  outer loop
    vertex 326.95919999999995 160.6868 103.82409999999999
    vertex 327.16589999999997 160.71959999999999 102.82409999999999
    vertex 327.16589999999997 160.71959999999999 103.82409999999999
  endloop
endfacet
facet normal 0.25891118402640384 -0.9659011330286583 -6.10051992263563e-18
  outer loop
    vertex 327.16589999999997 160.71959999999999 103.82409999999999
    vertex 327.16589999999997 160.71959999999999 102.82409999999999
    vertex 327.36809999999997 160.7738 102.82409999999999
  endloop
endfacet
facet normal 0.25891118402640384 -0.9659011330286583 0.0
  outer loop
    vertex 327.16589999999997 160.71959999999999 103.82409999999999
    vertex 327.36809999999997 160.7738 102.82409999999999
    vertex 327.36809999999997 160.7738 103.82409999999999
  endloop
endfacet
facet normal 0.35817889148086834 -0.9336529771266927 6.307952867624472e-18
  outer loop
    vertex 327.36809999999997 160.7738 103.82409999999999
    vertex 327.36809999999997 160.7738 102.82409999999999
    vertex 327.56359999999995 160.84879999999998 102.82409999999999
  endloop
endfacet
facet normal 0.3581788914808683 -0.9336529771266927 0.0
  outer loop
    vertex 327.36809999999997 160.7738 103.82409999999999
    vertex 327.56359999999995 160.84879999999998 102.82409999999999
    vertex 327.56359999999995 160.84879999999998 103.82409999999999
  endloop
endfacet
facet normal 0.4538899948969284 -0.8910577268238384 0.0
  outer loop
    vertex 327.56359999999995 160.84879999999998 103.82409999999999
    vertex 327.56359999999995 160.84879999999998 102.82409999999999
    vertex 327.7500999999999 160.9438 102.82409999999999
  endloop
endfacet
facet normal 0.45388999489692844 -0.8910577268238384 0.0
  outer loop
    vertex 327.56359999999995 160.84879999999998 103.82409999999999
    vertex 327.7500999999999 160.9438 102.82409999999999
    vertex 327.7500999999999 160.9438 103.82409999999999
  endloop
endfacet
facet normal 0.5445181724734058 -0.8387490446171741 0.0
  outer loop
    vertex 327.7500999999999 160.9438 103.82409999999999
    vertex 327.7500999999999 160.9438 102.82409999999999
    vertex 327.92569999999995 161.0578 102.82409999999999
  endloop
endfacet
facet normal 0.5445181724734057 -0.8387490446171744 -1.404783791820456e-17
  outer loop
    vertex 327.7500999999999 160.9438 103.82409999999999
    vertex 327.92569999999995 161.0578 102.82409999999999
    vertex 327.92569999999995 161.0578 103.82409999999999
  endloop
endfacet
facet normal 0.6294592302802542 -0.7770335111274095 1.5159717752579184e-17
  outer loop
    vertex 327.92569999999995 161.0578 103.82409999999999
    vertex 327.92569999999995 161.0578 102.82409999999999
    vertex 328.0883999999999 161.18959999999998 103.82409999999999
  endloop
endfacet
facet normal 0.6294592302802541 -0.7770335111274095 0.0
  outer loop
    vertex 328.0883999999999 161.18959999999998 103.82409999999999
    vertex 327.92569999999995 161.0578 102.82409999999999
    vertex 328.0883999999999 161.18959999999998 102.82409999999999
  endloop
endfacet
facet normal 0.7071067811866014 -0.7071067811864936 0.0
  outer loop
    vertex 328.23639999999995 161.3376 103.82409999999999
    vertex 328.0883999999999 161.18959999999998 103.82409999999999
    vertex 328.0883999999999 161.18959999999998 102.82409999999999
  endloop
endfacet
facet normal 0.7071067811866014 -0.7071067811864936 0.0
  outer loop
    vertex 328.23639999999995 161.3376 103.82409999999999
    vertex 328.0883999999999 161.18959999999998 102.82409999999999
    vertex 328.23639999999995 161.3376 102.82409999999999
  endloop
endfacet
facet normal 0.7772671206716113 -0.6291707424243937 7.582137706419628e-18
  outer loop
    vertex 328.3680999999999 161.5003 103.82409999999999
    vertex 328.23639999999995 161.3376 103.82409999999999
    vertex 328.23639999999995 161.3376 102.82409999999999
  endloop
endfacet
facet normal 0.7772671206716114 -0.6291707424243936 -2.2746413119258885e-17
  outer loop
    vertex 328.3680999999999 161.5003 103.82409999999999
    vertex 328.23639999999995 161.3376 102.82409999999999
    vertex 328.3680999999999 161.5003 102.82409999999999
  endloop
endfacet
facet normal 0.8387490446170929 -0.544518172473531 0.0
  outer loop
    vertex 328.48209999999995 161.67589999999998 102.82409999999999
    vertex 328.3680999999999 161.5003 103.82409999999999
    vertex 328.3680999999999 161.5003 102.82409999999999
  endloop
endfacet
facet normal 0.8387490446170929 -0.544518172473531 0.0
  outer loop
    vertex 328.48209999999995 161.67589999999998 103.82409999999999
    vertex 328.3680999999999 161.5003 103.82409999999999
    vertex 328.48209999999995 161.67589999999998 102.82409999999999
  endloop
endfacet
facet normal 0.890864454061783 -0.4542692202749392 0.0
  outer loop
    vertex 328.57719999999995 161.8624 102.82409999999999
    vertex 328.48209999999995 161.67589999999998 103.82409999999999
    vertex 328.48209999999995 161.67589999999998 102.82409999999999
  endloop
endfacet
facet normal 0.890864454061783 -0.4542692202749392 -1.3227581036449861e-17
  outer loop
    vertex 328.57719999999995 161.8624 103.82409999999999
    vertex 328.48209999999995 161.67589999999998 103.82409999999999
    vertex 328.57719999999995 161.8624 102.82409999999999
  endloop
endfacet
facet normal 0.933591667419964 -0.358338664567489 0.0
  outer loop
    vertex 328.65219999999994 162.0578 102.82409999999999
    vertex 328.57719999999995 161.8624 103.82409999999999
    vertex 328.57719999999995 161.8624 102.82409999999999
  endloop
endfacet
facet normal 0.933591667419964 -0.358338664567489 0.0
  outer loop
    vertex 328.65219999999994 162.0578 103.82409999999999
    vertex 328.57719999999995 161.8624 103.82409999999999
    vertex 328.65219999999994 162.0578 102.82409999999999
  endloop
endfacet
facet normal 0.9659331332250132 -0.2587917737064091 -6.0946921614991826e-18
  outer loop
    vertex 328.7063999999999 162.2601 102.82409999999999
    vertex 328.65219999999994 162.0578 103.82409999999999
    vertex 328.65219999999994 162.0578 102.82409999999999
  endloop
endfacet
facet normal 0.9659331332250132 -0.2587917737064091 -6.0946921614991826e-18
  outer loop
    vertex 328.7063999999999 162.2601 103.82409999999999
    vertex 328.65219999999994 162.0578 103.82409999999999
    vertex 328.7063999999999 162.2601 102.82409999999999
  endloop
endfacet
facet normal 0.9877164279029035 -0.1562570256043831 -2.984817655512736e-18
  outer loop
    vertex 328.7390999999999 162.4668 102.82409999999999
    vertex 328.7063999999999 162.2601 103.82409999999999
    vertex 328.7063999999999 162.2601 102.82409999999999
  endloop
endfacet
facet normal 0.9877164279029035 -0.15625702560438307 0.0
  outer loop
    vertex 328.7390999999999 162.4668 103.82409999999999
    vertex 328.7063999999999 162.2601 103.82409999999999
    vertex 328.7390999999999 162.4668 102.82409999999999
  endloop
endfacet
facet normal 0.998619148298849 -0.05253376676844626 0.0
  outer loop
    vertex 328.7500999999999 162.67589999999998 102.82409999999999
    vertex 328.7390999999999 162.4668 103.82409999999999
    vertex 328.7390999999999 162.4668 102.82409999999999
  endloop
endfacet
facet normal 0.998619148298849 -0.05253376676844626 0.0
  outer loop
    vertex 328.7500999999999 162.67589999999998 103.82409999999999
    vertex 328.7390999999999 162.4668 103.82409999999999
    vertex 328.7500999999999 162.67589999999998 102.82409999999999
  endloop
endfacet
facet normal 0.0 -1.0 0.0
  outer loop
    vertex 326.7500999999999 160.67589999999998 103.82409999999999
    vertex 245.75009999999995 160.67589999999998 102.82409999999999
    vertex 326.7500999999999 160.67589999999998 102.82409999999999
  endloop
endfacet
facet normal 0.0 -1.0 0.0
  outer loop
    vertex 245.75009999999995 160.67589999999998 102.82409999999999
    vertex 326.7500999999999 160.67589999999998 103.82409999999999
    vertex 245.75009999999995 160.67589999999998 103.82409999999999
  endloop
endfacet
facet normal 0.9986178293325106 0.0525588331227467 0.0
  outer loop
    vertex 328.7390999999999 182.88489999999996 102.82409999999999
    vertex 328.7500999999999 182.6759 103.82409999999999
    vertex 328.7500999999999 182.6759 102.82409999999999
  endloop
endfacet
facet normal 0.9986178293325106 0.0525588331227467 0.0
  outer loop
    vertex 328.7390999999999 182.88489999999996 103.82409999999999
    vertex 328.7500999999999 182.6759 103.82409999999999
    vertex 328.7390999999999 182.88489999999996 102.82409999999999
  endloop
endfacet
facet normal 0.9877280869625039 0.1561833096889433 0.0
  outer loop
    vertex 328.7063999999999 183.09169999999997 102.82409999999999
    vertex 328.7390999999999 182.88489999999996 103.82409999999999
    vertex 328.7390999999999 182.88489999999996 102.82409999999999
  endloop
endfacet
facet normal 0.9877280869625039 0.15618330968894328 -2.9819668814908533e-18
  outer loop
    vertex 328.7063999999999 183.09169999999997 103.82409999999999
    vertex 328.7390999999999 182.88489999999996 103.82409999999999
    vertex 328.7063999999999 183.09169999999997 102.82409999999999
  endloop
endfacet
facet normal 0.9659011330286241 0.25891118402653135 0.0
  outer loop
    vertex 328.65219999999994 183.29389999999998 102.82409999999999
    vertex 328.7063999999999 183.09169999999997 103.82409999999999
    vertex 328.7063999999999 183.09169999999997 102.82409999999999
  endloop
endfacet
facet normal 0.9659011330286241 0.25891118402653124 0.0
  outer loop
    vertex 328.65219999999994 183.29389999999998 103.82409999999999
    vertex 328.7063999999999 183.09169999999997 103.82409999999999
    vertex 328.65219999999994 183.29389999999998 102.82409999999999
  endloop
endfacet
facet normal 0.9336529771267288 0.35817889148077436 6.3079528676247156e-18
  outer loop
    vertex 328.57719999999995 183.4894 102.82409999999999
    vertex 328.65219999999994 183.29389999999998 103.82409999999999
    vertex 328.65219999999994 183.29389999999998 102.82409999999999
  endloop
endfacet
facet normal 0.9336529771267288 0.35817889148077436 6.3079528676247156e-18
  outer loop
    vertex 328.57719999999995 183.4894 103.82409999999999
    vertex 328.65219999999994 183.29389999999998 103.82409999999999
    vertex 328.57719999999995 183.4894 102.82409999999999
  endloop
endfacet
facet normal 0.8908644540618053 0.45426922027489564 6.613790518223496e-18
  outer loop
    vertex 328.48209999999995 183.6759 102.82409999999999
    vertex 328.57719999999995 183.4894 103.82409999999999
    vertex 328.57719999999995 183.4894 102.82409999999999
  endloop
endfacet
facet normal 0.8908644540618055 0.45426922027489564 -6.613790518223496e-18
  outer loop
    vertex 328.48209999999995 183.6759 103.82409999999999
    vertex 328.57719999999995 183.4894 103.82409999999999
    vertex 328.48209999999995 183.6759 102.82409999999999
  endloop
endfacet
facet normal 0.838749044617061 0.5445181724735799 0.0
  outer loop
    vertex 328.3680999999999 183.85149999999996 102.82409999999999
    vertex 328.48209999999995 183.6759 103.82409999999999
    vertex 328.48209999999995 183.6759 102.82409999999999
  endloop
endfacet
facet normal 0.838749044617061 0.5445181724735799 0.0
  outer loop
    vertex 328.3680999999999 183.85149999999996 103.82409999999999
    vertex 328.48209999999995 183.6759 103.82409999999999
    vertex 328.3680999999999 183.85149999999996 102.82409999999999
  endloop
endfacet
facet normal 0.7770779029928511 0.6294044269626907 0.0
  outer loop
    vertex 328.23639999999995 184.0141 103.82409999999999
    vertex 328.3680999999999 183.85149999999996 103.82409999999999
    vertex 328.3680999999999 183.85149999999996 102.82409999999999
  endloop
endfacet
facet normal 0.7770779029928511 0.6294044269626907 1.51792372649053e-17
  outer loop
    vertex 328.23639999999995 184.0141 103.82409999999999
    vertex 328.3680999999999 183.85149999999996 102.82409999999999
    vertex 328.23639999999995 184.0141 102.82409999999999
  endloop
endfacet
facet normal 0.7073455475957209 0.7068679341266725 -8.327564092784442e-18
  outer loop
    vertex 328.0883999999999 184.1622 103.82409999999999
    vertex 328.23639999999995 184.0141 103.82409999999999
    vertex 328.23639999999995 184.0141 102.82409999999999
  endloop
endfacet
facet normal 0.7073455475957209 0.7068679341266725 -8.327564092784442e-18
  outer loop
    vertex 328.0883999999999 184.1622 103.82409999999999
    vertex 328.23639999999995 184.0141 102.82409999999999
    vertex 328.0883999999999 184.1622 102.82409999999999
  endloop
endfacet
facet normal 0.6291707424243936 0.7772671206716114 -7.582137706419628e-18
  outer loop
    vertex 328.0883999999999 184.1622 103.82409999999999
    vertex 328.0883999999999 184.1622 102.82409999999999
    vertex 327.92569999999995 184.2939 103.82409999999999
  endloop
endfacet
facet normal 0.6291707424243936 0.7772671206716114 -1.5164275412839252e-17
  outer loop
    vertex 327.92569999999995 184.2939 103.82409999999999
    vertex 328.0883999999999 184.1622 102.82409999999999
    vertex 327.92569999999995 184.2939 102.82409999999999
  endloop
endfacet
facet normal 0.5445181724734816 0.838749044617125 0.0
  outer loop
    vertex 327.92569999999995 184.2939 103.82409999999999
    vertex 327.92569999999995 184.2939 102.82409999999999
    vertex 327.7500999999999 184.4079 102.82409999999999
  endloop
endfacet
facet normal 0.5445181724734816 0.838749044617125 0.0
  outer loop
    vertex 327.92569999999995 184.2939 103.82409999999999
    vertex 327.7500999999999 184.4079 102.82409999999999
    vertex 327.7500999999999 184.4079 103.82409999999999
  endloop
endfacet
facet normal 0.45426922027485356 0.8908644540618268 0.0
  outer loop
    vertex 327.7500999999999 184.4079 103.82409999999999
    vertex 327.7500999999999 184.4079 102.82409999999999
    vertex 327.56359999999995 184.503 102.82409999999999
  endloop
endfacet
facet normal 0.45426922027485367 0.8908644540618268 -6.613790518225255e-18
  outer loop
    vertex 327.7500999999999 184.4079 103.82409999999999
    vertex 327.56359999999995 184.503 102.82409999999999
    vertex 327.56359999999995 184.503 103.82409999999999
  endloop
endfacet
facet normal 0.35817889148086834 0.9336529771266927 -6.307952867624472e-18
  outer loop
    vertex 327.56359999999995 184.503 103.82409999999999
    vertex 327.56359999999995 184.503 102.82409999999999
    vertex 327.36809999999997 184.57799999999997 102.82409999999999
  endloop
endfacet
facet normal 0.3581788914808683 0.9336529771266927 0.0
  outer loop
    vertex 327.56359999999995 184.503 103.82409999999999
    vertex 327.36809999999997 184.57799999999997 102.82409999999999
    vertex 327.36809999999997 184.57799999999997 103.82409999999999
  endloop
endfacet
facet normal 0.25891118402650437 0.9659011330286313 6.10051992263546e-18
  outer loop
    vertex 327.36809999999997 184.57799999999997 103.82409999999999
    vertex 327.36809999999997 184.57799999999997 102.82409999999999
    vertex 327.16589999999997 184.6322 102.82409999999999
  endloop
endfacet
facet normal 0.2589111840265044 0.9659011330286313 -6.10051992263546e-18
  outer loop
    vertex 327.36809999999997 184.57799999999997 103.82409999999999
    vertex 327.16589999999997 184.6322 102.82409999999999
    vertex 327.16589999999997 184.6322 103.82409999999999
  endloop
endfacet
facet normal 0.15625702560429452 0.9877164279029174 0.0
  outer loop
    vertex 327.16589999999997 184.6322 103.82409999999999
    vertex 327.16589999999997 184.6322 102.82409999999999
    vertex 326.95919999999995 184.6649 102.82409999999999
  endloop
endfacet
facet normal 0.15625702560429452 0.9877164279029174 0.0
  outer loop
    vertex 327.16589999999997 184.6322 103.82409999999999
    vertex 326.95919999999995 184.6649 102.82409999999999
    vertex 326.95919999999995 184.6649 103.82409999999999
  endloop
endfacet
facet normal 0.052533766768553695 0.9986191482988435 1.474444090216974e-18
  outer loop
    vertex 326.95919999999995 184.6649 103.82409999999999
    vertex 326.95919999999995 184.6649 102.82409999999999
    vertex 326.7500999999999 184.67589999999998 102.82409999999999
  endloop
endfacet
facet normal 0.05253376676855368 0.9986191482988435 2.948888180433948e-18
  outer loop
    vertex 326.95919999999995 184.6649 103.82409999999999
    vertex 326.7500999999999 184.67589999999998 102.82409999999999
    vertex 326.7500999999999 184.67589999999998 103.82409999999999
  endloop
endfacet
facet normal 0.0 1.0 0.0
  outer loop
    vertex 326.7500999999999 184.67589999999998 103.82409999999999
    vertex 326.7500999999999 184.67589999999998 102.82409999999999
    vertex 286.2501 184.67589999999998 102.82409999999999
  endloop
endfacet
facet normal 0.0 1.0 0.0
  outer loop
    vertex 326.7500999999999 184.67589999999998 103.82409999999999
    vertex 286.2501 184.67589999999998 102.82409999999999
    vertex 286.2501 184.67589999999998 103.82409999999999
  endloop
endfacet
facet normal 0.0 1.0 0.0
  outer loop
    vertex 286.2501 184.67589999999998 103.82409999999999
    vertex 286.2501 184.67589999999998 102.82409999999999
    vertex 245.75009999999995 184.67589999999998 102.82409999999999
  endloop
endfacet
facet normal 0.0 1.0 0.0
  outer loop
    vertex 286.2501 184.67589999999998 103.82409999999999
    vertex 245.75009999999995 184.67589999999998 102.82409999999999
    vertex 245.75009999999995 184.67589999999998 103.82409999999999
  endloop
endfacet
facet normal -0.05253376676855368 0.9986191482988435 -2.948888180433948e-18
  outer loop
    vertex 245.75009999999995 184.67589999999998 103.82409999999999
    vertex 245.75009999999995 184.67589999999998 102.82409999999999
    vertex 245.54099999999994 184.6649 102.82409999999999
  endloop
endfacet
facet normal -0.0525337667685537 0.9986191482988435 0.0
  outer loop
    vertex 245.75009999999995 184.67589999999998 103.82409999999999
    vertex 245.54099999999994 184.6649 102.82409999999999
    vertex 245.54099999999994 184.6649 103.82409999999999
  endloop
endfacet
facet normal -0.1562570256042779 0.9877164279029201 2.9848176555127864e-18
  outer loop
    vertex 245.54099999999994 184.6649 103.82409999999999
    vertex 245.54099999999994 184.6649 102.82409999999999
    vertex 245.33429999999996 184.6322 102.82409999999999
  endloop
endfacet
facet normal -0.1562570256042779 0.9877164279029201 2.9848176555127864e-18
  outer loop
    vertex 245.54099999999994 184.6649 103.82409999999999
    vertex 245.33429999999996 184.6322 102.82409999999999
    vertex 245.33429999999996 184.6322 103.82409999999999
  endloop
endfacet
facet normal -0.2589111840265583 0.9659011330286169 6.1005199226380915e-18
  outer loop
    vertex 245.33429999999996 184.6322 103.82409999999999
    vertex 245.33429999999996 184.6322 102.82409999999999
    vertex 245.13209999999998 184.57799999999997 102.82409999999999
  endloop
endfacet
facet normal -0.2589111840265583 0.9659011330286167 6.100519922638091e-18
  outer loop
    vertex 245.33429999999996 184.6322 103.82409999999999
    vertex 245.13209999999998 184.57799999999997 102.82409999999999
    vertex 245.13209999999998 184.57799999999997 103.82409999999999
  endloop
endfacet
facet normal -0.35817889148083226 0.9336529771267065 0.0
  outer loop
    vertex 245.13209999999998 184.57799999999997 103.82409999999999
    vertex 245.13209999999998 184.57799999999997 102.82409999999999
    vertex 244.93659999999997 184.503 102.82409999999999
  endloop
endfacet
facet normal -0.3581788914808324 0.9336529771267065 6.30795286762311e-18
  outer loop
    vertex 245.13209999999998 184.57799999999997 103.82409999999999
    vertex 244.93659999999997 184.503 102.82409999999999
    vertex 244.93659999999997 184.503 103.82409999999999
  endloop
endfacet
facet normal -0.45426922027485356 0.8908644540618268 0.0
  outer loop
    vertex 244.93659999999997 184.503 103.82409999999999
    vertex 244.93659999999997 184.503 102.82409999999999
    vertex 244.75009999999995 184.4079 102.82409999999999
  endloop
endfacet
facet normal -0.4542692202748538 0.8908644540618268 2.645516207290102e-17
  outer loop
    vertex 244.93659999999997 184.503 103.82409999999999
    vertex 244.75009999999995 184.4079 102.82409999999999
    vertex 244.75009999999995 184.4079 103.82409999999999
  endloop
endfacet
facet normal -0.5445181724734817 0.838749044617125 1.404783791820374e-17
  outer loop
    vertex 244.75009999999995 184.4079 103.82409999999999
    vertex 244.75009999999995 184.4079 102.82409999999999
    vertex 244.57449999999994 184.2939 102.82409999999999
  endloop
endfacet
facet normal -0.5445181724734816 0.838749044617125 0.0
  outer loop
    vertex 244.75009999999995 184.4079 103.82409999999999
    vertex 244.57449999999994 184.2939 102.82409999999999
    vertex 244.57449999999994 184.2939 103.82409999999999
  endloop
endfacet
facet normal -0.6291707424244466 0.7772671206715687 -7.582137706421315e-18
  outer loop
    vertex 244.57449999999994 184.2939 103.82409999999999
    vertex 244.57449999999994 184.2939 102.82409999999999
    vertex 244.41179999999997 184.1622 103.82409999999999
  endloop
endfacet
facet normal -0.6291707424244465 0.7772671206715687 7.582137706421315e-18
  outer loop
    vertex 244.41179999999997 184.1622 103.82409999999999
    vertex 244.57449999999994 184.2939 102.82409999999999
    vertex 244.41179999999997 184.1622 102.82409999999999
  endloop
endfacet
facet normal -0.7073455475956669 0.7068679341267264 8.327564092783805e-18
  outer loop
    vertex 244.41179999999997 184.1622 102.82409999999999
    vertex 244.26379999999995 184.0141 103.82409999999999
    vertex 244.41179999999997 184.1622 103.82409999999999
  endloop
endfacet
facet normal -0.7073455475956671 0.7068679341267264 -8.327564092783808e-18
  outer loop
    vertex 244.41179999999997 184.1622 102.82409999999999
    vertex 244.26379999999995 184.0141 102.82409999999999
    vertex 244.26379999999995 184.0141 103.82409999999999
  endloop
endfacet
facet normal -0.777077902992904 0.6294044269626257 0.0
  outer loop
    vertex 244.26379999999995 184.0141 102.82409999999999
    vertex 244.13209999999998 183.85149999999996 103.82409999999999
    vertex 244.26379999999995 184.0141 103.82409999999999
  endloop
endfacet
facet normal -0.777077902992904 0.6294044269626257 0.0
  outer loop
    vertex 244.26379999999995 184.0141 102.82409999999999
    vertex 244.13209999999998 183.85149999999996 102.82409999999999
    vertex 244.13209999999998 183.85149999999996 103.82409999999999
  endloop
endfacet
facet normal -0.8387490446169626 0.5445181724737317 0.0
  outer loop
    vertex 244.13209999999998 183.85149999999996 102.82409999999999
    vertex 244.01809999999992 183.6759 102.82409999999999
    vertex 244.13209999999998 183.85149999999996 103.82409999999999
  endloop
endfacet
facet normal -0.8387490446169626 0.5445181724737315 0.0
  outer loop
    vertex 244.13209999999998 183.85149999999996 103.82409999999999
    vertex 244.01809999999992 183.6759 102.82409999999999
    vertex 244.01809999999992 183.6759 103.82409999999999
  endloop
endfacet
facet normal -0.8908644540618053 0.45426922027489564 -6.613790518223496e-18
  outer loop
    vertex 244.01809999999992 183.6759 102.82409999999999
    vertex 243.92299999999992 183.4894 102.82409999999999
    vertex 244.01809999999992 183.6759 103.82409999999999
  endloop
endfacet
facet normal -0.8908644540618053 0.45426922027489564 -6.613790518223496e-18
  outer loop
    vertex 244.01809999999992 183.6759 103.82409999999999
    vertex 243.92299999999992 183.4894 102.82409999999999
    vertex 243.92299999999992 183.4894 103.82409999999999
  endloop
endfacet
facet normal -0.9336529771267288 0.3581788914807745 -1.2615905735249431e-17
  outer loop
    vertex 243.92299999999992 183.4894 102.82409999999999
    vertex 243.84799999999996 183.29389999999998 102.82409999999999
    vertex 243.92299999999992 183.4894 103.82409999999999
  endloop
endfacet
facet normal -0.9336529771267288 0.3581788914807743 0.0
  outer loop
    vertex 243.92299999999992 183.4894 103.82409999999999
    vertex 243.84799999999996 183.29389999999998 102.82409999999999
    vertex 243.84799999999996 183.29389999999998 103.82409999999999
  endloop
endfacet
facet normal -0.9659011330286241 0.25891118402653124 6.100519922636776e-18
  outer loop
    vertex 243.84799999999996 183.29389999999998 102.82409999999999
    vertex 243.79379999999992 183.09169999999997 102.82409999999999
    vertex 243.84799999999996 183.29389999999998 103.82409999999999
  endloop
endfacet
facet normal -0.9659011330286241 0.2589111840265314 -6.100519922636777e-18
  outer loop
    vertex 243.84799999999996 183.29389999999998 103.82409999999999
    vertex 243.79379999999992 183.09169999999997 102.82409999999999
    vertex 243.79379999999992 183.09169999999997 103.82409999999999
  endloop
endfacet
facet normal -0.9876543009944704 0.1566492314922873 0.0
  outer loop
    vertex 243.79379999999992 183.09169999999997 102.82409999999999
    vertex 243.76099999999994 182.88489999999996 102.82409999999999
    vertex 243.79379999999992 183.09169999999997 103.82409999999999
  endloop
endfacet
facet normal -0.9876543009944704 0.1566492314922873 2.981744120474033e-18
  outer loop
    vertex 243.79379999999992 183.09169999999997 103.82409999999999
    vertex 243.76099999999994 182.88489999999996 102.82409999999999
    vertex 243.76099999999994 182.88489999999996 103.82409999999999
  endloop
endfacet
facet normal -0.9986427945744815 0.05208232756387132 -1.4758903257874402e-18
  outer loop
    vertex 243.76099999999994 182.88489999999996 102.82409999999999
    vertex 243.75009999999995 182.6759 102.82409999999999
    vertex 243.76099999999994 182.88489999999996 103.82409999999999
  endloop
endfacet
facet normal -0.9986427945744815 0.052082327563871336 -1.4758903257874402e-18
  outer loop
    vertex 243.76099999999994 182.88489999999996 103.82409999999999
    vertex 243.75009999999995 182.6759 102.82409999999999
    vertex 243.75009999999995 182.6759 103.82409999999999
  endloop
endfacet
facet normal -0.9986440897657065 -0.05205748722349023 0.0
  outer loop
    vertex 243.75009999999995 162.67589999999998 102.82409999999999
    vertex 243.76099999999994 162.4668 102.82409999999999
    vertex 243.75009999999995 162.67589999999998 103.82409999999999
  endloop
endfacet
facet normal -0.9986440897657065 -0.05205748722349023 0.0
  outer loop
    vertex 243.75009999999995 162.67589999999998 103.82409999999999
    vertex 243.76099999999994 162.4668 102.82409999999999
    vertex 243.76099999999994 162.4668 103.82409999999999
  endloop
endfacet
facet normal -0.9876425731465411 -0.15672315626122094 0.0
  outer loop
    vertex 243.76099999999994 162.4668 102.82409999999999
    vertex 243.79379999999992 162.2601 102.82409999999999
    vertex 243.76099999999994 162.4668 103.82409999999999
  endloop
endfacet
facet normal -0.9876425731465411 -0.1567231562612209 0.0
  outer loop
    vertex 243.76099999999994 162.4668 103.82409999999999
    vertex 243.79379999999992 162.2601 102.82409999999999
    vertex 243.79379999999992 162.2601 103.82409999999999
  endloop
endfacet
facet normal -0.9659331332250132 -0.25879177370640905 0.0
  outer loop
    vertex 243.79379999999992 162.2601 102.82409999999999
    vertex 243.84799999999996 162.0578 102.82409999999999
    vertex 243.79379999999992 162.2601 103.82409999999999
  endloop
endfacet
facet normal -0.9659331332250132 -0.25879177370640905 0.0
  outer loop
    vertex 243.79379999999992 162.2601 103.82409999999999
    vertex 243.84799999999996 162.0578 102.82409999999999
    vertex 243.84799999999996 162.0578 103.82409999999999
  endloop
endfacet
facet normal -0.933591667419964 -0.358338664567489 0.0
  outer loop
    vertex 243.84799999999996 162.0578 102.82409999999999
    vertex 243.92299999999992 161.8624 102.82409999999999
    vertex 243.84799999999996 162.0578 103.82409999999999
  endloop
endfacet
facet normal -0.933591667419964 -0.358338664567489 0.0
  outer loop
    vertex 243.84799999999996 162.0578 103.82409999999999
    vertex 243.92299999999992 161.8624 102.82409999999999
    vertex 243.92299999999992 161.8624 103.82409999999999
  endloop
endfacet
facet normal -0.890864454061783 -0.4542692202749392 0.0
  outer loop
    vertex 243.92299999999992 161.8624 102.82409999999999
    vertex 244.01809999999992 161.67589999999998 102.82409999999999
    vertex 243.92299999999992 161.8624 103.82409999999999
  endloop
endfacet
facet normal -0.890864454061783 -0.45426922027493927 1.3227581036449861e-17
  outer loop
    vertex 243.92299999999992 161.8624 103.82409999999999
    vertex 244.01809999999992 161.67589999999998 102.82409999999999
    vertex 244.01809999999992 161.67589999999998 103.82409999999999
  endloop
endfacet
facet normal -0.8387490446169947 -0.5445181724736824 1.4047837918205167e-17
  outer loop
    vertex 244.01809999999992 161.67589999999998 102.82409999999999
    vertex 244.13209999999998 161.5003 102.82409999999999
    vertex 244.01809999999992 161.67589999999998 103.82409999999999
  endloop
endfacet
facet normal -0.8387490446169947 -0.5445181724736824 0.0
  outer loop
    vertex 244.01809999999992 161.67589999999998 103.82409999999999
    vertex 244.13209999999998 161.5003 102.82409999999999
    vertex 244.13209999999998 161.5003 103.82409999999999
  endloop
endfacet
facet normal -0.7772671206716643 -0.6291707424243286 0.0
  outer loop
    vertex 244.13209999999998 161.5003 102.82409999999999
    vertex 244.26379999999995 161.3376 103.82409999999999
    vertex 244.13209999999998 161.5003 103.82409999999999
  endloop
endfacet
facet normal -0.7772671206716643 -0.6291707424243286 7.582137706420142e-18
  outer loop
    vertex 244.13209999999998 161.5003 102.82409999999999
    vertex 244.26379999999995 161.3376 102.82409999999999
    vertex 244.26379999999995 161.3376 103.82409999999999
  endloop
endfacet
facet normal -0.7071067811865476 -0.7071067811865476 0.0
  outer loop
    vertex 244.26379999999995 161.3376 102.82409999999999
    vertex 244.41179999999997 161.18959999999998 103.82409999999999
    vertex 244.26379999999995 161.3376 103.82409999999999
  endloop
endfacet
facet normal -0.7071067811865476 -0.7071067811865476 8.336006567839773e-18
  outer loop
    vertex 244.26379999999995 161.3376 102.82409999999999
    vertex 244.41179999999997 161.18959999999998 102.82409999999999
    vertex 244.41179999999997 161.18959999999998 103.82409999999999
  endloop
endfacet
facet normal -0.6294592302803069 -0.7770335111273667 0.0
  outer loop
    vertex 244.41179999999997 161.18959999999998 103.82409999999999
    vertex 244.41179999999997 161.18959999999998 102.82409999999999
    vertex 244.57449999999994 161.0578 103.82409999999999
  endloop
endfacet
facet normal -0.6294592302803069 -0.7770335111273667 1.5159717752582555e-17
  outer loop
    vertex 244.57449999999994 161.0578 103.82409999999999
    vertex 244.41179999999997 161.18959999999998 102.82409999999999
    vertex 244.57449999999994 161.0578 102.82409999999999
  endloop
endfacet
facet normal -0.5445181724734058 -0.8387490446171741 0.0
  outer loop
    vertex 244.57449999999994 161.0578 103.82409999999999
    vertex 244.57449999999994 161.0578 102.82409999999999
    vertex 244.75009999999995 160.9438 102.82409999999999
  endloop
endfacet
facet normal -0.5445181724734058 -0.8387490446171741 0.0
  outer loop
    vertex 244.57449999999994 161.0578 103.82409999999999
    vertex 244.75009999999995 160.9438 102.82409999999999
    vertex 244.75009999999995 160.9438 103.82409999999999
  endloop
endfacet
facet normal -0.4538899948969284 -0.8910577268238387 1.3230450755979658e-17
  outer loop
    vertex 244.75009999999995 160.9438 103.82409999999999
    vertex 244.75009999999995 160.9438 102.82409999999999
    vertex 244.93659999999997 160.84879999999998 102.82409999999999
  endloop
endfacet
facet normal -0.45388999489692844 -0.8910577268238384 0.0
  outer loop
    vertex 244.75009999999995 160.9438 103.82409999999999
    vertex 244.93659999999997 160.84879999999998 102.82409999999999
    vertex 244.93659999999997 160.84879999999998 103.82409999999999
  endloop
endfacet
facet normal -0.35817889148083226 -0.9336529771267065 0.0
  outer loop
    vertex 244.93659999999997 160.84879999999998 103.82409999999999
    vertex 244.93659999999997 160.84879999999998 102.82409999999999
    vertex 245.13209999999998 160.7738 102.82409999999999
  endloop
endfacet
facet normal -0.3581788914808324 -0.9336529771267065 -6.30795286762311e-18
  outer loop
    vertex 244.93659999999997 160.84879999999998 103.82409999999999
    vertex 245.13209999999998 160.7738 102.82409999999999
    vertex 245.13209999999998 160.7738 103.82409999999999
  endloop
endfacet
facet normal -0.25891118402645774 -0.9659011330286438 0.0
  outer loop
    vertex 245.13209999999998 160.7738 103.82409999999999
    vertex 245.13209999999998 160.7738 102.82409999999999
    vertex 245.33429999999996 160.71959999999999 102.82409999999999
  endloop
endfacet
facet normal -0.25891118402645774 -0.9659011330286438 6.100519922638261e-18
  outer loop
    vertex 245.13209999999998 160.7738 103.82409999999999
    vertex 245.33429999999996 160.71959999999999 102.82409999999999
    vertex 245.33429999999996 160.71959999999999 103.82409999999999
  endloop
endfacet
facet normal -0.15672315626122094 -0.9876425731465411 0.0
  outer loop
    vertex 245.33429999999996 160.71959999999999 103.82409999999999
    vertex 245.33429999999996 160.71959999999999 102.82409999999999
    vertex 245.54099999999994 160.6868 102.82409999999999
  endloop
endfacet
facet normal -0.1567231562612209 -0.9876425731465411 2.984594471029308e-18
  outer loop
    vertex 245.33429999999996 160.71959999999999 103.82409999999999
    vertex 245.54099999999994 160.6868 102.82409999999999
    vertex 245.54099999999994 160.6868 103.82409999999999
  endloop
endfacet
facet normal -0.052057487223597654 -0.9986440897657007 1.4744809158661434e-18
  outer loop
    vertex 245.54099999999994 160.6868 103.82409999999999
    vertex 245.54099999999994 160.6868 102.82409999999999
    vertex 245.75009999999995 160.67589999999998 102.82409999999999
  endloop
endfacet
facet normal -0.052057487223597654 -0.9986440897657007 1.4744809158661434e-18
  outer loop
    vertex 245.54099999999994 160.6868 103.82409999999999
    vertex 245.75009999999995 160.67589999999998 102.82409999999999
    vertex 245.75009999999995 160.67589999999998 103.82409999999999
  endloop
endfacet
facet normal 0.0 0.0 -1.0
  outer loop
    vertex 245.75009999999995 184.67589999999998 102.82409999999999
    vertex 243.75009999999995 162.67589999999998 102.82409999999999
    vertex 243.75009999999995 182.6759 102.82409999999999
  endloop
endfacet
facet normal 0.0 0.0 -1.0
  outer loop
    vertex 243.75009999999995 162.67589999999998 102.82409999999999
    vertex 245.75009999999995 184.67589999999998 102.82409999999999
    vertex 245.75009999999995 160.67589999999998 102.82409999999999
  endloop
endfacet
facet normal 0.0 0.0 -1.0
  outer loop
    vertex 245.75009999999995 160.67589999999998 102.82409999999999
    vertex 245.75009999999995 184.67589999999998 102.82409999999999
    vertex 286.2501 184.67589999999998 102.82409999999999
  endloop
endfacet
facet normal 0.0 0.0 -1.0
  outer loop
    vertex 245.75009999999995 160.67589999999998 102.82409999999999
    vertex 286.2501 184.67589999999998 102.82409999999999
    vertex 326.7500999999999 160.67589999999998 102.82409999999999
  endloop
endfacet
facet normal 0.0 0.0 -1.0
  outer loop
    vertex 326.7500999999999 160.67589999999998 102.82409999999999
    vertex 286.2501 184.67589999999998 102.82409999999999
    vertex 326.7500999999999 184.67589999999998 102.82409999999999
  endloop
endfacet
facet normal 0.0 0.0 -1.0
  outer loop
    vertex 326.7500999999999 160.67589999999998 102.82409999999999
    vertex 326.7500999999999 184.67589999999998 102.82409999999999
    vertex 328.7500999999999 182.6759 102.82409999999999
  endloop
endfacet
facet normal 0.0 0.0 -1.0
  outer loop
    vertex 326.7500999999999 160.67589999999998 102.82409999999999
    vertex 328.7500999999999 182.6759 102.82409999999999
    vertex 326.95919999999995 160.6868 102.82409999999999
  endloop
endfacet
facet normal 0.0 0.0 -1.0
  outer loop
    vertex 326.95919999999995 160.6868 102.82409999999999
    vertex 328.7500999999999 182.6759 102.82409999999999
    vertex 327.16589999999997 160.71959999999999 102.82409999999999
  endloop
endfacet
facet normal 0.0 0.0 -1.0
  outer loop
    vertex 327.16589999999997 160.71959999999999 102.82409999999999
    vertex 328.7500999999999 182.6759 102.82409999999999
    vertex 327.36809999999997 160.7738 102.82409999999999
  endloop
endfacet
facet normal 0.0 0.0 -1.0
  outer loop
    vertex 327.36809999999997 160.7738 102.82409999999999
    vertex 328.7500999999999 182.6759 102.82409999999999
    vertex 327.56359999999995 160.84879999999998 102.82409999999999
  endloop
endfacet
facet normal 0.0 0.0 -1.0
  outer loop
    vertex 327.56359999999995 160.84879999999998 102.82409999999999
    vertex 328.7500999999999 182.6759 102.82409999999999
    vertex 327.7500999999999 160.9438 102.82409999999999
  endloop
endfacet
facet normal 0.0 0.0 -1.0
  outer loop
    vertex 327.7500999999999 160.9438 102.82409999999999
    vertex 328.7500999999999 182.6759 102.82409999999999
    vertex 327.92569999999995 161.0578 102.82409999999999
  endloop
endfacet
facet normal 0.0 0.0 -1.0
  outer loop
    vertex 327.92569999999995 161.0578 102.82409999999999
    vertex 328.7500999999999 182.6759 102.82409999999999
    vertex 328.0883999999999 161.18959999999998 102.82409999999999
  endloop
endfacet
facet normal 0.0 0.0 -1.0
  outer loop
    vertex 328.0883999999999 161.18959999999998 102.82409999999999
    vertex 328.7500999999999 182.6759 102.82409999999999
    vertex 328.23639999999995 161.3376 102.82409999999999
  endloop
endfacet
facet normal 0.0 0.0 -1.0
  outer loop
    vertex 328.23639999999995 161.3376 102.82409999999999
    vertex 328.7500999999999 182.6759 102.82409999999999
    vertex 328.3680999999999 161.5003 102.82409999999999
  endloop
endfacet
facet normal 0.0 0.0 -1.0
  outer loop
    vertex 328.3680999999999 161.5003 102.82409999999999
    vertex 328.7500999999999 182.6759 102.82409999999999
    vertex 328.48209999999995 161.67589999999998 102.82409999999999
  endloop
endfacet
facet normal 0.0 0.0 -1.0
  outer loop
    vertex 328.48209999999995 161.67589999999998 102.82409999999999
    vertex 328.7500999999999 182.6759 102.82409999999999
    vertex 328.57719999999995 161.8624 102.82409999999999
  endloop
endfacet
facet normal 0.0 0.0 -1.0
  outer loop
    vertex 328.57719999999995 161.8624 102.82409999999999
    vertex 328.7500999999999 182.6759 102.82409999999999
    vertex 328.65219999999994 162.0578 102.82409999999999
  endloop
endfacet
facet normal 0.0 0.0 -1.0
  outer loop
    vertex 328.65219999999994 162.0578 102.82409999999999
    vertex 328.7500999999999 182.6759 102.82409999999999
    vertex 328.7063999999999 162.2601 102.82409999999999
  endloop
endfacet
facet normal 0.0 0.0 -1.0
  outer loop
    vertex 328.7063999999999 162.2601 102.82409999999999
    vertex 328.7500999999999 182.6759 102.82409999999999
    vertex 328.7390999999999 162.4668 102.82409999999999
  endloop
endfacet
facet normal 0.0 0.0 -1.0
  outer loop
    vertex 328.7390999999999 162.4668 102.82409999999999
    vertex 328.7500999999999 182.6759 102.82409999999999
    vertex 328.7500999999999 162.67589999999998 102.82409999999999
  endloop
endfacet
facet normal 0.0 0.0 -1.0
  outer loop
    vertex 245.75009999999995 184.67589999999998 102.82409999999999
    vertex 243.75009999999995 182.6759 102.82409999999999
    vertex 243.76099999999994 182.88489999999996 102.82409999999999
  endloop
endfacet
facet normal 0.0 0.0 -1.0
  outer loop
    vertex 245.75009999999995 184.67589999999998 102.82409999999999
    vertex 243.76099999999994 182.88489999999996 102.82409999999999
    vertex 243.79379999999992 183.09169999999997 102.82409999999999
  endloop
endfacet
facet normal 0.0 0.0 -1.0
  outer loop
    vertex 245.75009999999995 160.67589999999998 102.82409999999999
    vertex 245.13209999999998 160.7738 102.82409999999999
    vertex 244.93659999999997 160.84879999999998 102.82409999999999
  endloop
endfacet
facet normal 0.0 0.0 -1.0
  outer loop
    vertex 245.13209999999998 160.7738 102.82409999999999
    vertex 245.75009999999995 160.67589999999998 102.82409999999999
    vertex 245.33429999999996 160.71959999999999 102.82409999999999
  endloop
endfacet
facet normal 0.0 0.0 -1.0
  outer loop
    vertex 245.33429999999996 160.71959999999999 102.82409999999999
    vertex 245.75009999999995 160.67589999999998 102.82409999999999
    vertex 245.54099999999994 160.6868 102.82409999999999
  endloop
endfacet
facet normal 0.0 0.0 -1.0
  outer loop
    vertex 245.75009999999995 160.67589999999998 102.82409999999999
    vertex 244.93659999999997 160.84879999999998 102.82409999999999
    vertex 244.75009999999995 160.9438 102.82409999999999
  endloop
endfacet
facet normal 0.0 0.0 -1.0
  outer loop
    vertex 245.75009999999995 160.67589999999998 102.82409999999999
    vertex 244.75009999999995 160.9438 102.82409999999999
    vertex 244.57449999999994 161.0578 102.82409999999999
  endloop
endfacet
facet normal 0.0 0.0 -1.0
  outer loop
    vertex 245.75009999999995 160.67589999999998 102.82409999999999
    vertex 244.57449999999994 161.0578 102.82409999999999
    vertex 244.41179999999997 161.18959999999998 102.82409999999999
  endloop
endfacet
facet normal 0.0 0.0 -1.0
  outer loop
    vertex 245.75009999999995 160.67589999999998 102.82409999999999
    vertex 244.41179999999997 161.18959999999998 102.82409999999999
    vertex 244.26379999999995 161.3376 102.82409999999999
  endloop
endfacet
facet normal 0.0 0.0 -1.0
  outer loop
    vertex 245.75009999999995 160.67589999999998 102.82409999999999
    vertex 244.26379999999995 161.3376 102.82409999999999
    vertex 244.13209999999998 161.5003 102.82409999999999
  endloop
endfacet
facet normal 0.0 0.0 -1.0
  outer loop
    vertex 245.75009999999995 160.67589999999998 102.82409999999999
    vertex 244.13209999999998 161.5003 102.82409999999999
    vertex 244.01809999999992 161.67589999999998 102.82409999999999
  endloop
endfacet
facet normal 0.0 0.0 -1.0
  outer loop
    vertex 245.75009999999995 160.67589999999998 102.82409999999999
    vertex 244.01809999999992 161.67589999999998 102.82409999999999
    vertex 243.92299999999992 161.8624 102.82409999999999
  endloop
endfacet
facet normal 0.0 0.0 -1.0
  outer loop
    vertex 245.75009999999995 160.67589999999998 102.82409999999999
    vertex 243.92299999999992 161.8624 102.82409999999999
    vertex 243.84799999999996 162.0578 102.82409999999999
  endloop
endfacet
facet normal 0.0 0.0 -1.0
  outer loop
    vertex 245.75009999999995 160.67589999999998 102.82409999999999
    vertex 243.84799999999996 162.0578 102.82409999999999
    vertex 243.79379999999992 162.2601 102.82409999999999
  endloop
endfacet
facet normal 0.0 0.0 -1.0
  outer loop
    vertex 245.75009999999995 160.67589999999998 102.82409999999999
    vertex 243.79379999999992 162.2601 102.82409999999999
    vertex 243.76099999999994 162.4668 102.82409999999999
  endloop
endfacet
facet normal 0.0 0.0 -1.0
  outer loop
    vertex 245.75009999999995 160.67589999999998 102.82409999999999
    vertex 243.76099999999994 162.4668 102.82409999999999
    vertex 243.75009999999995 162.67589999999998 102.82409999999999
  endloop
endfacet
facet normal 0.0 0.0 -1.0
  outer loop
    vertex 245.75009999999995 184.67589999999998 102.82409999999999
    vertex 243.79379999999992 183.09169999999997 102.82409999999999
    vertex 243.84799999999996 183.29389999999998 102.82409999999999
  endloop
endfacet
facet normal 0.0 0.0 -1.0
  outer loop
    vertex 245.75009999999995 184.67589999999998 102.82409999999999
    vertex 243.84799999999996 183.29389999999998 102.82409999999999
    vertex 243.92299999999992 183.4894 102.82409999999999
  endloop
endfacet
facet normal 0.0 0.0 -1.0
  outer loop
    vertex 245.75009999999995 184.67589999999998 102.82409999999999
    vertex 243.92299999999992 183.4894 102.82409999999999
    vertex 244.01809999999992 183.6759 102.82409999999999
  endloop
endfacet
facet normal 0.0 0.0 -1.0
  outer loop
    vertex 245.75009999999995 184.67589999999998 102.82409999999999
    vertex 244.01809999999992 183.6759 102.82409999999999
    vertex 244.13209999999998 183.85149999999996 102.82409999999999
  endloop
endfacet
facet normal 0.0 0.0 -1.0
  outer loop
    vertex 245.75009999999995 184.67589999999998 102.82409999999999
    vertex 244.13209999999998 183.85149999999996 102.82409999999999
    vertex 244.26379999999995 184.0141 102.82409999999999
  endloop
endfacet
facet normal 0.0 0.0 -1.0
  outer loop
    vertex 245.75009999999995 184.67589999999998 102.82409999999999
    vertex 244.26379999999995 184.0141 102.82409999999999
    vertex 244.41179999999997 184.1622 102.82409999999999
  endloop
endfacet
facet normal 0.0 0.0 -1.0
  outer loop
    vertex 245.75009999999995 184.67589999999998 102.82409999999999
    vertex 244.41179999999997 184.1622 102.82409999999999
    vertex 244.57449999999994 184.2939 102.82409999999999
  endloop
endfacet
facet normal 0.0 0.0 -1.0
  outer loop
    vertex 245.75009999999995 184.67589999999998 102.82409999999999
    vertex 244.57449999999994 184.2939 102.82409999999999
    vertex 244.75009999999995 184.4079 102.82409999999999
  endloop
endfacet
facet normal 0.0 0.0 -1.0
  outer loop
    vertex 245.75009999999995 184.67589999999998 102.82409999999999
    vertex 244.75009999999995 184.4079 102.82409999999999
    vertex 244.93659999999997 184.503 102.82409999999999
  endloop
endfacet
facet normal 0.0 0.0 -1.0
  outer loop
    vertex 245.13209999999998 184.57799999999997 102.82409999999999
    vertex 245.75009999999995 184.67589999999998 102.82409999999999
    vertex 244.93659999999997 184.503 102.82409999999999
  endloop
endfacet
facet normal 0.0 0.0 -1.0
  outer loop
    vertex 245.75009999999995 184.67589999999998 102.82409999999999
    vertex 245.13209999999998 184.57799999999997 102.82409999999999
    vertex 245.33429999999996 184.6322 102.82409999999999
  endloop
endfacet
facet normal 0.0 0.0 -1.0
  outer loop
    vertex 245.75009999999995 184.67589999999998 102.82409999999999
    vertex 245.33429999999996 184.6322 102.82409999999999
    vertex 245.54099999999994 184.6649 102.82409999999999
  endloop
endfacet
facet normal 0.0 0.0 -1.0
  outer loop
    vertex 326.95919999999995 184.6649 102.82409999999999
    vertex 327.56359999999995 184.503 102.82409999999999
    vertex 326.7500999999999 184.67589999999998 102.82409999999999
  endloop
endfacet
facet normal 0.0 0.0 -1.0
  outer loop
    vertex 327.56359999999995 184.503 102.82409999999999
    vertex 326.95919999999995 184.6649 102.82409999999999
    vertex 327.16589999999997 184.6322 102.82409999999999
  endloop
endfacet
facet normal 0.0 0.0 -1.0
  outer loop
    vertex 327.56359999999995 184.503 102.82409999999999
    vertex 327.16589999999997 184.6322 102.82409999999999
    vertex 327.36809999999997 184.57799999999997 102.82409999999999
  endloop
endfacet
facet normal 0.0 0.0 -1.0
  outer loop
    vertex 327.7500999999999 184.4079 102.82409999999999
    vertex 326.7500999999999 184.67589999999998 102.82409999999999
    vertex 327.56359999999995 184.503 102.82409999999999
  endloop
endfacet
facet normal 0.0 0.0 -1.0
  outer loop
    vertex 327.92569999999995 184.2939 102.82409999999999
    vertex 326.7500999999999 184.67589999999998 102.82409999999999
    vertex 327.7500999999999 184.4079 102.82409999999999
  endloop
endfacet
facet normal 0.0 0.0 -1.0
  outer loop
    vertex 328.0883999999999 184.1622 102.82409999999999
    vertex 326.7500999999999 184.67589999999998 102.82409999999999
    vertex 327.92569999999995 184.2939 102.82409999999999
  endloop
endfacet
facet normal 0.0 0.0 -1.0
  outer loop
    vertex 328.23639999999995 184.0141 102.82409999999999
    vertex 326.7500999999999 184.67589999999998 102.82409999999999
    vertex 328.0883999999999 184.1622 102.82409999999999
  endloop
endfacet
facet normal 0.0 0.0 -1.0
  outer loop
    vertex 328.3680999999999 183.85149999999996 102.82409999999999
    vertex 326.7500999999999 184.67589999999998 102.82409999999999
    vertex 328.23639999999995 184.0141 102.82409999999999
  endloop
endfacet
facet normal 0.0 0.0 -1.0
  outer loop
    vertex 328.48209999999995 183.6759 102.82409999999999
    vertex 326.7500999999999 184.67589999999998 102.82409999999999
    vertex 328.3680999999999 183.85149999999996 102.82409999999999
  endloop
endfacet
facet normal 0.0 0.0 -1.0
  outer loop
    vertex 328.57719999999995 183.4894 102.82409999999999
    vertex 326.7500999999999 184.67589999999998 102.82409999999999
    vertex 328.48209999999995 183.6759 102.82409999999999
  endloop
endfacet
facet normal 0.0 0.0 -1.0
  outer loop
    vertex 328.65219999999994 183.29389999999998 102.82409999999999
    vertex 326.7500999999999 184.67589999999998 102.82409999999999
    vertex 328.57719999999995 183.4894 102.82409999999999
  endloop
endfacet
facet normal 0.0 0.0 -1.0
  outer loop
    vertex 328.7063999999999 183.09169999999997 102.82409999999999
    vertex 326.7500999999999 184.67589999999998 102.82409999999999
    vertex 328.65219999999994 183.29389999999998 102.82409999999999
  endloop
endfacet
facet normal 0.0 0.0 -1.0
  outer loop
    vertex 328.7390999999999 182.88489999999996 102.82409999999999
    vertex 326.7500999999999 184.67589999999998 102.82409999999999
    vertex 328.7063999999999 183.09169999999997 102.82409999999999
  endloop
endfacet
facet normal 0.0 0.0 -1.0
  outer loop
    vertex 328.7500999999999 182.6759 102.82409999999999
    vertex 326.7500999999999 184.67589999999998 102.82409999999999
    vertex 328.7390999999999 182.88489999999996 102.82409999999999
  endloop
endfacet
facet normal -1.0 0.0 0.0
  outer loop
    vertex 243.75009999999995 182.6759 102.82409999999999
    vertex 243.75009999999995 162.67589999999998 103.82409999999999
    vertex 243.75009999999995 182.6759 103.82409999999999
  endloop
endfacet
facet normal -1.0 0.0 0.0
  outer loop
    vertex 243.75009999999995 182.6759 102.82409999999999
    vertex 243.75009999999995 162.67589999999998 102.82409999999999
    vertex 243.75009999999995 162.67589999999998 103.82409999999999
  endloop
endfacet
facet normal 1.0 0.0 0.0
  outer loop
    vertex 328.7500999999999 182.6759 103.82409999999999
    vertex 328.7500999999999 162.67589999999998 103.82409999999999
    vertex 328.7500999999999 162.67589999999998 102.82409999999999
  endloop
endfacet
facet normal 1.0 0.0 0.0
  outer loop
    vertex 328.7500999999999 182.6759 103.82409999999999
    vertex 328.7500999999999 162.67589999999998 102.82409999999999
    vertex 328.7500999999999 182.6759 102.82409999999999
  endloop
endfacet
endsolid arcade_cabinet
