solid ascii
  facet normal -9.986296e-001 -5.233407e-002 0.000000e+000
    outer loop
      vertex   -3.175000e+002 -2.900000e+001 0.000000e+000
      vertex   -3.174890e+002 -2.920906e+001 0.000000e+000
      vertex   -3.175000e+002 -2.900000e+001 1.000000e+000
    endloop
  endfacet
  facet normal -9.774412e-001 -5.122368e-002 -1.734723e-018
    outer loop
      vertex   -3.175000e+002 -2.900000e+001 1.000000e+000
      vertex   -3.174890e+002 -2.920906e+001 0.000000e+000
      vertex   -3.174890e+002 -2.920906e+001 1.000000e+000
    endloop
  endfacet
  facet normal -2.023791e-001 -3.205059e-002 -0.000000e+000
    outer loop
      vertex   -3.174890e+002 -2.920906e+001 1.000000e+000
      vertex   -3.174890e+002 -2.920906e+001 0.000000e+000
      vertex   -3.174563e+002 -2.941582e+001 0.000000e+000
    endloop
  endfacet
  facet normal -9.667345e-001 -1.531008e-001 -6.938894e-018
    outer loop
      vertex   -3.174890e+002 -2.920906e+001 1.000000e+000
      vertex   -3.174563e+002 -2.941582e+001 0.000000e+000
      vertex   -3.174563e+002 -2.941582e+001 1.000000e+000
    endloop
  endfacet
  facet normal -1.979208e-001 -5.304919e-002 -0.000000e+000
    outer loop
      vertex   -3.174563e+002 -2.941582e+001 1.000000e+000
      vertex   -3.174563e+002 -2.941582e+001 0.000000e+000
      vertex   -3.174021e+002 -2.961803e+001 0.000000e+000
    endloop
  endfacet
  facet normal -9.454106e-001 -2.534007e-001 0.000000e+000
    outer loop
      vertex   -3.174563e+002 -2.941582e+001 1.000000e+000
      vertex   -3.174021e+002 -2.961803e+001 0.000000e+000
      vertex   -3.174021e+002 -2.961803e+001 1.000000e+000
    endloop
  endfacet
  facet normal -1.912918e-001 -7.342070e-002 -0.000000e+000
    outer loop
      vertex   -3.174021e+002 -2.961803e+001 1.000000e+000
      vertex   -3.174021e+002 -2.961803e+001 0.000000e+000
      vertex   -3.173271e+002 -2.981347e+001 0.000000e+000
    endloop
  endfacet
  facet normal -9.137879e-001 -3.507256e-001 -1.387779e-017
    outer loop
      vertex   -3.174021e+002 -2.961803e+001 1.000000e+000
      vertex   -3.173271e+002 -2.981347e+001 0.000000e+000
      vertex   -3.173271e+002 -2.981347e+001 1.000000e+000
    endloop
  endfacet
  facet normal -1.825697e-001 -9.301546e-002 -0.000000e+000
    outer loop
      vertex   -3.173271e+002 -2.981347e+001 1.000000e+000
      vertex   -3.173271e+002 -2.981347e+001 0.000000e+000
      vertex   -3.172321e+002 -3.000000e+001 0.000000e+000
    endloop
  endfacet
  facet normal -8.721185e-001 -4.443262e-001 -1.387779e-017
    outer loop
      vertex   -3.173271e+002 -2.981347e+001 1.000000e+000
      vertex   -3.172321e+002 -3.000000e+001 0.000000e+000
      vertex   -3.172321e+002 -3.000000e+001 1.000000e+000
    endloop
  endfacet
  facet normal -1.718463e-001 -1.115946e-001 -0.000000e+000
    outer loop
      vertex   -3.172321e+002 -3.000000e+001 1.000000e+000
      vertex   -3.172321e+002 -3.000000e+001 0.000000e+000
      vertex   -3.171180e+002 -3.017557e+001 0.000000e+000
    endloop
  endfacet
  facet normal -8.208842e-001 -5.330709e-001 -1.387779e-017
    outer loop
      vertex   -3.172321e+002 -3.000000e+001 1.000000e+000
      vertex   -3.171180e+002 -3.017557e+001 0.000000e+000
      vertex   -3.171180e+002 -3.017557e+001 1.000000e+000
    endloop
  endfacet
  facet normal -7.771430e-001 -6.293240e-001 -0.000000e+000
    outer loop
      vertex   -3.171180e+002 -3.017557e+001 1.000000e+000
      vertex   -3.171180e+002 -3.017557e+001 0.000000e+000
      vertex   -3.169863e+002 -3.033826e+001 1.000000e+000
    endloop
  endfacet
  facet normal -1.592374e-001 -1.289491e-001 -0.000000e+000
    outer loop
      vertex   -3.169863e+002 -3.033826e+001 1.000000e+000
      vertex   -3.171180e+002 -3.017557e+001 0.000000e+000
      vertex   -3.169863e+002 -3.033826e+001 0.000000e+000
    endloop
  endfacet
  facet normal -7.070795e-001 -7.071341e-001 -0.000000e+000
    outer loop
      vertex   -3.169863e+002 -3.033826e+001 1.000000e+000
      vertex   -3.169863e+002 -3.033826e+001 0.000000e+000
      vertex   -3.168383e+002 -3.048629e+001 1.000000e+000
    endloop
  endfacet
  facet normal -1.448882e-001 -1.448994e-001 -0.000000e+000
    outer loop
      vertex   -3.168383e+002 -3.048629e+001 1.000000e+000
      vertex   -3.169863e+002 -3.033826e+001 0.000000e+000
      vertex   -3.168383e+002 -3.048629e+001 0.000000e+000
    endloop
  endfacet
  facet normal -6.293240e-001 -7.771430e-001 -0.000000e+000
    outer loop
      vertex   -3.168383e+002 -3.048629e+001 1.000000e+000
      vertex   -3.168383e+002 -3.048629e+001 0.000000e+000
      vertex   -3.166756e+002 -3.061803e+001 1.000000e+000
    endloop
  endfacet
  facet normal -1.289491e-001 -1.592374e-001 -0.000000e+000
    outer loop
      vertex   -3.166756e+002 -3.061803e+001 1.000000e+000
      vertex   -3.168383e+002 -3.048629e+001 0.000000e+000
      vertex   -3.166756e+002 -3.061803e+001 0.000000e+000
    endloop
  endfacet
  facet normal -1.115965e-001 -1.718426e-001 -0.000000e+000
    outer loop
      vertex   -3.166756e+002 -3.061803e+001 1.000000e+000
      vertex   -3.166756e+002 -3.061803e+001 0.000000e+000
      vertex   -3.165000e+002 -3.073205e+001 0.000000e+000
    endloop
  endfacet
  facet normal -5.330855e-001 -8.208752e-001 1.387779e-017
    outer loop
      vertex   -3.166756e+002 -3.061803e+001 1.000000e+000
      vertex   -3.165000e+002 -3.073205e+001 0.000000e+000
      vertex   -3.165000e+002 -3.073205e+001 1.000000e+000
    endloop
  endfacet
  facet normal -9.302478e-002 -1.825660e-001 -0.000000e+000
    outer loop
      vertex   -3.165000e+002 -3.073205e+001 1.000000e+000
      vertex   -3.165000e+002 -3.073205e+001 0.000000e+000
      vertex   -3.163135e+002 -3.082709e+001 0.000000e+000
    endloop
  endfacet
  facet normal -4.443687e-001 -8.720967e-001 1.387779e-017
    outer loop
      vertex   -3.165000e+002 -3.073205e+001 1.000000e+000
      vertex   -3.163135e+002 -3.082709e+001 0.000000e+000
      vertex   -3.163135e+002 -3.082709e+001 1.000000e+000
    endloop
  endfacet
  facet normal -7.343004e-002 -1.912881e-001 -0.000000e+000
    outer loop
      vertex   -3.163135e+002 -3.082709e+001 1.000000e+000
      vertex   -3.163135e+002 -3.082709e+001 0.000000e+000
      vertex   -3.161180e+002 -3.090211e+001 0.000000e+000
    endloop
  endfacet
  facet normal -3.507705e-001 -9.137707e-001 1.387779e-017
    outer loop
      vertex   -3.163135e+002 -3.082709e+001 1.000000e+000
      vertex   -3.161180e+002 -3.090211e+001 0.000000e+000
      vertex   -3.161180e+002 -3.090211e+001 1.000000e+000
    endloop
  endfacet
  facet normal -5.303245e-002 -1.979191e-001 -0.000000e+000
    outer loop
      vertex   -3.161180e+002 -3.090211e+001 1.000000e+000
      vertex   -3.161180e+002 -3.090211e+001 0.000000e+000
      vertex   -3.159158e+002 -3.095630e+001 0.000000e+000
    endloop
  endfacet
  facet normal -2.533284e-001 -9.454313e-001 0.000000e+000
    outer loop
      vertex   -3.161180e+002 -3.090211e+001 1.000000e+000
      vertex   -3.159158e+002 -3.095630e+001 0.000000e+000
      vertex   -3.159158e+002 -3.095630e+001 1.000000e+000
    endloop
  endfacet
  facet normal -3.205419e-002 -2.023988e-001 -0.000000e+000
    outer loop
      vertex   -3.159158e+002 -3.095630e+001 1.000000e+000
      vertex   -3.159158e+002 -3.095630e+001 0.000000e+000
      vertex   -3.157090e+002 -3.098904e+001 0.000000e+000
    endloop
  endfacet
  facet normal -1.531024e-001 -9.667300e-001 0.000000e+000
    outer loop
      vertex   -3.159158e+002 -3.095630e+001 1.000000e+000
      vertex   -3.157090e+002 -3.098904e+001 0.000000e+000
      vertex   -3.157090e+002 -3.098904e+001 1.000000e+000
    endloop
  endfacet
  facet normal -1.072338e-002 -2.046105e-001 -0.000000e+000
    outer loop
      vertex   -3.157090e+002 -3.098904e+001 1.000000e+000
      vertex   -3.157090e+002 -3.098904e+001 0.000000e+000
      vertex   -3.155000e+002 -3.100000e+001 0.000000e+000
    endloop
  endfacet
  facet normal -5.122659e-002 -9.774433e-001 0.000000e+000
    outer loop
      vertex   -3.157090e+002 -3.098904e+001 1.000000e+000
      vertex   -3.155000e+002 -3.100000e+001 0.000000e+000
      vertex   -3.155000e+002 -3.100000e+001 1.000000e+000
    endloop
  endfacet
  facet normal 0.000000e+000 -1.000000e+000 0.000000e+000
    outer loop
      vertex   -3.155000e+002 -3.100000e+001 0.000000e+000
      vertex   -2.750000e+002 -3.100000e+001 0.000000e+000
      vertex   -3.155000e+002 -3.100000e+001 1.000000e+000
    endloop
  endfacet
  facet normal 0.000000e+000 -2.468383e-002 0.000000e+000
    outer loop
      vertex   -3.155000e+002 -3.100000e+001 1.000000e+000
      vertex   -2.750000e+002 -3.100000e+001 0.000000e+000
      vertex   -2.750000e+002 -3.100000e+001 1.000000e+000
    endloop
  endfacet
  facet normal 0.000000e+000 -9.996953e-001 0.000000e+000
    outer loop
      vertex   -2.750000e+002 -3.100000e+001 1.000000e+000
      vertex   -2.750000e+002 -3.100000e+001 0.000000e+000
      vertex   -2.345000e+002 -3.100000e+001 0.000000e+000
    endloop
  endfacet
  facet normal 0.000000e+000 -2.468383e-002 0.000000e+000
    outer loop
      vertex   -2.750000e+002 -3.100000e+001 1.000000e+000
      vertex   -2.345000e+002 -3.100000e+001 0.000000e+000
      vertex   -2.345000e+002 -3.100000e+001 1.000000e+000
    endloop
  endfacet
  facet normal 0.000000e+000 0.000000e+000 -5.233693e-002
    outer loop
      vertex   -3.155000e+002 -3.100000e+001 0.000000e+000
      vertex   -3.157090e+002 -3.098904e+001 0.000000e+000
      vertex   -2.750000e+002 -3.100000e+001 0.000000e+000
    endloop
  endfacet
  facet normal 0.000000e+000 0.000000e+000 -7.990429e-004
    outer loop
      vertex   -2.750000e+002 -3.100000e+001 0.000000e+000
      vertex   -3.157090e+002 -3.098904e+001 0.000000e+000
      vertex   -3.159158e+002 -3.095630e+001 0.000000e+000
    endloop
  endfacet
  facet normal 0.000000e+000 0.000000e+000 -1.312462e-003
    outer loop
      vertex   -2.750000e+002 -3.100000e+001 0.000000e+000
      vertex   -3.159158e+002 -3.095630e+001 0.000000e+000
      vertex   -3.161180e+002 -3.090211e+001 0.000000e+000
    endloop
  endfacet
  facet normal 0.000000e+000 0.000000e+000 -3.561504e-001
    outer loop
      vertex   -3.161180e+002 -3.090211e+001 0.000000e+000
      vertex   -3.163135e+002 -3.082709e+001 0.000000e+000
      vertex   -2.750000e+002 -3.100000e+001 0.000000e+000
    endloop
  endfacet
  facet normal 0.000000e+000 0.000000e+000 -2.271273e-003
    outer loop
      vertex   -2.750000e+002 -3.100000e+001 0.000000e+000
      vertex   -3.163135e+002 -3.082709e+001 0.000000e+000
      vertex   -3.165000e+002 -3.073205e+001 0.000000e+000
    endloop
  endfacet
  facet normal 0.000000e+000 0.000000e+000 -2.708419e-003
    outer loop
      vertex   -2.750000e+002 -3.100000e+001 0.000000e+000
      vertex   -3.165000e+002 -3.073205e+001 0.000000e+000
      vertex   -3.166756e+002 -3.061803e+001 0.000000e+000
    endloop
  endfacet
  facet normal 0.000000e+000 0.000000e+000 -6.221752e-001
    outer loop
      vertex   -3.166756e+002 -3.061803e+001 0.000000e+000
      vertex   -3.168383e+002 -3.048629e+001 0.000000e+000
      vertex   -2.750000e+002 -3.100000e+001 0.000000e+000
    endloop
  endfacet
  facet normal 0.000000e+000 0.000000e+000 -3.481670e-003
    outer loop
      vertex   -2.750000e+002 -3.100000e+001 0.000000e+000
      vertex   -3.168383e+002 -3.048629e+001 0.000000e+000
      vertex   -3.169863e+002 -3.033826e+001 0.000000e+000
    endloop
  endfacet
  facet normal 0.000000e+000 0.000000e+000 -3.812193e-003
    outer loop
      vertex   -2.750000e+002 -3.100000e+001 0.000000e+000
      vertex   -3.169863e+002 -3.033826e+001 0.000000e+000
      vertex   -3.171180e+002 -3.017557e+001 0.000000e+000
    endloop
  endfacet
  facet normal 0.000000e+000 0.000000e+000 -8.278595e-001
    outer loop
      vertex   -3.171180e+002 -3.017557e+001 0.000000e+000
      vertex   -3.172321e+002 -3.000000e+001 0.000000e+000
      vertex   -2.750000e+002 -3.100000e+001 0.000000e+000
    endloop
  endfacet
  facet normal 0.000000e+000 0.000000e+000 -4.350714e-003
    outer loop
      vertex   -2.750000e+002 -3.100000e+001 0.000000e+000
      vertex   -3.172321e+002 -3.000000e+001 0.000000e+000
      vertex   -3.173271e+002 -2.981347e+001 0.000000e+000
    endloop
  endfacet
  facet normal 0.000000e+000 0.000000e+000 -4.555367e-003
    outer loop
      vertex   -2.750000e+002 -3.100000e+001 0.000000e+000
      vertex   -3.173271e+002 -2.981347e+001 0.000000e+000
      vertex   -3.174021e+002 -2.961803e+001 0.000000e+000
    endloop
  endfacet
  facet normal 0.000000e+000 0.000000e+000 -1.444325e-002
    outer loop
      vertex   -2.750000e+002 -3.100000e+001 0.000000e+000
      vertex   -3.174021e+002 -2.961803e+001 0.000000e+000
      vertex   -3.175000e+002 -2.900000e+001 0.000000e+000
    endloop
  endfacet
  facet normal 0.000000e+000 0.000000e+000 -5.236554e-002
    outer loop
      vertex   -3.175000e+002 -2.900000e+001 0.000000e+000
      vertex   -3.174021e+002 -2.961803e+001 0.000000e+000
      vertex   -3.174563e+002 -2.941582e+001 0.000000e+000
    endloop
  endfacet
  facet normal 0.000000e+000 0.000000e+000 -5.232932e-002
    outer loop
      vertex   -3.175000e+002 -2.900000e+001 0.000000e+000
      vertex   -3.174563e+002 -2.941582e+001 0.000000e+000
      vertex   -3.174890e+002 -2.920906e+001 0.000000e+000
    endloop
  endfacet
  facet normal 0.000000e+000 0.000000e+000 -9.988946e-001
    outer loop
      vertex   -2.750000e+002 -3.100000e+001 0.000000e+000
      vertex   -3.175000e+002 -2.900000e+001 0.000000e+000
      vertex   -2.750000e+002 2.500000e+001 0.000000e+000
    endloop
  endfacet
  facet normal -0.000000e+000 0.000000e+000 -7.858131e-001
    outer loop
      vertex   -2.750000e+002 2.500000e+001 0.000000e+000
      vertex   -3.175000e+002 -2.900000e+001 0.000000e+000
      vertex   -3.175000e+002 2.500000e+001 0.000000e+000
    endloop
  endfacet
  facet normal 0.000000e+000 0.000000e+000 -8.102975e-001
    outer loop
      vertex   -2.750000e+002 2.500000e+001 0.000000e+000
      vertex   -3.175000e+002 2.500000e+001 0.000000e+000
      vertex   -3.155000e+002 8.100000e+001 0.000000e+000
    endloop
  endfacet
  facet normal 0.000000e+000 0.000000e+000 -6.814185e-001
    outer loop
      vertex   -3.155000e+002 8.100000e+001 0.000000e+000
      vertex   -3.175000e+002 2.500000e+001 0.000000e+000
      vertex   -3.175000e+002 7.900000e+001 0.000000e+000
    endloop
  endfacet
  facet normal 0.000000e+000 0.000000e+000 -6.691299e-001
    outer loop
      vertex   -3.155000e+002 8.100000e+001 0.000000e+000
      vertex   -3.175000e+002 7.900000e+001 0.000000e+000
      vertex   -3.157090e+002 8.098904e+001 0.000000e+000
    endloop
  endfacet
  facet normal 0.000000e+000 0.000000e+000 -6.293418e-001
    outer loop
      vertex   -3.157090e+002 8.098904e+001 0.000000e+000
      vertex   -3.175000e+002 7.900000e+001 0.000000e+000
      vertex   -3.159158e+002 8.095630e+001 0.000000e+000
    endloop
  endfacet
  facet normal 0.000000e+000 0.000000e+000 -5.877805e-001
    outer loop
      vertex   -3.159158e+002 8.095630e+001 0.000000e+000
      vertex   -3.175000e+002 7.900000e+001 0.000000e+000
      vertex   -3.161180e+002 8.090211e+001 0.000000e+000
    endloop
  endfacet
  facet normal 0.000000e+000 0.000000e+000 -5.446149e-001
    outer loop
      vertex   -3.161180e+002 8.090211e+001 0.000000e+000
      vertex   -3.175000e+002 7.900000e+001 0.000000e+000
      vertex   -3.163135e+002 8.082709e+001 0.000000e+000
    endloop
  endfacet
  facet normal 0.000000e+000 0.000000e+000 -4.999969e-001
    outer loop
      vertex   -3.163135e+002 8.082709e+001 0.000000e+000
      vertex   -3.175000e+002 7.900000e+001 0.000000e+000
      vertex   -3.165000e+002 8.073205e+001 0.000000e+000
    endloop
  endfacet
  facet normal 0.000000e+000 0.000000e+000 -4.539945e-001
    outer loop
      vertex   -3.165000e+002 8.073205e+001 0.000000e+000
      vertex   -3.175000e+002 7.900000e+001 0.000000e+000
      vertex   -3.166756e+002 8.061803e+001 0.000000e+000
    endloop
  endfacet
  facet normal 0.000000e+000 0.000000e+000 -4.067312e-001
    outer loop
      vertex   -3.166756e+002 8.061803e+001 0.000000e+000
      vertex   -3.175000e+002 7.900000e+001 0.000000e+000
      vertex   -3.168383e+002 8.048629e+001 0.000000e+000
    endloop
  endfacet
  facet normal 0.000000e+000 0.000000e+000 -3.584138e-001
    outer loop
      vertex   -3.168383e+002 8.048629e+001 0.000000e+000
      vertex   -3.175000e+002 7.900000e+001 0.000000e+000
      vertex   -3.169863e+002 8.033826e+001 0.000000e+000
    endloop
  endfacet
  facet normal 0.000000e+000 0.000000e+000 -3.090053e-001
    outer loop
      vertex   -3.169863e+002 8.033826e+001 0.000000e+000
      vertex   -3.175000e+002 7.900000e+001 0.000000e+000
      vertex   -3.171180e+002 8.017557e+001 0.000000e+000
    endloop
  endfacet
  facet normal 0.000000e+000 0.000000e+000 -2.588193e-001
    outer loop
      vertex   -3.171180e+002 8.017557e+001 0.000000e+000
      vertex   -3.175000e+002 7.900000e+001 0.000000e+000
      vertex   -3.172321e+002 8.000000e+001 0.000000e+000
    endloop
  endfacet
  facet normal 0.000000e+000 0.000000e+000 -2.078882e-001
    outer loop
      vertex   -3.172321e+002 8.000000e+001 0.000000e+000
      vertex   -3.175000e+002 7.900000e+001 0.000000e+000
      vertex   -3.173271e+002 7.981348e+001 0.000000e+000
    endloop
  endfacet
  facet normal 0.000000e+000 0.000000e+000 -1.563826e-001
    outer loop
      vertex   -3.173271e+002 7.981348e+001 0.000000e+000
      vertex   -3.175000e+002 7.900000e+001 0.000000e+000
      vertex   -3.174021e+002 7.961803e+001 0.000000e+000
    endloop
  endfacet
  facet normal 0.000000e+000 0.000000e+000 -1.045871e-001
    outer loop
      vertex   -3.174021e+002 7.961803e+001 0.000000e+000
      vertex   -3.175000e+002 7.900000e+001 0.000000e+000
      vertex   -3.174563e+002 7.941582e+001 0.000000e+000
    endloop
  endfacet
  facet normal 0.000000e+000 0.000000e+000 -5.233141e-002
    outer loop
      vertex   -3.174563e+002 7.941582e+001 0.000000e+000
      vertex   -3.175000e+002 7.900000e+001 0.000000e+000
      vertex   -3.174890e+002 7.920906e+001 0.000000e+000
    endloop
  endfacet
  facet normal 0.000000e+000 0.000000e+000 -8.102975e-001
    outer loop
      vertex   -3.155000e+002 8.100000e+001 0.000000e+000
      vertex   -2.750000e+002 8.100000e+001 0.000000e+000
      vertex   -2.750000e+002 2.500000e+001 0.000000e+000
    endloop
  endfacet
  facet normal 0.000000e+000 0.000000e+000 -5.860187e-001
    outer loop
      vertex   -2.750000e+002 2.500000e+001 0.000000e+000
      vertex   -2.750000e+002 8.100000e+001 0.000000e+000
      vertex   -2.345000e+002 8.100000e+001 0.000000e+000
    endloop
  endfacet
  facet normal 0.000000e+000 0.000000e+000 -8.102975e-001
    outer loop
      vertex   -2.750000e+002 2.500000e+001 0.000000e+000
      vertex   -2.345000e+002 8.100000e+001 0.000000e+000
      vertex   -2.325000e+002 2.500000e+001 0.000000e+000
    endloop
  endfacet
  facet normal 0.000000e+000 0.000000e+000 -3.569153e-002
    outer loop
      vertex   -2.325000e+002 2.500000e+001 0.000000e+000
      vertex   -2.345000e+002 8.100000e+001 0.000000e+000
      vertex   -2.325000e+002 7.900000e+001 0.000000e+000
    endloop
  endfacet
  facet normal 0.000000e+000 0.000000e+000 -5.233710e-002
    outer loop
      vertex   -2.325000e+002 7.900000e+001 0.000000e+000
      vertex   -2.345000e+002 8.100000e+001 0.000000e+000
      vertex   -2.342909e+002 8.098904e+001 0.000000e+000
    endloop
  endfacet
  facet normal 0.000000e+000 0.000000e+000 -5.233384e-002
    outer loop
      vertex   -2.325000e+002 7.900000e+001 0.000000e+000
      vertex   -2.342909e+002 8.098904e+001 0.000000e+000
      vertex   -2.340842e+002 8.095630e+001 0.000000e+000
    endloop
  endfacet
  facet normal 0.000000e+000 0.000000e+000 -5.877767e-001
    outer loop
      vertex   -2.340842e+002 8.095630e+001 0.000000e+000
      vertex   -2.338820e+002 8.090211e+001 0.000000e+000
      vertex   -2.325000e+002 7.900000e+001 0.000000e+000
    endloop
  endfacet
  facet normal 0.000000e+000 0.000000e+000 -5.233837e-002
    outer loop
      vertex   -2.325000e+002 7.900000e+001 0.000000e+000
      vertex   -2.338820e+002 8.090211e+001 0.000000e+000
      vertex   -2.336865e+002 8.082709e+001 0.000000e+000
    endloop
  endfacet
  facet normal 0.000000e+000 0.000000e+000 -5.233488e-002
    outer loop
      vertex   -2.325000e+002 7.900000e+001 0.000000e+000
      vertex   -2.336865e+002 8.082709e+001 0.000000e+000
      vertex   -2.335000e+002 8.073205e+001 0.000000e+000
    endloop
  endfacet
  facet normal 0.000000e+000 0.000000e+000 -4.539945e-001
    outer loop
      vertex   -2.335000e+002 8.073205e+001 0.000000e+000
      vertex   -2.333244e+002 8.061803e+001 0.000000e+000
      vertex   -2.325000e+002 7.900000e+001 0.000000e+000
    endloop
  endfacet
  facet normal 0.000000e+000 0.000000e+000 -5.233490e-002
    outer loop
      vertex   -2.325000e+002 7.900000e+001 0.000000e+000
      vertex   -2.333244e+002 8.061803e+001 0.000000e+000
      vertex   -2.331617e+002 8.048629e+001 0.000000e+000
    endloop
  endfacet
  facet normal 0.000000e+000 0.000000e+000 -5.233439e-002
    outer loop
      vertex   -2.325000e+002 7.900000e+001 0.000000e+000
      vertex   -2.331617e+002 8.048629e+001 0.000000e+000
      vertex   -2.330137e+002 8.033826e+001 0.000000e+000
    endloop
  endfacet
  facet normal 0.000000e+000 0.000000e+000 -3.089959e-001
    outer loop
      vertex   -2.330137e+002 8.033826e+001 0.000000e+000
      vertex   -2.328820e+002 8.017557e+001 0.000000e+000
      vertex   -2.325000e+002 7.900000e+001 0.000000e+000
    endloop
  endfacet
  facet normal 0.000000e+000 0.000000e+000 -5.234677e-002
    outer loop
      vertex   -2.325000e+002 7.900000e+001 0.000000e+000
      vertex   -2.328820e+002 8.017557e+001 0.000000e+000
      vertex   -2.327679e+002 8.000000e+001 0.000000e+000
    endloop
  endfacet
  facet normal 0.000000e+000 0.000000e+000 -5.232812e-002
    outer loop
      vertex   -2.325000e+002 7.900000e+001 0.000000e+000
      vertex   -2.327679e+002 8.000000e+001 0.000000e+000
      vertex   -2.326729e+002 7.981348e+001 0.000000e+000
    endloop
  endfacet
  facet normal 0.000000e+000 0.000000e+000 -1.564498e-001
    outer loop
      vertex   -2.326729e+002 7.981348e+001 0.000000e+000
      vertex   -2.325979e+002 7.961803e+001 0.000000e+000
      vertex   -2.325000e+002 7.900000e+001 0.000000e+000
    endloop
  endfacet
  facet normal 0.000000e+000 0.000000e+000 -5.234196e-002
    outer loop
      vertex   -2.325000e+002 7.900000e+001 0.000000e+000
      vertex   -2.325979e+002 7.961803e+001 0.000000e+000
      vertex   -2.325437e+002 7.941582e+001 0.000000e+000
    endloop
  endfacet
  facet normal 0.000000e+000 0.000000e+000 -5.232980e-002
    outer loop
      vertex   -2.325000e+002 7.900000e+001 0.000000e+000
      vertex   -2.325437e+002 7.941582e+001 0.000000e+000
      vertex   -2.325110e+002 7.920906e+001 0.000000e+000
    endloop
  endfacet
  facet normal 0.000000e+000 0.000000e+000 -8.102975e-001
    outer loop
      vertex   -2.750000e+002 2.500000e+001 0.000000e+000
      vertex   -2.325000e+002 2.500000e+001 0.000000e+000
      vertex   -2.345000e+002 -3.100000e+001 0.000000e+000
    endloop
  endfacet
  facet normal 0.000000e+000 0.000000e+000 -6.814185e-001
    outer loop
      vertex   -2.345000e+002 -3.100000e+001 0.000000e+000
      vertex   -2.325000e+002 2.500000e+001 0.000000e+000
      vertex   -2.325000e+002 -2.900000e+001 0.000000e+000
    endloop
  endfacet
  facet normal 0.000000e+000 0.000000e+000 -6.691327e-001
    outer loop
      vertex   -2.345000e+002 -3.100000e+001 0.000000e+000
      vertex   -2.325000e+002 -2.900000e+001 0.000000e+000
      vertex   -2.342909e+002 -3.098904e+001 0.000000e+000
    endloop
  endfacet
  facet normal 0.000000e+000 0.000000e+000 -6.293134e-001
    outer loop
      vertex   -2.342909e+002 -3.098904e+001 0.000000e+000
      vertex   -2.325000e+002 -2.900000e+001 0.000000e+000
      vertex   -2.340842e+002 -3.095630e+001 0.000000e+000
    endloop
  endfacet
  facet normal 0.000000e+000 0.000000e+000 -5.877830e-001
    outer loop
      vertex   -2.340842e+002 -3.095630e+001 0.000000e+000
      vertex   -2.325000e+002 -2.900000e+001 0.000000e+000
      vertex   -2.338820e+002 -3.090211e+001 0.000000e+000
    endloop
  endfacet
  facet normal 0.000000e+000 0.000000e+000 -5.446534e-001
    outer loop
      vertex   -2.338820e+002 -3.090211e+001 0.000000e+000
      vertex   -2.325000e+002 -2.900000e+001 0.000000e+000
      vertex   -2.336865e+002 -3.082709e+001 0.000000e+000
    endloop
  endfacet
  facet normal 0.000000e+000 0.000000e+000 -4.999907e-001
    outer loop
      vertex   -2.336865e+002 -3.082709e+001 0.000000e+000
      vertex   -2.325000e+002 -2.900000e+001 0.000000e+000
      vertex   -2.335000e+002 -3.073205e+001 0.000000e+000
    endloop
  endfacet
  facet normal 0.000000e+000 0.000000e+000 -4.539881e-001
    outer loop
      vertex   -2.335000e+002 -3.073205e+001 0.000000e+000
      vertex   -2.325000e+002 -2.900000e+001 0.000000e+000
      vertex   -2.333244e+002 -3.061803e+001 0.000000e+000
    endloop
  endfacet
  facet normal 0.000000e+000 0.000000e+000 -4.067312e-001
    outer loop
      vertex   -2.333244e+002 -3.061803e+001 0.000000e+000
      vertex   -2.325000e+002 -2.900000e+001 0.000000e+000
      vertex   -2.331617e+002 -3.048629e+001 0.000000e+000
    endloop
  endfacet
  facet normal 0.000000e+000 0.000000e+000 -3.583537e-001
    outer loop
      vertex   -2.331617e+002 -3.048629e+001 0.000000e+000
      vertex   -2.325000e+002 -2.900000e+001 0.000000e+000
      vertex   -2.330137e+002 -3.033826e+001 0.000000e+000
    endloop
  endfacet
  facet normal 0.000000e+000 0.000000e+000 -3.090168e-001
    outer loop
      vertex   -2.330137e+002 -3.033826e+001 0.000000e+000
      vertex   -2.325000e+002 -2.900000e+001 0.000000e+000
      vertex   -2.328820e+002 -3.017557e+001 0.000000e+000
    endloop
  endfacet
  facet normal 0.000000e+000 0.000000e+000 -2.588584e-001
    outer loop
      vertex   -2.328820e+002 -3.017557e+001 0.000000e+000
      vertex   -2.325000e+002 -2.900000e+001 0.000000e+000
      vertex   -2.327679e+002 -3.000000e+001 0.000000e+000
    endloop
  endfacet
  facet normal 0.000000e+000 0.000000e+000 -2.078801e-001
    outer loop
      vertex   -2.327679e+002 -3.000000e+001 0.000000e+000
      vertex   -2.325000e+002 -2.900000e+001 0.000000e+000
      vertex   -2.326729e+002 -2.981347e+001 0.000000e+000
    endloop
  endfacet
  facet normal 0.000000e+000 0.000000e+000 -1.564554e-001
    outer loop
      vertex   -2.326729e+002 -2.981347e+001 0.000000e+000
      vertex   -2.325000e+002 -2.900000e+001 0.000000e+000
      vertex   -2.325979e+002 -2.961803e+001 0.000000e+000
    endloop
  endfacet
  facet normal 0.000000e+000 0.000000e+000 -1.045387e-001
    outer loop
      vertex   -2.325979e+002 -2.961803e+001 0.000000e+000
      vertex   -2.325000e+002 -2.900000e+001 0.000000e+000
      vertex   -2.325437e+002 -2.941582e+001 0.000000e+000
    endloop
  endfacet
  facet normal 0.000000e+000 0.000000e+000 -5.232951e-002
    outer loop
      vertex   -2.325437e+002 -2.941582e+001 0.000000e+000
      vertex   -2.325000e+002 -2.900000e+001 0.000000e+000
      vertex   -2.325110e+002 -2.920906e+001 0.000000e+000
    endloop
  endfacet
  facet normal 0.000000e+000 0.000000e+000 -8.102975e-001
    outer loop
      vertex   -2.345000e+002 -3.100000e+001 0.000000e+000
      vertex   -2.750000e+002 -3.100000e+001 0.000000e+000
      vertex   -2.750000e+002 2.500000e+001 0.000000e+000
    endloop
  endfacet
  facet normal -5.233693e-002 9.986295e-001 0.000000e+000
    outer loop
      vertex   -3.155000e+002 8.100000e+001 0.000000e+000
      vertex   -3.157090e+002 8.098904e+001 0.000000e+000
      vertex   -3.155000e+002 8.100000e+001 1.000000e+000
    endloop
  endfacet
  facet normal -5.122659e-002 9.774433e-001 0.000000e+000
    outer loop
      vertex   -3.155000e+002 8.100000e+001 1.000000e+000
      vertex   -3.157090e+002 8.098904e+001 0.000000e+000
      vertex   -3.157090e+002 8.098904e+001 1.000000e+000
    endloop
  endfacet
  facet normal -3.205046e-002 2.023988e-001 0.000000e+000
    outer loop
      vertex   -3.157090e+002 8.098904e+001 1.000000e+000
      vertex   -3.157090e+002 8.098904e+001 0.000000e+000
      vertex   -3.159158e+002 8.095630e+001 0.000000e+000
    endloop
  endfacet
  facet normal -1.530851e-001 9.667329e-001 0.000000e+000
    outer loop
      vertex   -3.157090e+002 8.098904e+001 1.000000e+000
      vertex   -3.159158e+002 8.095630e+001 0.000000e+000
      vertex   -3.159158e+002 8.095630e+001 1.000000e+000
    endloop
  endfacet
  facet normal -5.303432e-002 1.979191e-001 0.000000e+000
    outer loop
      vertex   -3.159158e+002 8.095630e+001 1.000000e+000
      vertex   -3.159158e+002 8.095630e+001 0.000000e+000
      vertex   -3.161180e+002 8.090211e+001 0.000000e+000
    endloop
  endfacet
  facet normal -2.533367e-001 9.454290e-001 0.000000e+000
    outer loop
      vertex   -3.159158e+002 8.095630e+001 1.000000e+000
      vertex   -3.161180e+002 8.090211e+001 0.000000e+000
      vertex   -3.161180e+002 8.090211e+001 1.000000e+000
    endloop
  endfacet
  facet normal -7.343560e-002 1.912880e-001 0.000000e+000
    outer loop
      vertex   -3.161180e+002 8.090211e+001 1.000000e+000
      vertex   -3.161180e+002 8.090211e+001 0.000000e+000
      vertex   -3.163135e+002 8.082709e+001 0.000000e+000
    endloop
  endfacet
  facet normal -3.507936e-001 9.137614e-001 0.000000e+000
    outer loop
      vertex   -3.161180e+002 8.090211e+001 1.000000e+000
      vertex   -3.163135e+002 8.082709e+001 0.000000e+000
      vertex   -3.163135e+002 8.082709e+001 1.000000e+000
    endloop
  endfacet
  facet normal -9.302293e-002 1.825660e-001 0.000000e+000
    outer loop
      vertex   -3.163135e+002 8.082709e+001 1.000000e+000
      vertex   -3.163135e+002 8.082709e+001 0.000000e+000
      vertex   -3.165000e+002 8.073205e+001 0.000000e+000
    endloop
  endfacet
  facet normal -4.443617e-001 8.721004e-001 -1.387779e-017
    outer loop
      vertex   -3.163135e+002 8.082709e+001 1.000000e+000
      vertex   -3.165000e+002 8.073205e+001 0.000000e+000
      vertex   -3.165000e+002 8.073205e+001 1.000000e+000
    endloop
  endfacet
  facet normal -1.115947e-001 1.718427e-001 0.000000e+000
    outer loop
      vertex   -3.165000e+002 8.073205e+001 1.000000e+000
      vertex   -3.165000e+002 8.073205e+001 0.000000e+000
      vertex   -3.166756e+002 8.061803e+001 0.000000e+000
    endloop
  endfacet
  facet normal -5.330794e-001 8.208795e-001 0.000000e+000
    outer loop
      vertex   -3.165000e+002 8.073205e+001 1.000000e+000
      vertex   -3.166756e+002 8.061803e+001 0.000000e+000
      vertex   -3.166756e+002 8.061803e+001 1.000000e+000
    endloop
  endfacet
  facet normal -6.293240e-001 7.771430e-001 0.000000e+000
    outer loop
      vertex   -3.166756e+002 8.061803e+001 1.000000e+000
      vertex   -3.166756e+002 8.061803e+001 0.000000e+000
      vertex   -3.168383e+002 8.048629e+001 1.000000e+000
    endloop
  endfacet
  facet normal -1.289491e-001 1.592374e-001 0.000000e+000
    outer loop
      vertex   -3.168383e+002 8.048629e+001 1.000000e+000
      vertex   -3.166756e+002 8.061803e+001 0.000000e+000
      vertex   -3.168383e+002 8.048629e+001 0.000000e+000
    endloop
  endfacet
  facet normal -7.070704e-001 7.071432e-001 0.000000e+000
    outer loop
      vertex   -3.168383e+002 8.048629e+001 1.000000e+000
      vertex   -3.168383e+002 8.048629e+001 0.000000e+000
      vertex   -3.169863e+002 8.033826e+001 1.000000e+000
    endloop
  endfacet
  facet normal -1.448846e-001 1.448995e-001 0.000000e+000
    outer loop
      vertex   -3.169863e+002 8.033826e+001 1.000000e+000
      vertex   -3.168383e+002 8.048629e+001 0.000000e+000
      vertex   -3.169863e+002 8.033826e+001 0.000000e+000
    endloop
  endfacet
  facet normal -7.771574e-001 6.293062e-001 0.000000e+000
    outer loop
      vertex   -3.169863e+002 8.033826e+001 1.000000e+000
      vertex   -3.169863e+002 8.033826e+001 0.000000e+000
      vertex   -3.171180e+002 8.017557e+001 1.000000e+000
    endloop
  endfacet
  facet normal -1.592447e-001 1.289490e-001 0.000000e+000
    outer loop
      vertex   -3.171180e+002 8.017557e+001 1.000000e+000
      vertex   -3.169863e+002 8.033826e+001 0.000000e+000
      vertex   -3.171180e+002 8.017557e+001 0.000000e+000
    endloop
  endfacet
  facet normal -1.718427e-001 1.115947e-001 0.000000e+000
    outer loop
      vertex   -3.171180e+002 8.017557e+001 1.000000e+000
      vertex   -3.171180e+002 8.017557e+001 0.000000e+000
      vertex   -3.172321e+002 8.000000e+001 0.000000e+000
    endloop
  endfacet
  facet normal -8.208795e-001 5.330794e-001 0.000000e+000
    outer loop
      vertex   -3.171180e+002 8.017557e+001 1.000000e+000
      vertex   -3.172321e+002 8.000000e+001 0.000000e+000
      vertex   -3.172321e+002 8.000000e+001 1.000000e+000
    endloop
  endfacet
  facet normal -1.825661e-001 9.301553e-002 0.000000e+000
    outer loop
      vertex   -3.172321e+002 8.000000e+001 1.000000e+000
      vertex   -3.172321e+002 8.000000e+001 0.000000e+000
      vertex   -3.173271e+002 7.981348e+001 0.000000e+000
    endloop
  endfacet
  facet normal -8.721154e-001 4.443337e-001 0.000000e+000
    outer loop
      vertex   -3.172321e+002 8.000000e+001 1.000000e+000
      vertex   -3.173271e+002 7.981348e+001 0.000000e+000
      vertex   -3.173271e+002 7.981348e+001 1.000000e+000
    endloop
  endfacet
  facet normal -1.912954e-001 7.342064e-002 0.000000e+000
    outer loop
      vertex   -3.173271e+002 7.981348e+001 1.000000e+000
      vertex   -3.173271e+002 7.981348e+001 0.000000e+000
      vertex   -3.174021e+002 7.961803e+001 0.000000e+000
    endloop
  endfacet
  facet normal -9.137896e-001 3.507194e-001 0.000000e+000
    outer loop
      vertex   -3.173271e+002 7.981348e+001 1.000000e+000
      vertex   -3.174021e+002 7.961803e+001 0.000000e+000
      vertex   -3.174021e+002 7.961803e+001 1.000000e+000
    endloop
  endfacet
  facet normal -1.979190e-001 5.304921e-002 0.000000e+000
    outer loop
      vertex   -3.174021e+002 7.961803e+001 1.000000e+000
      vertex   -3.174021e+002 7.961803e+001 0.000000e+000
      vertex   -3.174563e+002 7.941582e+001 0.000000e+000
    endloop
  endfacet
  facet normal -9.454104e-001 2.534031e-001 6.938894e-018
    outer loop
      vertex   -3.174021e+002 7.961803e+001 1.000000e+000
      vertex   -3.174563e+002 7.941582e+001 0.000000e+000
      vertex   -3.174563e+002 7.941582e+001 1.000000e+000
    endloop
  endfacet
  facet normal -2.023773e-001 3.205060e-002 0.000000e+000
    outer loop
      vertex   -3.174563e+002 7.941582e+001 1.000000e+000
      vertex   -3.174563e+002 7.941582e+001 0.000000e+000
      vertex   -3.174890e+002 7.920906e+001 0.000000e+000
    endloop
  endfacet
  facet normal -9.667346e-001 1.531023e-001 -6.938894e-018
    outer loop
      vertex   -3.174563e+002 7.941582e+001 1.000000e+000
      vertex   -3.174890e+002 7.920906e+001 0.000000e+000
      vertex   -3.174890e+002 7.920906e+001 1.000000e+000
    endloop
  endfacet
  facet normal -2.046248e-001 1.072335e-002 0.000000e+000
    outer loop
      vertex   -3.174890e+002 7.920906e+001 1.000000e+000
      vertex   -3.174890e+002 7.920906e+001 0.000000e+000
      vertex   -3.175000e+002 7.900000e+001 0.000000e+000
    endloop
  endfacet
  facet normal -9.774405e-001 5.122270e-002 0.000000e+000
    outer loop
      vertex   -3.174890e+002 7.920906e+001 1.000000e+000
      vertex   -3.175000e+002 7.900000e+001 0.000000e+000
      vertex   -3.175000e+002 7.900000e+001 1.000000e+000
    endloop
  endfacet
  facet normal -0.000000e+000 1.000000e+000 0.000000e+000
    outer loop
      vertex   -3.155000e+002 8.100000e+001 1.000000e+000
      vertex   -2.750000e+002 8.100000e+001 1.000000e+000
      vertex   -3.155000e+002 8.100000e+001 0.000000e+000
    endloop
  endfacet
  facet normal 0.000000e+000 2.468383e-002 0.000000e+000
    outer loop
      vertex   -3.155000e+002 8.100000e+001 0.000000e+000
      vertex   -2.750000e+002 8.100000e+001 1.000000e+000
      vertex   -2.750000e+002 8.100000e+001 0.000000e+000
    endloop
  endfacet
  facet normal 0.000000e+000 9.996953e-001 0.000000e+000
    outer loop
      vertex   -2.750000e+002 8.100000e+001 0.000000e+000
      vertex   -2.750000e+002 8.100000e+001 1.000000e+000
      vertex   -2.345000e+002 8.100000e+001 1.000000e+000
    endloop
  endfacet
  facet normal 0.000000e+000 2.468383e-002 0.000000e+000
    outer loop
      vertex   -2.750000e+002 8.100000e+001 0.000000e+000
      vertex   -2.345000e+002 8.100000e+001 1.000000e+000
      vertex   -2.345000e+002 8.100000e+001 0.000000e+000
    endloop
  endfacet
  facet normal -0.000000e+000 -0.000000e+000 1.045154e-001
    outer loop
      vertex   -3.174890e+002 -2.920906e+001 1.000000e+000
      vertex   -3.174563e+002 -2.941582e+001 1.000000e+000
      vertex   -3.175000e+002 -2.900000e+001 1.000000e+000
    endloop
  endfacet
  facet normal 0.000000e+000 0.000000e+000 5.236554e-002
    outer loop
      vertex   -3.175000e+002 -2.900000e+001 1.000000e+000
      vertex   -3.174563e+002 -2.941582e+001 1.000000e+000
      vertex   -3.174021e+002 -2.961803e+001 1.000000e+000
    endloop
  endfacet
  facet normal 0.000000e+000 0.000000e+000 5.231915e-002
    outer loop
      vertex   -3.175000e+002 -2.900000e+001 1.000000e+000
      vertex   -3.174021e+002 -2.961803e+001 1.000000e+000
      vertex   -3.173271e+002 -2.981347e+001 1.000000e+000
    endloop
  endfacet
  facet normal 0.000000e+000 0.000000e+000 9.672920e-001
    outer loop
      vertex   -3.175000e+002 -2.900000e+001 1.000000e+000
      vertex   -3.173271e+002 -2.981347e+001 1.000000e+000
      vertex   -2.750000e+002 -3.100000e+001 1.000000e+000
    endloop
  endfacet
  facet normal 0.000000e+000 0.000000e+000 4.350714e-003
    outer loop
      vertex   -2.750000e+002 -3.100000e+001 1.000000e+000
      vertex   -3.173271e+002 -2.981347e+001 1.000000e+000
      vertex   -3.172321e+002 -3.000000e+001 1.000000e+000
    endloop
  endfacet
  facet normal 0.000000e+000 0.000000e+000 4.102522e-003
    outer loop
      vertex   -2.750000e+002 -3.100000e+001 1.000000e+000
      vertex   -3.172321e+002 -3.000000e+001 1.000000e+000
      vertex   -3.171180e+002 -3.017557e+001 1.000000e+000
    endloop
  endfacet
  facet normal 0.000000e+000 0.000000e+000 7.646780e-001
    outer loop
      vertex   -3.171180e+002 -3.017557e+001 1.000000e+000
      vertex   -3.169863e+002 -3.033826e+001 1.000000e+000
      vertex   -2.750000e+002 -3.100000e+001 1.000000e+000
    endloop
  endfacet
  facet normal 0.000000e+000 0.000000e+000 3.481670e-003
    outer loop
      vertex   -2.750000e+002 -3.100000e+001 1.000000e+000
      vertex   -3.169863e+002 -3.033826e+001 1.000000e+000
      vertex   -3.168383e+002 -3.048629e+001 1.000000e+000
    endloop
  endfacet
  facet normal 0.000000e+000 0.000000e+000 3.112893e-003
    outer loop
      vertex   -2.750000e+002 -3.100000e+001 1.000000e+000
      vertex   -3.168383e+002 -3.048629e+001 1.000000e+000
      vertex   -3.166756e+002 -3.061803e+001 1.000000e+000
    endloop
  endfacet
  facet normal 0.000000e+000 0.000000e+000 5.369320e-001
    outer loop
      vertex   -3.166756e+002 -3.061803e+001 1.000000e+000
      vertex   -3.165000e+002 -3.073205e+001 1.000000e+000
      vertex   -2.750000e+002 -3.100000e+001 1.000000e+000
    endloop
  endfacet
  facet normal 0.000000e+000 0.000000e+000 2.271273e-003
    outer loop
      vertex   -2.750000e+002 -3.100000e+001 1.000000e+000
      vertex   -3.165000e+002 -3.073205e+001 1.000000e+000
      vertex   -3.163135e+002 -3.082709e+001 1.000000e+000
    endloop
  endfacet
  facet normal 0.000000e+000 0.000000e+000 1.804632e-003
    outer loop
      vertex   -2.750000e+002 -3.100000e+001 1.000000e+000
      vertex   -3.163135e+002 -3.082709e+001 1.000000e+000
      vertex   -3.161180e+002 -3.090211e+001 1.000000e+000
    endloop
  endfacet
  facet normal 0.000000e+000 0.000000e+000 2.565196e-001
    outer loop
      vertex   -3.161180e+002 -3.090211e+001 1.000000e+000
      vertex   -3.159158e+002 -3.095630e+001 1.000000e+000
      vertex   -2.750000e+002 -3.100000e+001 1.000000e+000
    endloop
  endfacet
  facet normal 0.000000e+000 0.000000e+000 7.990429e-004
    outer loop
      vertex   -2.750000e+002 -3.100000e+001 1.000000e+000
      vertex   -3.159158e+002 -3.095630e+001 1.000000e+000
      vertex   -3.157090e+002 -3.098904e+001 1.000000e+000
    endloop
  endfacet
  facet normal 0.000000e+000 0.000000e+000 2.691247e-004
    outer loop
      vertex   -2.750000e+002 -3.100000e+001 1.000000e+000
      vertex   -3.157090e+002 -3.098904e+001 1.000000e+000
      vertex   -3.155000e+002 -3.100000e+001 1.000000e+000
    endloop
  endfacet
  facet normal -0.000000e+000 0.000000e+000 8.140165e-001
    outer loop
      vertex   -3.175000e+002 -2.900000e+001 1.000000e+000
      vertex   -2.750000e+002 -3.100000e+001 1.000000e+000
      vertex   -2.750000e+002 2.500000e+001 1.000000e+000
    endloop
  endfacet
  facet normal 0.000000e+000 0.000000e+000 5.860187e-001
    outer loop
      vertex   -2.750000e+002 2.500000e+001 1.000000e+000
      vertex   -2.750000e+002 -3.100000e+001 1.000000e+000
      vertex   -2.345000e+002 -3.100000e+001 1.000000e+000
    endloop
  endfacet
  facet normal -0.000000e+000 0.000000e+000 8.102975e-001
    outer loop
      vertex   -2.750000e+002 2.500000e+001 1.000000e+000
      vertex   -2.345000e+002 -3.100000e+001 1.000000e+000
      vertex   -2.325000e+002 2.500000e+001 1.000000e+000
    endloop
  endfacet
  facet normal 0.000000e+000 0.000000e+000 3.569153e-002
    outer loop
      vertex   -2.325000e+002 2.500000e+001 1.000000e+000
      vertex   -2.345000e+002 -3.100000e+001 1.000000e+000
      vertex   -2.325000e+002 -2.900000e+001 1.000000e+000
    endloop
  endfacet
  facet normal 0.000000e+000 0.000000e+000 5.233710e-002
    outer loop
      vertex   -2.325000e+002 -2.900000e+001 1.000000e+000
      vertex   -2.345000e+002 -3.100000e+001 1.000000e+000
      vertex   -2.342909e+002 -3.098904e+001 1.000000e+000
    endloop
  endfacet
  facet normal 0.000000e+000 0.000000e+000 5.233289e-002
    outer loop
      vertex   -2.325000e+002 -2.900000e+001 1.000000e+000
      vertex   -2.342909e+002 -3.098904e+001 1.000000e+000
      vertex   -2.340842e+002 -3.095630e+001 1.000000e+000
    endloop
  endfacet
  facet normal 0.000000e+000 0.000000e+000 5.877830e-001
    outer loop
      vertex   -2.340842e+002 -3.095630e+001 1.000000e+000
      vertex   -2.338820e+002 -3.090211e+001 1.000000e+000
      vertex   -2.325000e+002 -2.900000e+001 1.000000e+000
    endloop
  endfacet
  facet normal 0.000000e+000 0.000000e+000 5.233980e-002
    outer loop
      vertex   -2.325000e+002 -2.900000e+001 1.000000e+000
      vertex   -2.338820e+002 -3.090211e+001 1.000000e+000
      vertex   -2.336865e+002 -3.082709e+001 1.000000e+000
    endloop
  endfacet
  facet normal 0.000000e+000 0.000000e+000 5.233441e-002
    outer loop
      vertex   -2.325000e+002 -2.900000e+001 1.000000e+000
      vertex   -2.336865e+002 -3.082709e+001 1.000000e+000
      vertex   -2.335000e+002 -3.073205e+001 1.000000e+000
    endloop
  endfacet
  facet normal 0.000000e+000 0.000000e+000 4.539881e-001
    outer loop
      vertex   -2.335000e+002 -3.073205e+001 1.000000e+000
      vertex   -2.333244e+002 -3.061803e+001 1.000000e+000
      vertex   -2.325000e+002 -2.900000e+001 1.000000e+000
    endloop
  endfacet
  facet normal 0.000000e+000 0.000000e+000 5.233490e-002
    outer loop
      vertex   -2.325000e+002 -2.900000e+001 1.000000e+000
      vertex   -2.333244e+002 -3.061803e+001 1.000000e+000
      vertex   -2.331617e+002 -3.048629e+001 1.000000e+000
    endloop
  endfacet
  facet normal 0.000000e+000 0.000000e+000 5.233344e-002
    outer loop
      vertex   -2.325000e+002 -2.900000e+001 1.000000e+000
      vertex   -2.331617e+002 -3.048629e+001 1.000000e+000
      vertex   -2.330137e+002 -3.033826e+001 1.000000e+000
    endloop
  endfacet
  facet normal 0.000000e+000 0.000000e+000 3.090168e-001
    outer loop
      vertex   -2.330137e+002 -3.033826e+001 1.000000e+000
      vertex   -2.328820e+002 -3.017557e+001 1.000000e+000
      vertex   -2.325000e+002 -2.900000e+001 1.000000e+000
    endloop
  endfacet
  facet normal 0.000000e+000 0.000000e+000 5.234582e-002
    outer loop
      vertex   -2.325000e+002 -2.900000e+001 1.000000e+000
      vertex   -2.328820e+002 -3.017557e+001 1.000000e+000
      vertex   -2.327679e+002 -3.000000e+001 1.000000e+000
    endloop
  endfacet
  facet normal 0.000000e+000 0.000000e+000 5.232717e-002
    outer loop
      vertex   -2.325000e+002 -2.900000e+001 1.000000e+000
      vertex   -2.327679e+002 -3.000000e+001 1.000000e+000
      vertex   -2.326729e+002 -2.981347e+001 1.000000e+000
    endloop
  endfacet
  facet normal 0.000000e+000 0.000000e+000 1.564554e-001
    outer loop
      vertex   -2.326729e+002 -2.981347e+001 1.000000e+000
      vertex   -2.325979e+002 -2.961803e+001 1.000000e+000
      vertex   -2.325000e+002 -2.900000e+001 1.000000e+000
    endloop
  endfacet
  facet normal 0.000000e+000 0.000000e+000 5.234148e-002
    outer loop
      vertex   -2.325000e+002 -2.900000e+001 1.000000e+000
      vertex   -2.325979e+002 -2.961803e+001 1.000000e+000
      vertex   -2.325437e+002 -2.941582e+001 1.000000e+000
    endloop
  endfacet
  facet normal 0.000000e+000 0.000000e+000 5.232932e-002
    outer loop
      vertex   -2.325000e+002 -2.900000e+001 1.000000e+000
      vertex   -2.325437e+002 -2.941582e+001 1.000000e+000
      vertex   -2.325110e+002 -2.920906e+001 1.000000e+000
    endloop
  endfacet
  facet normal 0.000000e+000 0.000000e+000 8.102975e-001
    outer loop
      vertex   -2.750000e+002 2.500000e+001 1.000000e+000
      vertex   -2.325000e+002 2.500000e+001 1.000000e+000
      vertex   -2.345000e+002 8.100000e+001 1.000000e+000
    endloop
  endfacet
  facet normal 0.000000e+000 0.000000e+000 6.814185e-001
    outer loop
      vertex   -2.345000e+002 8.100000e+001 1.000000e+000
      vertex   -2.325000e+002 2.500000e+001 1.000000e+000
      vertex   -2.325000e+002 7.900000e+001 1.000000e+000
    endloop
  endfacet
  facet normal 0.000000e+000 0.000000e+000 6.691327e-001
    outer loop
      vertex   -2.345000e+002 8.100000e+001 1.000000e+000
      vertex   -2.325000e+002 7.900000e+001 1.000000e+000
      vertex   -2.342909e+002 8.098904e+001 1.000000e+000
    endloop
  endfacet
  facet normal 0.000000e+000 0.000000e+000 6.293274e-001
    outer loop
      vertex   -2.342909e+002 8.098904e+001 1.000000e+000
      vertex   -2.325000e+002 7.900000e+001 1.000000e+000
      vertex   -2.340842e+002 8.095630e+001 1.000000e+000
    endloop
  endfacet
  facet normal 0.000000e+000 0.000000e+000 5.877767e-001
    outer loop
      vertex   -2.340842e+002 8.095630e+001 1.000000e+000
      vertex   -2.325000e+002 7.900000e+001 1.000000e+000
      vertex   -2.338820e+002 8.090211e+001 1.000000e+000
    endloop
  endfacet
  facet normal 0.000000e+000 0.000000e+000 5.446324e-001
    outer loop
      vertex   -2.338820e+002 8.090211e+001 1.000000e+000
      vertex   -2.325000e+002 7.900000e+001 1.000000e+000
      vertex   -2.336865e+002 8.082709e+001 1.000000e+000
    endloop
  endfacet
  facet normal 0.000000e+000 0.000000e+000 4.999969e-001
    outer loop
      vertex   -2.336865e+002 8.082709e+001 1.000000e+000
      vertex   -2.325000e+002 7.900000e+001 1.000000e+000
      vertex   -2.335000e+002 8.073205e+001 1.000000e+000
    endloop
  endfacet
  facet normal 0.000000e+000 0.000000e+000 4.539945e-001
    outer loop
      vertex   -2.335000e+002 8.073205e+001 1.000000e+000
      vertex   -2.325000e+002 7.900000e+001 1.000000e+000
      vertex   -2.333244e+002 8.061803e+001 1.000000e+000
    endloop
  endfacet
  facet normal 0.000000e+000 0.000000e+000 4.067312e-001
    outer loop
      vertex   -2.333244e+002 8.061803e+001 1.000000e+000
      vertex   -2.325000e+002 7.900000e+001 1.000000e+000
      vertex   -2.331617e+002 8.048629e+001 1.000000e+000
    endloop
  endfacet
  facet normal 0.000000e+000 0.000000e+000 3.583657e-001
    outer loop
      vertex   -2.331617e+002 8.048629e+001 1.000000e+000
      vertex   -2.325000e+002 7.900000e+001 1.000000e+000
      vertex   -2.330137e+002 8.033826e+001 1.000000e+000
    endloop
  endfacet
  facet normal 0.000000e+000 0.000000e+000 3.089959e-001
    outer loop
      vertex   -2.330137e+002 8.033826e+001 1.000000e+000
      vertex   -2.325000e+002 7.900000e+001 1.000000e+000
      vertex   -2.328820e+002 8.017557e+001 1.000000e+000
    endloop
  endfacet
  facet normal 0.000000e+000 0.000000e+000 2.588671e-001
    outer loop
      vertex   -2.328820e+002 8.017557e+001 1.000000e+000
      vertex   -2.325000e+002 7.900000e+001 1.000000e+000
      vertex   -2.327679e+002 8.000000e+001 1.000000e+000
    endloop
  endfacet
  facet normal 0.000000e+000 0.000000e+000 2.078882e-001
    outer loop
      vertex   -2.327679e+002 8.000000e+001 1.000000e+000
      vertex   -2.325000e+002 7.900000e+001 1.000000e+000
      vertex   -2.326729e+002 7.981348e+001 1.000000e+000
    endloop
  endfacet
  facet normal 0.000000e+000 0.000000e+000 1.564498e-001
    outer loop
      vertex   -2.326729e+002 7.981348e+001 1.000000e+000
      vertex   -2.325000e+002 7.900000e+001 1.000000e+000
      vertex   -2.325979e+002 7.961803e+001 1.000000e+000
    endloop
  endfacet
  facet normal 0.000000e+000 0.000000e+000 1.045410e-001
    outer loop
      vertex   -2.325979e+002 7.961803e+001 1.000000e+000
      vertex   -2.325000e+002 7.900000e+001 1.000000e+000
      vertex   -2.325437e+002 7.941582e+001 1.000000e+000
    endloop
  endfacet
  facet normal 0.000000e+000 0.000000e+000 5.233141e-002
    outer loop
      vertex   -2.325437e+002 7.941582e+001 1.000000e+000
      vertex   -2.325000e+002 7.900000e+001 1.000000e+000
      vertex   -2.325110e+002 7.920906e+001 1.000000e+000
    endloop
  endfacet
  facet normal 0.000000e+000 0.000000e+000 8.102975e-001
    outer loop
      vertex   -2.345000e+002 8.100000e+001 1.000000e+000
      vertex   -2.750000e+002 8.100000e+001 1.000000e+000
      vertex   -2.750000e+002 2.500000e+001 1.000000e+000
    endloop
  endfacet
  facet normal 0.000000e+000 -0.000000e+000 5.860187e-001
    outer loop
      vertex   -2.750000e+002 2.500000e+001 1.000000e+000
      vertex   -2.750000e+002 8.100000e+001 1.000000e+000
      vertex   -3.155000e+002 8.100000e+001 1.000000e+000
    endloop
  endfacet
  facet normal 0.000000e+000 0.000000e+000 8.102975e-001
    outer loop
      vertex   -2.750000e+002 2.500000e+001 1.000000e+000
      vertex   -3.155000e+002 8.100000e+001 1.000000e+000
      vertex   -3.175000e+002 2.500000e+001 1.000000e+000
    endloop
  endfacet
  facet normal 0.000000e+000 0.000000e+000 3.569153e-002
    outer loop
      vertex   -3.175000e+002 2.500000e+001 1.000000e+000
      vertex   -3.155000e+002 8.100000e+001 1.000000e+000
      vertex   -3.175000e+002 7.900000e+001 1.000000e+000
    endloop
  endfacet
  facet normal 0.000000e+000 0.000000e+000 5.233286e-002
    outer loop
      vertex   -3.175000e+002 7.900000e+001 1.000000e+000
      vertex   -3.155000e+002 8.100000e+001 1.000000e+000
      vertex   -3.157090e+002 8.098904e+001 1.000000e+000
    endloop
  endfacet
  facet normal 0.000000e+000 0.000000e+000 5.234277e-002
    outer loop
      vertex   -3.175000e+002 7.900000e+001 1.000000e+000
      vertex   -3.157090e+002 8.098904e+001 1.000000e+000
      vertex   -3.159158e+002 8.095630e+001 1.000000e+000
    endloop
  endfacet
  facet normal 0.000000e+000 0.000000e+000 5.877805e-001
    outer loop
      vertex   -3.159158e+002 8.095630e+001 1.000000e+000
      vertex   -3.161180e+002 8.090211e+001 1.000000e+000
      vertex   -3.175000e+002 7.900000e+001 1.000000e+000
    endloop
  endfacet
  facet normal 0.000000e+000 0.000000e+000 5.233313e-002
    outer loop
      vertex   -3.175000e+002 7.900000e+001 1.000000e+000
      vertex   -3.161180e+002 8.090211e+001 1.000000e+000
      vertex   -3.163135e+002 8.082709e+001 1.000000e+000
    endloop
  endfacet
  facet normal 0.000000e+000 0.000000e+000 5.233488e-002
    outer loop
      vertex   -3.175000e+002 7.900000e+001 1.000000e+000
      vertex   -3.163135e+002 8.082709e+001 1.000000e+000
      vertex   -3.165000e+002 8.073205e+001 1.000000e+000
    endloop
  endfacet
  facet normal 0.000000e+000 0.000000e+000 4.539945e-001
    outer loop
      vertex   -3.165000e+002 8.073205e+001 1.000000e+000
      vertex   -3.166756e+002 8.061803e+001 1.000000e+000
      vertex   -3.175000e+002 7.900000e+001 1.000000e+000
    endloop
  endfacet
  facet normal 0.000000e+000 0.000000e+000 5.233490e-002
    outer loop
      vertex   -3.175000e+002 7.900000e+001 1.000000e+000
      vertex   -3.166756e+002 8.061803e+001 1.000000e+000
      vertex   -3.168383e+002 8.048629e+001 1.000000e+000
    endloop
  endfacet
  facet normal 0.000000e+000 0.000000e+000 5.234431e-002
    outer loop
      vertex   -3.175000e+002 7.900000e+001 1.000000e+000
      vertex   -3.168383e+002 8.048629e+001 1.000000e+000
      vertex   -3.169863e+002 8.033826e+001 1.000000e+000
    endloop
  endfacet
  facet normal 0.000000e+000 0.000000e+000 3.090053e-001
    outer loop
      vertex   -3.169863e+002 8.033826e+001 1.000000e+000
      vertex   -3.171180e+002 8.017557e+001 1.000000e+000
      vertex   -3.175000e+002 7.900000e+001 1.000000e+000
    endloop
  endfacet
  facet normal 0.000000e+000 0.000000e+000 5.233505e-002
    outer loop
      vertex   -3.175000e+002 7.900000e+001 1.000000e+000
      vertex   -3.171180e+002 8.017557e+001 1.000000e+000
      vertex   -3.172321e+002 8.000000e+001 1.000000e+000
    endloop
  endfacet
  facet normal 0.000000e+000 0.000000e+000 5.232812e-002
    outer loop
      vertex   -3.175000e+002 7.900000e+001 1.000000e+000
      vertex   -3.172321e+002 8.000000e+001 1.000000e+000
      vertex   -3.173271e+002 7.981348e+001 1.000000e+000
    endloop
  endfacet
  facet normal 0.000000e+000 0.000000e+000 1.563826e-001
    outer loop
      vertex   -3.173271e+002 7.981348e+001 1.000000e+000
      vertex   -3.174021e+002 7.961803e+001 1.000000e+000
      vertex   -3.175000e+002 7.900000e+001 1.000000e+000
    endloop
  endfacet
  facet normal 0.000000e+000 0.000000e+000 5.236601e-002
    outer loop
      vertex   -3.175000e+002 7.900000e+001 1.000000e+000
      vertex   -3.174021e+002 7.961803e+001 1.000000e+000
      vertex   -3.174563e+002 7.941582e+001 1.000000e+000
    endloop
  endfacet
  facet normal 0.000000e+000 0.000000e+000 5.232980e-002
    outer loop
      vertex   -3.175000e+002 7.900000e+001 1.000000e+000
      vertex   -3.174563e+002 7.941582e+001 1.000000e+000
      vertex   -3.174890e+002 7.920906e+001 1.000000e+000
    endloop
  endfacet
  facet normal -0.000000e+000 0.000000e+000 1.000000e+000
    outer loop
      vertex   -3.175000e+002 2.500000e+001 1.000000e+000
      vertex   -3.175000e+002 -2.900000e+001 1.000000e+000
      vertex   -2.750000e+002 2.500000e+001 1.000000e+000
    endloop
  endfacet
  facet normal 9.986297e-001 5.233312e-002 -0.000000e+000
    outer loop
      vertex   -2.325000e+002 7.900000e+001 0.000000e+000
      vertex   -2.325110e+002 7.920906e+001 0.000000e+000
      vertex   -2.325000e+002 7.900000e+001 1.000000e+000
    endloop
  endfacet
  facet normal 9.774405e-001 5.122270e-002 0.000000e+000
    outer loop
      vertex   -2.325000e+002 7.900000e+001 1.000000e+000
      vertex   -2.325110e+002 7.920906e+001 0.000000e+000
      vertex   -2.325110e+002 7.920906e+001 1.000000e+000
    endloop
  endfacet
  facet normal 2.023773e-001 3.205060e-002 0.000000e+000
    outer loop
      vertex   -2.325110e+002 7.920906e+001 1.000000e+000
      vertex   -2.325110e+002 7.920906e+001 0.000000e+000
      vertex   -2.325437e+002 7.941582e+001 0.000000e+000
    endloop
  endfacet
  facet normal 9.667346e-001 1.531023e-001 6.938894e-018
    outer loop
      vertex   -2.325110e+002 7.920906e+001 1.000000e+000
      vertex   -2.325437e+002 7.941582e+001 0.000000e+000
      vertex   -2.325437e+002 7.941582e+001 1.000000e+000
    endloop
  endfacet
  facet normal 1.979191e-001 5.303432e-002 0.000000e+000
    outer loop
      vertex   -2.325437e+002 7.941582e+001 1.000000e+000
      vertex   -2.325437e+002 7.941582e+001 0.000000e+000
      vertex   -2.325979e+002 7.961803e+001 0.000000e+000
    endloop
  endfacet
  facet normal 9.454290e-001 2.533367e-001 0.000000e+000
    outer loop
      vertex   -2.325437e+002 7.941582e+001 1.000000e+000
      vertex   -2.325979e+002 7.961803e+001 0.000000e+000
      vertex   -2.325979e+002 7.961803e+001 1.000000e+000
    endloop
  endfacet
  facet normal 1.912952e-001 7.343550e-002 0.000000e+000
    outer loop
      vertex   -2.325979e+002 7.961803e+001 1.000000e+000
      vertex   -2.325979e+002 7.961803e+001 0.000000e+000
      vertex   -2.326729e+002 7.981348e+001 0.000000e+000
    endloop
  endfacet
  facet normal 9.137647e-001 3.507812e-001 0.000000e+000
    outer loop
      vertex   -2.325979e+002 7.961803e+001 1.000000e+000
      vertex   -2.326729e+002 7.981348e+001 0.000000e+000
      vertex   -2.326729e+002 7.981348e+001 1.000000e+000
    endloop
  endfacet
  facet normal 1.825661e-001 9.301553e-002 0.000000e+000
    outer loop
      vertex   -2.326729e+002 7.981348e+001 1.000000e+000
      vertex   -2.326729e+002 7.981348e+001 0.000000e+000
      vertex   -2.327679e+002 8.000000e+001 0.000000e+000
    endloop
  endfacet
  facet normal 8.721154e-001 4.443337e-001 0.000000e+000
    outer loop
      vertex   -2.326729e+002 7.981348e+001 1.000000e+000
      vertex   -2.327679e+002 8.000000e+001 0.000000e+000
      vertex   -2.327679e+002 8.000000e+001 1.000000e+000
    endloop
  endfacet
  facet normal 1.718424e-001 1.116094e-001 0.000000e+000
    outer loop
      vertex   -2.327679e+002 8.000000e+001 1.000000e+000
      vertex   -2.327679e+002 8.000000e+001 0.000000e+000
      vertex   -2.328820e+002 8.017557e+001 0.000000e+000
    endloop
  endfacet
  facet normal 8.208455e-001 5.331287e-001 0.000000e+000
    outer loop
      vertex   -2.327679e+002 8.000000e+001 1.000000e+000
      vertex   -2.328820e+002 8.017557e+001 0.000000e+000
      vertex   -2.328820e+002 8.017557e+001 1.000000e+000
    endloop
  endfacet
  facet normal 7.771574e-001 6.293062e-001 0.000000e+000
    outer loop
      vertex   -2.328820e+002 8.017557e+001 1.000000e+000
      vertex   -2.328820e+002 8.017557e+001 0.000000e+000
      vertex   -2.330137e+002 8.033826e+001 1.000000e+000
    endloop
  endfacet
  facet normal 1.592447e-001 1.289490e-001 0.000000e+000
    outer loop
      vertex   -2.330137e+002 8.033826e+001 1.000000e+000
      vertex   -2.328820e+002 8.017557e+001 0.000000e+000
      vertex   -2.330137e+002 8.033826e+001 0.000000e+000
    endloop
  endfacet
  facet normal 7.071068e-001 7.071068e-001 0.000000e+000
    outer loop
      vertex   -2.330137e+002 8.033826e+001 1.000000e+000
      vertex   -2.330137e+002 8.033826e+001 0.000000e+000
      vertex   -2.331617e+002 8.048629e+001 1.000000e+000
    endloop
  endfacet
  facet normal 1.448849e-001 1.448849e-001 0.000000e+000
    outer loop
      vertex   -2.331617e+002 8.048629e+001 1.000000e+000
      vertex   -2.330137e+002 8.033826e+001 0.000000e+000
      vertex   -2.331617e+002 8.048629e+001 0.000000e+000
    endloop
  endfacet
  facet normal 6.293240e-001 7.771430e-001 0.000000e+000
    outer loop
      vertex   -2.331617e+002 8.048629e+001 1.000000e+000
      vertex   -2.331617e+002 8.048629e+001 0.000000e+000
      vertex   -2.333244e+002 8.061803e+001 1.000000e+000
    endloop
  endfacet
  facet normal 1.289491e-001 1.592374e-001 0.000000e+000
    outer loop
      vertex   -2.333244e+002 8.061803e+001 1.000000e+000
      vertex   -2.331617e+002 8.048629e+001 0.000000e+000
      vertex   -2.333244e+002 8.061803e+001 0.000000e+000
    endloop
  endfacet
  facet normal 1.115947e-001 1.718427e-001 0.000000e+000
    outer loop
      vertex   -2.333244e+002 8.061803e+001 1.000000e+000
      vertex   -2.333244e+002 8.061803e+001 0.000000e+000
      vertex   -2.335000e+002 8.073205e+001 0.000000e+000
    endloop
  endfacet
  facet normal 5.330794e-001 8.208795e-001 0.000000e+000
    outer loop
      vertex   -2.333244e+002 8.061803e+001 1.000000e+000
      vertex   -2.335000e+002 8.073205e+001 0.000000e+000
      vertex   -2.335000e+002 8.073205e+001 1.000000e+000
    endloop
  endfacet
  facet normal 9.302293e-002 1.825660e-001 0.000000e+000
    outer loop
      vertex   -2.335000e+002 8.073205e+001 1.000000e+000
      vertex   -2.335000e+002 8.073205e+001 0.000000e+000
      vertex   -2.336865e+002 8.082709e+001 0.000000e+000
    endloop
  endfacet
  facet normal 4.443617e-001 8.721004e-001 1.387779e-017
    outer loop
      vertex   -2.335000e+002 8.073205e+001 1.000000e+000
      vertex   -2.336865e+002 8.082709e+001 0.000000e+000
      vertex   -2.336865e+002 8.082709e+001 1.000000e+000
    endloop
  endfacet
  facet normal 7.343540e-002 1.913024e-001 0.000000e+000
    outer loop
      vertex   -2.336865e+002 8.082709e+001 1.000000e+000
      vertex   -2.336865e+002 8.082709e+001 0.000000e+000
      vertex   -2.338820e+002 8.090211e+001 0.000000e+000
    endloop
  endfacet
  facet normal 3.507688e-001 9.137680e-001 0.000000e+000
    outer loop
      vertex   -2.336865e+002 8.082709e+001 1.000000e+000
      vertex   -2.338820e+002 8.090211e+001 0.000000e+000
      vertex   -2.338820e+002 8.090211e+001 1.000000e+000
    endloop
  endfacet
  facet normal 5.303432e-002 1.979191e-001 0.000000e+000
    outer loop
      vertex   -2.338820e+002 8.090211e+001 1.000000e+000
      vertex   -2.338820e+002 8.090211e+001 0.000000e+000
      vertex   -2.340842e+002 8.095630e+001 0.000000e+000
    endloop
  endfacet
  facet normal 2.533367e-001 9.454290e-001 0.000000e+000
    outer loop
      vertex   -2.338820e+002 8.090211e+001 1.000000e+000
      vertex   -2.340842e+002 8.095630e+001 0.000000e+000
      vertex   -2.340842e+002 8.095630e+001 1.000000e+000
    endloop
  endfacet
  facet normal 3.205065e-002 2.023702e-001 0.000000e+000
    outer loop
      vertex   -2.340842e+002 8.095630e+001 1.000000e+000
      vertex   -2.340842e+002 8.095630e+001 0.000000e+000
      vertex   -2.342909e+002 8.098904e+001 0.000000e+000
    endloop
  endfacet
  facet normal 1.531080e-001 9.667352e-001 0.000000e+000
    outer loop
      vertex   -2.340842e+002 8.095630e+001 1.000000e+000
      vertex   -2.342909e+002 8.098904e+001 0.000000e+000
      vertex   -2.342909e+002 8.098904e+001 1.000000e+000
    endloop
  endfacet
  facet normal 1.072335e-002 2.046248e-001 0.000000e+000
    outer loop
      vertex   -2.342909e+002 8.098904e+001 1.000000e+000
      vertex   -2.342909e+002 8.098904e+001 0.000000e+000
      vertex   -2.345000e+002 8.100000e+001 0.000000e+000
    endloop
  endfacet
  facet normal 5.122270e-002 9.774405e-001 0.000000e+000
    outer loop
      vertex   -2.342909e+002 8.098904e+001 1.000000e+000
      vertex   -2.345000e+002 8.100000e+001 0.000000e+000
      vertex   -2.345000e+002 8.100000e+001 1.000000e+000
    endloop
  endfacet
  facet normal 1.000000e+000 0.000000e+000 0.000000e+000
    outer loop
      vertex   -2.325000e+002 7.900000e+001 1.000000e+000
      vertex   -2.325000e+002 2.500000e+001 1.000000e+000
      vertex   -2.325000e+002 7.900000e+001 0.000000e+000
    endloop
  endfacet
  facet normal 1.851534e-002 0.000000e+000 0.000000e+000
    outer loop
      vertex   -2.325000e+002 7.900000e+001 0.000000e+000
      vertex   -2.325000e+002 2.500000e+001 1.000000e+000
      vertex   -2.325000e+002 2.500000e+001 0.000000e+000
    endloop
  endfacet
  facet normal 9.998286e-001 0.000000e+000 -0.000000e+000
    outer loop
      vertex   -2.325000e+002 2.500000e+001 0.000000e+000
      vertex   -2.325000e+002 2.500000e+001 1.000000e+000
      vertex   -2.325000e+002 -2.900000e+001 1.000000e+000
    endloop
  endfacet
  facet normal 1.851534e-002 0.000000e+000 0.000000e+000
    outer loop
      vertex   -2.325000e+002 2.500000e+001 0.000000e+000
      vertex   -2.325000e+002 -2.900000e+001 1.000000e+000
      vertex   -2.325000e+002 -2.900000e+001 0.000000e+000
    endloop
  endfacet
  facet normal 5.233312e-002 -9.986297e-001 0.000000e+000
    outer loop
      vertex   -2.345000e+002 -3.100000e+001 0.000000e+000
      vertex   -2.342909e+002 -3.098904e+001 0.000000e+000
      vertex   -2.345000e+002 -3.100000e+001 1.000000e+000
    endloop
  endfacet
  facet normal 5.122270e-002 -9.774405e-001 0.000000e+000
    outer loop
      vertex   -2.345000e+002 -3.100000e+001 1.000000e+000
      vertex   -2.342909e+002 -3.098904e+001 0.000000e+000
      vertex   -2.342909e+002 -3.098904e+001 1.000000e+000
    endloop
  endfacet
  facet normal 3.205438e-002 -2.023701e-001 0.000000e+000
    outer loop
      vertex   -2.342909e+002 -3.098904e+001 1.000000e+000
      vertex   -2.342909e+002 -3.098904e+001 0.000000e+000
      vertex   -2.340842e+002 -3.095630e+001 0.000000e+000
    endloop
  endfacet
  facet normal 1.531254e-001 -9.667324e-001 6.938894e-018
    outer loop
      vertex   -2.342909e+002 -3.098904e+001 1.000000e+000
      vertex   -2.340842e+002 -3.095630e+001 0.000000e+000
      vertex   -2.340842e+002 -3.095630e+001 1.000000e+000
    endloop
  endfacet
  facet normal 5.303245e-002 -1.979191e-001 0.000000e+000
    outer loop
      vertex   -2.340842e+002 -3.095630e+001 1.000000e+000
      vertex   -2.340842e+002 -3.095630e+001 0.000000e+000
      vertex   -2.338820e+002 -3.090211e+001 0.000000e+000
    endloop
  endfacet
  facet normal 2.533284e-001 -9.454313e-001 0.000000e+000
    outer loop
      vertex   -2.340842e+002 -3.095630e+001 1.000000e+000
      vertex   -2.338820e+002 -3.090211e+001 0.000000e+000
      vertex   -2.338820e+002 -3.090211e+001 1.000000e+000
    endloop
  endfacet
  facet normal 7.342982e-002 -1.913025e-001 0.000000e+000
    outer loop
      vertex   -2.338820e+002 -3.090211e+001 1.000000e+000
      vertex   -2.338820e+002 -3.090211e+001 0.000000e+000
      vertex   -2.336865e+002 -3.082709e+001 0.000000e+000
    endloop
  endfacet
  facet normal 3.507456e-001 -9.137773e-001 0.000000e+000
    outer loop
      vertex   -2.338820e+002 -3.090211e+001 1.000000e+000
      vertex   -2.336865e+002 -3.082709e+001 0.000000e+000
      vertex   -2.336865e+002 -3.082709e+001 1.000000e+000
    endloop
  endfacet
  facet normal 9.302478e-002 -1.825660e-001 0.000000e+000
    outer loop
      vertex   -2.336865e+002 -3.082709e+001 1.000000e+000
      vertex   -2.336865e+002 -3.082709e+001 0.000000e+000
      vertex   -2.335000e+002 -3.073205e+001 0.000000e+000
    endloop
  endfacet
  facet normal 4.443687e-001 -8.720967e-001 -1.387779e-017
    outer loop
      vertex   -2.336865e+002 -3.082709e+001 1.000000e+000
      vertex   -2.335000e+002 -3.073205e+001 0.000000e+000
      vertex   -2.335000e+002 -3.073205e+001 1.000000e+000
    endloop
  endfacet
  facet normal 1.115965e-001 -1.718426e-001 0.000000e+000
    outer loop
      vertex   -2.335000e+002 -3.073205e+001 1.000000e+000
      vertex   -2.335000e+002 -3.073205e+001 0.000000e+000
      vertex   -2.333244e+002 -3.061803e+001 0.000000e+000
    endloop
  endfacet
  facet normal 5.330855e-001 -8.208752e-001 -1.387779e-017
    outer loop
      vertex   -2.335000e+002 -3.073205e+001 1.000000e+000
      vertex   -2.333244e+002 -3.061803e+001 0.000000e+000
      vertex   -2.333244e+002 -3.061803e+001 1.000000e+000
    endloop
  endfacet
  facet normal 6.293240e-001 -7.771430e-001 0.000000e+000
    outer loop
      vertex   -2.333244e+002 -3.061803e+001 1.000000e+000
      vertex   -2.333244e+002 -3.061803e+001 0.000000e+000
      vertex   -2.331617e+002 -3.048629e+001 1.000000e+000
    endloop
  endfacet
  facet normal 1.289491e-001 -1.592374e-001 0.000000e+000
    outer loop
      vertex   -2.331617e+002 -3.048629e+001 1.000000e+000
      vertex   -2.333244e+002 -3.061803e+001 0.000000e+000
      vertex   -2.331617e+002 -3.048629e+001 0.000000e+000
    endloop
  endfacet
  facet normal 7.071159e-001 -7.070976e-001 0.000000e+000
    outer loop
      vertex   -2.331617e+002 -3.048629e+001 1.000000e+000
      vertex   -2.331617e+002 -3.048629e+001 0.000000e+000
      vertex   -2.330137e+002 -3.033826e+001 1.000000e+000
    endloop
  endfacet
  facet normal 1.448886e-001 -1.448848e-001 0.000000e+000
    outer loop
      vertex   -2.330137e+002 -3.033826e+001 1.000000e+000
      vertex   -2.331617e+002 -3.048629e+001 0.000000e+000
      vertex   -2.330137e+002 -3.033826e+001 0.000000e+000
    endloop
  endfacet
  facet normal 7.771430e-001 -6.293240e-001 0.000000e+000
    outer loop
      vertex   -2.330137e+002 -3.033826e+001 1.000000e+000
      vertex   -2.330137e+002 -3.033826e+001 0.000000e+000
      vertex   -2.328820e+002 -3.017557e+001 1.000000e+000
    endloop
  endfacet
  facet normal 1.592374e-001 -1.289491e-001 0.000000e+000
    outer loop
      vertex   -2.328820e+002 -3.017557e+001 1.000000e+000
      vertex   -2.330137e+002 -3.033826e+001 0.000000e+000
      vertex   -2.328820e+002 -3.017557e+001 0.000000e+000
    endloop
  endfacet
  facet normal 1.718460e-001 -1.116094e-001 0.000000e+000
    outer loop
      vertex   -2.328820e+002 -3.017557e+001 1.000000e+000
      vertex   -2.328820e+002 -3.017557e+001 0.000000e+000
      vertex   -2.327679e+002 -3.000000e+001 0.000000e+000
    endloop
  endfacet
  facet normal 8.208503e-001 -5.331202e-001 0.000000e+000
    outer loop
      vertex   -2.328820e+002 -3.017557e+001 1.000000e+000
      vertex   -2.327679e+002 -3.000000e+001 0.000000e+000
      vertex   -2.327679e+002 -3.000000e+001 1.000000e+000
    endloop
  endfacet
  facet normal 1.825697e-001 -9.301546e-002 0.000000e+000
    outer loop
      vertex   -2.327679e+002 -3.000000e+001 1.000000e+000
      vertex   -2.327679e+002 -3.000000e+001 0.000000e+000
      vertex   -2.326729e+002 -2.981347e+001 0.000000e+000
    endloop
  endfacet
  facet normal 8.721185e-001 -4.443262e-001 1.387779e-017
    outer loop
      vertex   -2.327679e+002 -3.000000e+001 1.000000e+000
      vertex   -2.326729e+002 -2.981347e+001 0.000000e+000
      vertex   -2.326729e+002 -2.981347e+001 1.000000e+000
    endloop
  endfacet
  facet normal 1.912916e-001 -7.343555e-002 0.000000e+000
    outer loop
      vertex   -2.326729e+002 -2.981347e+001 1.000000e+000
      vertex   -2.326729e+002 -2.981347e+001 0.000000e+000
      vertex   -2.325979e+002 -2.961803e+001 0.000000e+000
    endloop
  endfacet
  facet normal 9.137630e-001 -3.507874e-001 0.000000e+000
    outer loop
      vertex   -2.326729e+002 -2.981347e+001 1.000000e+000
      vertex   -2.325979e+002 -2.961803e+001 0.000000e+000
      vertex   -2.325979e+002 -2.961803e+001 1.000000e+000
    endloop
  endfacet
  facet normal 1.979209e-001 -5.303430e-002 0.000000e+000
    outer loop
      vertex   -2.325979e+002 -2.961803e+001 1.000000e+000
      vertex   -2.325979e+002 -2.961803e+001 0.000000e+000
      vertex   -2.325437e+002 -2.941582e+001 0.000000e+000
    endloop
  endfacet
  facet normal 9.454292e-001 -2.533344e-001 0.000000e+000
    outer loop
      vertex   -2.325979e+002 -2.961803e+001 1.000000e+000
      vertex   -2.325437e+002 -2.941582e+001 0.000000e+000
      vertex   -2.325437e+002 -2.941582e+001 1.000000e+000
    endloop
  endfacet
  facet normal 2.023791e-001 -3.205059e-002 0.000000e+000
    outer loop
      vertex   -2.325437e+002 -2.941582e+001 1.000000e+000
      vertex   -2.325437e+002 -2.941582e+001 0.000000e+000
      vertex   -2.325110e+002 -2.920906e+001 0.000000e+000
    endloop
  endfacet
  facet normal 9.667345e-001 -1.531008e-001 6.938894e-018
    outer loop
      vertex   -2.325437e+002 -2.941582e+001 1.000000e+000
      vertex   -2.325110e+002 -2.920906e+001 0.000000e+000
      vertex   -2.325110e+002 -2.920906e+001 1.000000e+000
    endloop
  endfacet
  facet normal 2.046212e-001 -1.072336e-002 0.000000e+000
    outer loop
      vertex   -2.325110e+002 -2.920906e+001 1.000000e+000
      vertex   -2.325110e+002 -2.920906e+001 0.000000e+000
      vertex   -2.325000e+002 -2.900000e+001 0.000000e+000
    endloop
  endfacet
  facet normal 9.774412e-001 -5.122368e-002 1.734723e-018
    outer loop
      vertex   -2.325110e+002 -2.920906e+001 1.000000e+000
      vertex   -2.325000e+002 -2.900000e+001 0.000000e+000
      vertex   -2.325000e+002 -2.900000e+001 1.000000e+000
    endloop
  endfacet
  facet normal -1.000000e+000 0.000000e+000 0.000000e+000
    outer loop
      vertex   -3.175000e+002 -2.900000e+001 1.000000e+000
      vertex   -3.175000e+002 2.500000e+001 1.000000e+000
      vertex   -3.175000e+002 -2.900000e+001 0.000000e+000
    endloop
  endfacet
  facet normal -1.851534e-002 0.000000e+000 0.000000e+000
    outer loop
      vertex   -3.175000e+002 -2.900000e+001 0.000000e+000
      vertex   -3.175000e+002 2.500000e+001 1.000000e+000
      vertex   -3.175000e+002 2.500000e+001 0.000000e+000
    endloop
  endfacet
  facet normal -9.998286e-001 0.000000e+000 0.000000e+000
    outer loop
      vertex   -3.175000e+002 2.500000e+001 0.000000e+000
      vertex   -3.175000e+002 2.500000e+001 1.000000e+000
      vertex   -3.175000e+002 7.900000e+001 1.000000e+000
    endloop
  endfacet
  facet normal -1.851534e-002 0.000000e+000 0.000000e+000
    outer loop
      vertex   -3.175000e+002 2.500000e+001 0.000000e+000
      vertex   -3.175000e+002 7.900000e+001 1.000000e+000
      vertex   -3.175000e+002 7.900000e+001 0.000000e+000
    endloop
  endfacet
endsolid
