solid ascii
  facet normal -5.235130e-002 9.986287e-001 0.000000e+000
    outer loop
      vertex   -1.805000e+002 4.669204e+001 0.000000e+000
      vertex   -1.807091e+002 4.668108e+001 0.000000e+000
      vertex   -1.805000e+002 4.669204e+001 1.000000e+000
    endloop
  endfacet
  facet normal -5.124049e-002 9.774395e-001 0.000000e+000
    outer loop
      vertex   -1.805000e+002 4.669204e+001 1.000000e+000
      vertex   -1.807091e+002 4.668108e+001 0.000000e+000
      vertex   -1.807091e+002 4.668108e+001 1.000000e+000
    endloop
  endfacet
  facet normal -3.205065e-002 2.023702e-001 0.000000e+000
    outer loop
      vertex   -1.807091e+002 4.668108e+001 1.000000e+000
      vertex   -1.807091e+002 4.668108e+001 0.000000e+000
      vertex   -1.809158e+002 4.664833e+001 0.000000e+000
    endloop
  endfacet
  facet normal -1.531080e-001 9.667352e-001 0.000000e+000
    outer loop
      vertex   -1.807091e+002 4.668108e+001 1.000000e+000
      vertex   -1.809158e+002 4.664833e+001 0.000000e+000
      vertex   -1.809158e+002 4.664833e+001 1.000000e+000
    endloop
  endfacet
  facet normal -5.303432e-002 1.979191e-001 0.000000e+000
    outer loop
      vertex   -1.809158e+002 4.664833e+001 1.000000e+000
      vertex   -1.809158e+002 4.664833e+001 0.000000e+000
      vertex   -1.811180e+002 4.659415e+001 0.000000e+000
    endloop
  endfacet
  facet normal -2.533367e-001 9.454290e-001 0.000000e+000
    outer loop
      vertex   -1.809158e+002 4.664833e+001 1.000000e+000
      vertex   -1.811180e+002 4.659415e+001 0.000000e+000
      vertex   -1.811180e+002 4.659415e+001 1.000000e+000
    endloop
  endfacet
  facet normal -7.343169e-002 1.913025e-001 0.000000e+000
    outer loop
      vertex   -1.811180e+002 4.659415e+001 1.000000e+000
      vertex   -1.811180e+002 4.659415e+001 0.000000e+000
      vertex   -1.813135e+002 4.651912e+001 0.000000e+000
    endloop
  endfacet
  facet normal -3.507533e-001 9.137742e-001 0.000000e+000
    outer loop
      vertex   -1.811180e+002 4.659415e+001 1.000000e+000
      vertex   -1.813135e+002 4.651912e+001 0.000000e+000
      vertex   -1.813135e+002 4.651912e+001 1.000000e+000
    endloop
  endfacet
  facet normal -9.302293e-002 1.825660e-001 0.000000e+000
    outer loop
      vertex   -1.813135e+002 4.651912e+001 1.000000e+000
      vertex   -1.813135e+002 4.651912e+001 0.000000e+000
      vertex   -1.815000e+002 4.642408e+001 0.000000e+000
    endloop
  endfacet
  facet normal -4.443617e-001 8.721004e-001 -1.387779e-017
    outer loop
      vertex   -1.813135e+002 4.651912e+001 1.000000e+000
      vertex   -1.815000e+002 4.642408e+001 0.000000e+000
      vertex   -1.815000e+002 4.642408e+001 1.000000e+000
    endloop
  endfacet
  facet normal -1.115984e-001 1.718426e-001 0.000000e+000
    outer loop
      vertex   -1.815000e+002 4.642408e+001 1.000000e+000
      vertex   -1.815000e+002 4.642408e+001 0.000000e+000
      vertex   -1.816756e+002 4.631007e+001 0.000000e+000
    endloop
  endfacet
  facet normal -5.330917e-001 8.208710e-001 0.000000e+000
    outer loop
      vertex   -1.815000e+002 4.642408e+001 1.000000e+000
      vertex   -1.816756e+002 4.631007e+001 0.000000e+000
      vertex   -1.816756e+002 4.631007e+001 1.000000e+000
    endloop
  endfacet
  facet normal -6.293240e-001 7.771430e-001 0.000000e+000
    outer loop
      vertex   -1.816756e+002 4.631007e+001 1.000000e+000
      vertex   -1.816756e+002 4.631007e+001 0.000000e+000
      vertex   -1.818383e+002 4.617832e+001 1.000000e+000
    endloop
  endfacet
  facet normal -1.289491e-001 1.592374e-001 0.000000e+000
    outer loop
      vertex   -1.818383e+002 4.617832e+001 1.000000e+000
      vertex   -1.816756e+002 4.631007e+001 0.000000e+000
      vertex   -1.818383e+002 4.617832e+001 0.000000e+000
    endloop
  endfacet
  facet normal -7.071068e-001 7.071068e-001 0.000000e+000
    outer loop
      vertex   -1.818383e+002 4.617832e+001 1.000000e+000
      vertex   -1.818383e+002 4.617832e+001 0.000000e+000
      vertex   -1.819863e+002 4.603030e+001 1.000000e+000
    endloop
  endfacet
  facet normal -1.448849e-001 1.448849e-001 0.000000e+000
    outer loop
      vertex   -1.819863e+002 4.603030e+001 1.000000e+000
      vertex   -1.818383e+002 4.617832e+001 0.000000e+000
      vertex   -1.819863e+002 4.603030e+001 0.000000e+000
    endloop
  endfacet
  facet normal -7.771502e-001 6.293151e-001 0.000000e+000
    outer loop
      vertex   -1.819863e+002 4.603030e+001 1.000000e+000
      vertex   -1.819863e+002 4.603030e+001 0.000000e+000
      vertex   -1.821180e+002 4.586760e+001 1.000000e+000
    endloop
  endfacet
  facet normal -1.592410e-001 1.289490e-001 0.000000e+000
    outer loop
      vertex   -1.821180e+002 4.586760e+001 1.000000e+000
      vertex   -1.819863e+002 4.603030e+001 0.000000e+000
      vertex   -1.821180e+002 4.586760e+001 0.000000e+000
    endloop
  endfacet
  facet normal -1.718424e-001 1.116094e-001 0.000000e+000
    outer loop
      vertex   -1.821180e+002 4.586760e+001 1.000000e+000
      vertex   -1.821180e+002 4.586760e+001 0.000000e+000
      vertex   -1.822321e+002 4.569204e+001 0.000000e+000
    endloop
  endfacet
  facet normal -8.208455e-001 5.331287e-001 0.000000e+000
    outer loop
      vertex   -1.821180e+002 4.586760e+001 1.000000e+000
      vertex   -1.822321e+002 4.569204e+001 0.000000e+000
      vertex   -1.822321e+002 4.569204e+001 1.000000e+000
    endloop
  endfacet
  facet normal -1.825697e-001 9.301546e-002 0.000000e+000
    outer loop
      vertex   -1.822321e+002 4.569204e+001 1.000000e+000
      vertex   -1.822321e+002 4.569204e+001 0.000000e+000
      vertex   -1.823271e+002 4.550551e+001 0.000000e+000
    endloop
  endfacet
  facet normal -8.721185e-001 4.443262e-001 1.387779e-017
    outer loop
      vertex   -1.822321e+002 4.569204e+001 1.000000e+000
      vertex   -1.823271e+002 4.550551e+001 0.000000e+000
      vertex   -1.823271e+002 4.550551e+001 1.000000e+000
    endloop
  endfacet
  facet normal -1.912952e-001 7.343550e-002 0.000000e+000
    outer loop
      vertex   -1.823271e+002 4.550551e+001 1.000000e+000
      vertex   -1.823271e+002 4.550551e+001 0.000000e+000
      vertex   -1.824021e+002 4.531007e+001 0.000000e+000
    endloop
  endfacet
  facet normal -9.137647e-001 3.507812e-001 0.000000e+000
    outer loop
      vertex   -1.823271e+002 4.550551e+001 1.000000e+000
      vertex   -1.824021e+002 4.531007e+001 0.000000e+000
      vertex   -1.824021e+002 4.531007e+001 1.000000e+000
    endloop
  endfacet
  facet normal -1.979191e-001 5.303432e-002 0.000000e+000
    outer loop
      vertex   -1.824021e+002 4.531007e+001 1.000000e+000
      vertex   -1.824021e+002 4.531007e+001 0.000000e+000
      vertex   -1.824563e+002 4.510786e+001 0.000000e+000
    endloop
  endfacet
  facet normal -9.454290e-001 2.533367e-001 0.000000e+000
    outer loop
      vertex   -1.824021e+002 4.531007e+001 1.000000e+000
      vertex   -1.824563e+002 4.510786e+001 0.000000e+000
      vertex   -1.824563e+002 4.510786e+001 1.000000e+000
    endloop
  endfacet
  facet normal -2.023773e-001 3.205060e-002 0.000000e+000
    outer loop
      vertex   -1.824563e+002 4.510786e+001 1.000000e+000
      vertex   -1.824563e+002 4.510786e+001 0.000000e+000
      vertex   -1.824890e+002 4.490109e+001 0.000000e+000
    endloop
  endfacet
  facet normal -9.667346e-001 1.531023e-001 -6.938894e-018
    outer loop
      vertex   -1.824563e+002 4.510786e+001 1.000000e+000
      vertex   -1.824890e+002 4.490109e+001 0.000000e+000
      vertex   -1.824890e+002 4.490109e+001 1.000000e+000
    endloop
  endfacet
  facet normal -2.046212e-001 1.072336e-002 0.000000e+000
    outer loop
      vertex   -1.824890e+002 4.490109e+001 1.000000e+000
      vertex   -1.824890e+002 4.490109e+001 0.000000e+000
      vertex   -1.825000e+002 4.469204e+001 0.000000e+000
    endloop
  endfacet
  facet normal -9.774412e-001 5.122368e-002 1.734723e-018
    outer loop
      vertex   -1.824890e+002 4.490109e+001 1.000000e+000
      vertex   -1.825000e+002 4.469204e+001 0.000000e+000
      vertex   -1.825000e+002 4.469204e+001 1.000000e+000
    endloop
  endfacet
  facet normal -0.000000e+000 1.000000e+000 0.000000e+000
    outer loop
      vertex   -1.805000e+002 4.669204e+001 1.000000e+000
      vertex   -1.400000e+002 4.669204e+001 1.000000e+000
      vertex   -1.805000e+002 4.669204e+001 0.000000e+000
    endloop
  endfacet
  facet normal 0.000000e+000 2.468383e-002 0.000000e+000
    outer loop
      vertex   -1.805000e+002 4.669204e+001 0.000000e+000
      vertex   -1.400000e+002 4.669204e+001 1.000000e+000
      vertex   -1.400000e+002 4.669204e+001 0.000000e+000
    endloop
  endfacet
  facet normal 0.000000e+000 9.996953e-001 0.000000e+000
    outer loop
      vertex   -1.400000e+002 4.669204e+001 0.000000e+000
      vertex   -1.400000e+002 4.669204e+001 1.000000e+000
      vertex   -9.950000e+001 4.669204e+001 1.000000e+000
    endloop
  endfacet
  facet normal 0.000000e+000 2.468383e-002 0.000000e+000
    outer loop
      vertex   -1.400000e+002 4.669204e+001 0.000000e+000
      vertex   -9.950000e+001 4.669204e+001 1.000000e+000
      vertex   -9.950000e+001 4.669204e+001 0.000000e+000
    endloop
  endfacet
  facet normal -0.000000e+000 0.000000e+000 1.045054e-001
    outer loop
      vertex   -1.807091e+002 4.668108e+001 1.000000e+000
      vertex   -1.809158e+002 4.664833e+001 1.000000e+000
      vertex   -1.805000e+002 4.669204e+001 1.000000e+000
    endloop
  endfacet
  facet normal 0.000000e+000 0.000000e+000 5.233891e-002
    outer loop
      vertex   -1.805000e+002 4.669204e+001 1.000000e+000
      vertex   -1.809158e+002 4.664833e+001 1.000000e+000
      vertex   -1.811180e+002 4.659415e+001 1.000000e+000
    endloop
  endfacet
  facet normal 0.000000e+000 0.000000e+000 5.233433e-002
    outer loop
      vertex   -1.805000e+002 4.669204e+001 1.000000e+000
      vertex   -1.811180e+002 4.659415e+001 1.000000e+000
      vertex   -1.813135e+002 4.651912e+001 1.000000e+000
    endloop
  endfacet
  facet normal -0.000000e+000 0.000000e+000 2.588197e-001
    outer loop
      vertex   -1.813135e+002 4.651912e+001 1.000000e+000
      vertex   -1.815000e+002 4.642408e+001 1.000000e+000
      vertex   -1.805000e+002 4.669204e+001 1.000000e+000
    endloop
  endfacet
  facet normal 0.000000e+000 0.000000e+000 5.233673e-002
    outer loop
      vertex   -1.805000e+002 4.669204e+001 1.000000e+000
      vertex   -1.815000e+002 4.642408e+001 1.000000e+000
      vertex   -1.816756e+002 4.631007e+001 1.000000e+000
    endloop
  endfacet
  facet normal 0.000000e+000 0.000000e+000 5.233596e-002
    outer loop
      vertex   -1.805000e+002 4.669204e+001 1.000000e+000
      vertex   -1.816756e+002 4.631007e+001 1.000000e+000
      vertex   -1.818383e+002 4.617832e+001 1.000000e+000
    endloop
  endfacet
  facet normal -0.000000e+000 0.000000e+000 4.067336e-001
    outer loop
      vertex   -1.818383e+002 4.617832e+001 1.000000e+000
      vertex   -1.819863e+002 4.603030e+001 1.000000e+000
      vertex   -1.805000e+002 4.669204e+001 1.000000e+000
    endloop
  endfacet
  facet normal 0.000000e+000 0.000000e+000 5.233704e-002
    outer loop
      vertex   -1.805000e+002 4.669204e+001 1.000000e+000
      vertex   -1.819863e+002 4.603030e+001 1.000000e+000
      vertex   -1.821180e+002 4.586760e+001 1.000000e+000
    endloop
  endfacet
  facet normal 0.000000e+000 0.000000e+000 5.233152e-002
    outer loop
      vertex   -1.805000e+002 4.669204e+001 1.000000e+000
      vertex   -1.821180e+002 4.586760e+001 1.000000e+000
      vertex   -1.822321e+002 4.569204e+001 1.000000e+000
    endloop
  endfacet
  facet normal -0.000000e+000 0.000000e+000 5.446709e-001
    outer loop
      vertex   -1.822321e+002 4.569204e+001 1.000000e+000
      vertex   -1.823271e+002 4.550551e+001 1.000000e+000
      vertex   -1.805000e+002 4.669204e+001 1.000000e+000
    endloop
  endfacet
  facet normal 0.000000e+000 0.000000e+000 5.233560e-002
    outer loop
      vertex   -1.805000e+002 4.669204e+001 1.000000e+000
      vertex   -1.823271e+002 4.550551e+001 1.000000e+000
      vertex   -1.824021e+002 4.531007e+001 1.000000e+000
    endloop
  endfacet
  facet normal 0.000000e+000 0.000000e+000 5.233504e-002
    outer loop
      vertex   -1.805000e+002 4.669204e+001 1.000000e+000
      vertex   -1.824021e+002 4.531007e+001 1.000000e+000
      vertex   -1.824563e+002 4.510786e+001 1.000000e+000
    endloop
  endfacet
  facet normal -0.000000e+000 0.000000e+000 6.691408e-001
    outer loop
      vertex   -1.824563e+002 4.510786e+001 1.000000e+000
      vertex   -1.824890e+002 4.490109e+001 1.000000e+000
      vertex   -1.805000e+002 4.669204e+001 1.000000e+000
    endloop
  endfacet
  facet normal 0.000000e+000 0.000000e+000 5.233604e-002
    outer loop
      vertex   -1.805000e+002 4.669204e+001 1.000000e+000
      vertex   -1.824890e+002 4.490109e+001 1.000000e+000
      vertex   -1.825000e+002 4.469204e+001 1.000000e+000
    endloop
  endfacet
  facet normal -0.000000e+000 0.000000e+000 7.071068e-001
    outer loop
      vertex   -1.805000e+002 4.669204e+001 1.000000e+000
      vertex   -1.825000e+002 4.469204e+001 1.000000e+000
      vertex   -1.400000e+002 4.669204e+001 1.000000e+000
    endloop
  endfacet
  facet normal 0.000000e+000 0.000000e+000 9.988946e-001
    outer loop
      vertex   -1.400000e+002 4.669204e+001 1.000000e+000
      vertex   -1.825000e+002 4.469204e+001 1.000000e+000
      vertex   -1.400000e+002 2.569203e+001 1.000000e+000
    endloop
  endfacet
  facet normal 0.000000e+000 0.000000e+000 9.988946e-001
    outer loop
      vertex   -1.400000e+002 4.669204e+001 1.000000e+000
      vertex   -1.400000e+002 2.569203e+001 1.000000e+000
      vertex   -9.750000e+001 4.469204e+001 1.000000e+000
    endloop
  endfacet
  facet normal 0.000000e+000 0.000000e+000 9.129236e-001
    outer loop
      vertex   -9.750000e+001 4.469204e+001 1.000000e+000
      vertex   -1.400000e+002 2.569203e+001 1.000000e+000
      vertex   -9.750000e+001 2.769203e+001 1.000000e+000
    endloop
  endfacet
  facet normal 0.000000e+000 0.000000e+000 6.730863e-001
    outer loop
      vertex   -9.750000e+001 2.769203e+001 1.000000e+000
      vertex   -1.400000e+002 2.569203e+001 1.000000e+000
      vertex   -9.950000e+001 2.569203e+001 1.000000e+000
    endloop
  endfacet
  facet normal 0.000000e+000 0.000000e+000 6.691320e-001
    outer loop
      vertex   -9.750000e+001 2.769203e+001 1.000000e+000
      vertex   -9.950000e+001 2.569203e+001 1.000000e+000
      vertex   -9.751096e+001 2.748298e+001 1.000000e+000
    endloop
  endfacet
  facet normal 0.000000e+000 0.000000e+000 6.293321e-001
    outer loop
      vertex   -9.751096e+001 2.748298e+001 1.000000e+000
      vertex   -9.950000e+001 2.569203e+001 1.000000e+000
      vertex   -9.754370e+001 2.727621e+001 1.000000e+000
    endloop
  endfacet
  facet normal 0.000000e+000 0.000000e+000 5.877800e-001
    outer loop
      vertex   -9.754370e+001 2.727621e+001 1.000000e+000
      vertex   -9.950000e+001 2.569203e+001 1.000000e+000
      vertex   -9.759789e+001 2.707400e+001 1.000000e+000
    endloop
  endfacet
  facet normal 0.000000e+000 0.000000e+000 5.446182e-001
    outer loop
      vertex   -9.759789e+001 2.707400e+001 1.000000e+000
      vertex   -9.950000e+001 2.569203e+001 1.000000e+000
      vertex   -9.767291e+001 2.687856e+001 1.000000e+000
    endloop
  endfacet
  facet normal 0.000000e+000 0.000000e+000 5.000028e-001
    outer loop
      vertex   -9.767291e+001 2.687856e+001 1.000000e+000
      vertex   -9.950000e+001 2.569203e+001 1.000000e+000
      vertex   -9.776795e+001 2.669203e+001 1.000000e+000
    endloop
  endfacet
  facet normal 0.000000e+000 0.000000e+000 4.539989e-001
    outer loop
      vertex   -9.776795e+001 2.669203e+001 1.000000e+000
      vertex   -9.950000e+001 2.569203e+001 1.000000e+000
      vertex   -9.788197e+001 2.651646e+001 1.000000e+000
    endloop
  endfacet
  facet normal 0.000000e+000 0.000000e+000 4.067373e-001
    outer loop
      vertex   -9.788197e+001 2.651646e+001 1.000000e+000
      vertex   -9.950000e+001 2.569203e+001 1.000000e+000
      vertex   -9.801371e+001 2.635377e+001 1.000000e+000
    endloop
  endfacet
  facet normal 0.000000e+000 0.000000e+000 3.583798e-001
    outer loop
      vertex   -9.801371e+001 2.635377e+001 1.000000e+000
      vertex   -9.950000e+001 2.569203e+001 1.000000e+000
      vertex   -9.816174e+001 2.620574e+001 1.000000e+000
    endloop
  endfacet
  facet normal 0.000000e+000 0.000000e+000 3.090006e-001
    outer loop
      vertex   -9.816174e+001 2.620574e+001 1.000000e+000
      vertex   -9.950000e+001 2.569203e+001 1.000000e+000
      vertex   -9.832443e+001 2.607400e+001 1.000000e+000
    endloop
  endfacet
  facet normal 0.000000e+000 0.000000e+000 2.588211e-001
    outer loop
      vertex   -9.832443e+001 2.607400e+001 1.000000e+000
      vertex   -9.950000e+001 2.569203e+001 1.000000e+000
      vertex   -9.850000e+001 2.595998e+001 1.000000e+000
    endloop
  endfacet
  facet normal 0.000000e+000 0.000000e+000 2.079227e-001
    outer loop
      vertex   -9.850000e+001 2.595998e+001 1.000000e+000
      vertex   -9.950000e+001 2.569203e+001 1.000000e+000
      vertex   -9.868652e+001 2.586494e+001 1.000000e+000
    endloop
  endfacet
  facet normal 0.000000e+000 0.000000e+000 1.564291e-001
    outer loop
      vertex   -9.868652e+001 2.586494e+001 1.000000e+000
      vertex   -9.950000e+001 2.569203e+001 1.000000e+000
      vertex   -9.888197e+001 2.578992e+001 1.000000e+000
    endloop
  endfacet
  facet normal 0.000000e+000 0.000000e+000 1.045293e-001
    outer loop
      vertex   -9.888197e+001 2.578992e+001 1.000000e+000
      vertex   -9.950000e+001 2.569203e+001 1.000000e+000
      vertex   -9.908418e+001 2.573574e+001 1.000000e+000
    endloop
  endfacet
  facet normal 0.000000e+000 0.000000e+000 5.234032e-002
    outer loop
      vertex   -9.908418e+001 2.573574e+001 1.000000e+000
      vertex   -9.950000e+001 2.569203e+001 1.000000e+000
      vertex   -9.929094e+001 2.570299e+001 1.000000e+000
    endloop
  endfacet
  facet normal 0.000000e+000 0.000000e+000 9.129236e-001
    outer loop
      vertex   -1.825000e+002 4.469204e+001 1.000000e+000
      vertex   -1.825000e+002 2.769203e+001 1.000000e+000
      vertex   -1.400000e+002 2.569203e+001 1.000000e+000
    endloop
  endfacet
  facet normal 0.000000e+000 0.000000e+000 4.673797e-002
    outer loop
      vertex   -1.400000e+002 2.569203e+001 1.000000e+000
      vertex   -1.825000e+002 2.769203e+001 1.000000e+000
      vertex   -1.807091e+002 2.570299e+001 1.000000e+000
    endloop
  endfacet
  facet normal 0.000000e+000 0.000000e+000 2.691246e-004
    outer loop
      vertex   -1.400000e+002 2.569203e+001 1.000000e+000
      vertex   -1.807091e+002 2.570299e+001 1.000000e+000
      vertex   -1.805000e+002 2.569203e+001 1.000000e+000
    endloop
  endfacet
  facet normal 0.000000e+000 0.000000e+000 6.293210e-001
    outer loop
      vertex   -1.825000e+002 2.769203e+001 1.000000e+000
      vertex   -1.824890e+002 2.748298e+001 1.000000e+000
      vertex   -1.807091e+002 2.570299e+001 1.000000e+000
    endloop
  endfacet
  facet normal 0.000000e+000 0.000000e+000 5.233674e-002
    outer loop
      vertex   -1.807091e+002 2.570299e+001 1.000000e+000
      vertex   -1.824890e+002 2.748298e+001 1.000000e+000
      vertex   -1.824563e+002 2.727621e+001 1.000000e+000
    endloop
  endfacet
  facet normal 0.000000e+000 0.000000e+000 5.233568e-002
    outer loop
      vertex   -1.807091e+002 2.570299e+001 1.000000e+000
      vertex   -1.824563e+002 2.727621e+001 1.000000e+000
      vertex   -1.824021e+002 2.707400e+001 1.000000e+000
    endloop
  endfacet
  facet normal 0.000000e+000 0.000000e+000 4.999775e-001
    outer loop
      vertex   -1.824021e+002 2.707400e+001 1.000000e+000
      vertex   -1.823271e+002 2.687856e+001 1.000000e+000
      vertex   -1.807091e+002 2.570299e+001 1.000000e+000
    endloop
  endfacet
  facet normal 0.000000e+000 0.000000e+000 5.233862e-002
    outer loop
      vertex   -1.807091e+002 2.570299e+001 1.000000e+000
      vertex   -1.823271e+002 2.687856e+001 1.000000e+000
      vertex   -1.822321e+002 2.669203e+001 1.000000e+000
    endloop
  endfacet
  facet normal 0.000000e+000 0.000000e+000 5.233170e-002
    outer loop
      vertex   -1.807091e+002 2.570299e+001 1.000000e+000
      vertex   -1.822321e+002 2.669203e+001 1.000000e+000
      vertex   -1.821180e+002 2.651646e+001 1.000000e+000
    endloop
  endfacet
  facet normal 0.000000e+000 0.000000e+000 3.583651e-001
    outer loop
      vertex   -1.821180e+002 2.651646e+001 1.000000e+000
      vertex   -1.819863e+002 2.635377e+001 1.000000e+000
      vertex   -1.807091e+002 2.570299e+001 1.000000e+000
    endloop
  endfacet
  facet normal 0.000000e+000 0.000000e+000 5.233733e-002
    outer loop
      vertex   -1.807091e+002 2.570299e+001 1.000000e+000
      vertex   -1.819863e+002 2.635377e+001 1.000000e+000
      vertex   -1.818383e+002 2.620574e+001 1.000000e+000
    endloop
  endfacet
  facet normal 0.000000e+000 0.000000e+000 5.233636e-002
    outer loop
      vertex   -1.807091e+002 2.570299e+001 1.000000e+000
      vertex   -1.818383e+002 2.620574e+001 1.000000e+000
      vertex   -1.816756e+002 2.607400e+001 1.000000e+000
    endloop
  endfacet
  facet normal 0.000000e+000 0.000000e+000 2.079119e-001
    outer loop
      vertex   -1.816756e+002 2.607400e+001 1.000000e+000
      vertex   -1.815000e+002 2.595998e+001 1.000000e+000
      vertex   -1.807091e+002 2.570299e+001 1.000000e+000
    endloop
  endfacet
  facet normal 0.000000e+000 0.000000e+000 1.564272e-001
    outer loop
      vertex   -1.807091e+002 2.570299e+001 1.000000e+000
      vertex   -1.815000e+002 2.595998e+001 1.000000e+000
      vertex   -1.809158e+002 2.573574e+001 1.000000e+000
    endloop
  endfacet
  facet normal 0.000000e+000 0.000000e+000 5.234151e-002
    outer loop
      vertex   -1.809158e+002 2.573574e+001 1.000000e+000
      vertex   -1.815000e+002 2.595998e+001 1.000000e+000
      vertex   -1.813135e+002 2.586494e+001 1.000000e+000
    endloop
  endfacet
  facet normal 0.000000e+000 0.000000e+000 5.232704e-002
    outer loop
      vertex   -1.809158e+002 2.573574e+001 1.000000e+000
      vertex   -1.813135e+002 2.586494e+001 1.000000e+000
      vertex   -1.811180e+002 2.578992e+001 1.000000e+000
    endloop
  endfacet
  facet normal -0.000000e+000 0.000000e+000 4.700680e-002
    outer loop
      vertex   -1.400000e+002 4.669204e+001 1.000000e+000
      vertex   -9.750000e+001 4.469204e+001 1.000000e+000
      vertex   -9.950000e+001 4.669204e+001 1.000000e+000
    endloop
  endfacet
  facet normal 0.000000e+000 0.000000e+000 5.233604e-002
    outer loop
      vertex   -9.950000e+001 4.669204e+001 1.000000e+000
      vertex   -9.750000e+001 4.469204e+001 1.000000e+000
      vertex   -9.751096e+001 4.490109e+001 1.000000e+000
    endloop
  endfacet
  facet normal 0.000000e+000 0.000000e+000 5.233607e-002
    outer loop
      vertex   -9.950000e+001 4.669204e+001 1.000000e+000
      vertex   -9.751096e+001 4.490109e+001 1.000000e+000
      vertex   -9.754370e+001 4.510786e+001 1.000000e+000
    endloop
  endfacet
  facet normal 0.000000e+000 0.000000e+000 5.877776e-001
    outer loop
      vertex   -9.754370e+001 4.510786e+001 1.000000e+000
      vertex   -9.759789e+001 4.531007e+001 1.000000e+000
      vertex   -9.950000e+001 4.669204e+001 1.000000e+000
    endloop
  endfacet
  facet normal 0.000000e+000 0.000000e+000 5.233560e-002
    outer loop
      vertex   -9.950000e+001 4.669204e+001 1.000000e+000
      vertex   -9.759789e+001 4.531007e+001 1.000000e+000
      vertex   -9.767291e+001 4.550551e+001 1.000000e+000
    endloop
  endfacet
  facet normal 0.000000e+000 0.000000e+000 5.233635e-002
    outer loop
      vertex   -9.950000e+001 4.669204e+001 1.000000e+000
      vertex   -9.767291e+001 4.550551e+001 1.000000e+000
      vertex   -9.776795e+001 4.569204e+001 1.000000e+000
    endloop
  endfacet
  facet normal 0.000000e+000 0.000000e+000 4.539945e-001
    outer loop
      vertex   -9.776795e+001 4.569204e+001 1.000000e+000
      vertex   -9.788197e+001 4.586760e+001 1.000000e+000
      vertex   -9.950000e+001 4.669204e+001 1.000000e+000
    endloop
  endfacet
  facet normal 0.000000e+000 0.000000e+000 5.233704e-002
    outer loop
      vertex   -9.950000e+001 4.669204e+001 1.000000e+000
      vertex   -9.788197e+001 4.586760e+001 1.000000e+000
      vertex   -9.801371e+001 4.603030e+001 1.000000e+000
    endloop
  endfacet
  facet normal 0.000000e+000 0.000000e+000 5.233473e-002
    outer loop
      vertex   -9.950000e+001 4.669204e+001 1.000000e+000
      vertex   -9.801371e+001 4.603030e+001 1.000000e+000
      vertex   -9.816174e+001 4.617832e+001 1.000000e+000
    endloop
  endfacet
  facet normal 0.000000e+000 0.000000e+000 3.089983e-001
    outer loop
      vertex   -9.816174e+001 4.617832e+001 1.000000e+000
      vertex   -9.832443e+001 4.631007e+001 1.000000e+000
      vertex   -9.950000e+001 4.669204e+001 1.000000e+000
    endloop
  endfacet
  facet normal 0.000000e+000 0.000000e+000 5.233673e-002
    outer loop
      vertex   -9.950000e+001 4.669204e+001 1.000000e+000
      vertex   -9.832443e+001 4.631007e+001 1.000000e+000
      vertex   -9.850000e+001 4.642408e+001 1.000000e+000
    endloop
  endfacet
  facet normal 0.000000e+000 0.000000e+000 5.233523e-002
    outer loop
      vertex   -9.950000e+001 4.669204e+001 1.000000e+000
      vertex   -9.850000e+001 4.642408e+001 1.000000e+000
      vertex   -9.868652e+001 4.651912e+001 1.000000e+000
    endloop
  endfacet
  facet normal 0.000000e+000 0.000000e+000 1.564330e-001
    outer loop
      vertex   -9.868652e+001 4.651912e+001 1.000000e+000
      vertex   -9.888197e+001 4.659415e+001 1.000000e+000
      vertex   -9.950000e+001 4.669204e+001 1.000000e+000
    endloop
  endfacet
  facet normal 0.000000e+000 0.000000e+000 5.233891e-002
    outer loop
      vertex   -9.950000e+001 4.669204e+001 1.000000e+000
      vertex   -9.888197e+001 4.659415e+001 1.000000e+000
      vertex   -9.908418e+001 4.664833e+001 1.000000e+000
    endloop
  endfacet
  facet normal 0.000000e+000 0.000000e+000 5.232069e-002
    outer loop
      vertex   -9.950000e+001 4.669204e+001 1.000000e+000
      vertex   -9.908418e+001 4.664833e+001 1.000000e+000
      vertex   -9.929094e+001 4.668108e+001 1.000000e+000
    endloop
  endfacet
  facet normal -9.986296e-001 -5.233407e-002 0.000000e+000
    outer loop
      vertex   -1.825000e+002 2.769203e+001 0.000000e+000
      vertex   -1.824890e+002 2.748298e+001 0.000000e+000
      vertex   -1.825000e+002 2.769203e+001 1.000000e+000
    endloop
  endfacet
  facet normal -9.774412e-001 -5.122368e-002 -1.734723e-018
    outer loop
      vertex   -1.825000e+002 2.769203e+001 1.000000e+000
      vertex   -1.824890e+002 2.748298e+001 0.000000e+000
      vertex   -1.824890e+002 2.748298e+001 1.000000e+000
    endloop
  endfacet
  facet normal -2.023791e-001 -3.205059e-002 -0.000000e+000
    outer loop
      vertex   -1.824890e+002 2.748298e+001 1.000000e+000
      vertex   -1.824890e+002 2.748298e+001 0.000000e+000
      vertex   -1.824563e+002 2.727621e+001 0.000000e+000
    endloop
  endfacet
  facet normal -9.667345e-001 -1.531008e-001 -6.938894e-018
    outer loop
      vertex   -1.824890e+002 2.748298e+001 1.000000e+000
      vertex   -1.824563e+002 2.727621e+001 0.000000e+000
      vertex   -1.824563e+002 2.727621e+001 1.000000e+000
    endloop
  endfacet
  facet normal -1.979209e-001 -5.303430e-002 -0.000000e+000
    outer loop
      vertex   -1.824563e+002 2.727621e+001 1.000000e+000
      vertex   -1.824563e+002 2.727621e+001 0.000000e+000
      vertex   -1.824021e+002 2.707400e+001 0.000000e+000
    endloop
  endfacet
  facet normal -9.454292e-001 -2.533344e-001 0.000000e+000
    outer loop
      vertex   -1.824563e+002 2.727621e+001 1.000000e+000
      vertex   -1.824021e+002 2.707400e+001 0.000000e+000
      vertex   -1.824021e+002 2.707400e+001 1.000000e+000
    endloop
  endfacet
  facet normal -1.912916e-001 -7.343555e-002 -0.000000e+000
    outer loop
      vertex   -1.824021e+002 2.707400e+001 1.000000e+000
      vertex   -1.824021e+002 2.707400e+001 0.000000e+000
      vertex   -1.823271e+002 2.687856e+001 0.000000e+000
    endloop
  endfacet
  facet normal -9.137630e-001 -3.507874e-001 0.000000e+000
    outer loop
      vertex   -1.824021e+002 2.707400e+001 1.000000e+000
      vertex   -1.823271e+002 2.687856e+001 0.000000e+000
      vertex   -1.823271e+002 2.687856e+001 1.000000e+000
    endloop
  endfacet
  facet normal -1.825697e-001 -9.301546e-002 -0.000000e+000
    outer loop
      vertex   -1.823271e+002 2.687856e+001 1.000000e+000
      vertex   -1.823271e+002 2.687856e+001 0.000000e+000
      vertex   -1.822321e+002 2.669203e+001 0.000000e+000
    endloop
  endfacet
  facet normal -8.721185e-001 -4.443262e-001 -1.387779e-017
    outer loop
      vertex   -1.823271e+002 2.687856e+001 1.000000e+000
      vertex   -1.822321e+002 2.669203e+001 0.000000e+000
      vertex   -1.822321e+002 2.669203e+001 1.000000e+000
    endloop
  endfacet
  facet normal -1.718442e-001 -1.116094e-001 -0.000000e+000
    outer loop
      vertex   -1.822321e+002 2.669203e+001 1.000000e+000
      vertex   -1.822321e+002 2.669203e+001 0.000000e+000
      vertex   -1.821180e+002 2.651646e+001 0.000000e+000
    endloop
  endfacet
  facet normal -8.208479e-001 -5.331244e-001 1.387779e-017
    outer loop
      vertex   -1.822321e+002 2.669203e+001 1.000000e+000
      vertex   -1.821180e+002 2.651646e+001 0.000000e+000
      vertex   -1.821180e+002 2.651646e+001 1.000000e+000
    endloop
  endfacet
  facet normal -7.771466e-001 -6.293195e-001 -0.000000e+000
    outer loop
      vertex   -1.821180e+002 2.651646e+001 1.000000e+000
      vertex   -1.821180e+002 2.651646e+001 0.000000e+000
      vertex   -1.819863e+002 2.635377e+001 1.000000e+000
    endloop
  endfacet
  facet normal -1.592392e-001 -1.289491e-001 -0.000000e+000
    outer loop
      vertex   -1.819863e+002 2.635377e+001 1.000000e+000
      vertex   -1.821180e+002 2.651646e+001 0.000000e+000
      vertex   -1.819863e+002 2.635377e+001 0.000000e+000
    endloop
  endfacet
  facet normal -7.071159e-001 -7.070976e-001 -0.000000e+000
    outer loop
      vertex   -1.819863e+002 2.635377e+001 1.000000e+000
      vertex   -1.819863e+002 2.635377e+001 0.000000e+000
      vertex   -1.818383e+002 2.620574e+001 1.000000e+000
    endloop
  endfacet
  facet normal -1.448886e-001 -1.448848e-001 -0.000000e+000
    outer loop
      vertex   -1.818383e+002 2.620574e+001 1.000000e+000
      vertex   -1.819863e+002 2.635377e+001 0.000000e+000
      vertex   -1.818383e+002 2.620574e+001 0.000000e+000
    endloop
  endfacet
  facet normal -6.293240e-001 -7.771430e-001 -0.000000e+000
    outer loop
      vertex   -1.818383e+002 2.620574e+001 1.000000e+000
      vertex   -1.818383e+002 2.620574e+001 0.000000e+000
      vertex   -1.816756e+002 2.607400e+001 1.000000e+000
    endloop
  endfacet
  facet normal -1.289491e-001 -1.592374e-001 -0.000000e+000
    outer loop
      vertex   -1.816756e+002 2.607400e+001 1.000000e+000
      vertex   -1.818383e+002 2.620574e+001 0.000000e+000
      vertex   -1.816756e+002 2.607400e+001 0.000000e+000
    endloop
  endfacet
  facet normal -1.115965e-001 -1.718426e-001 -0.000000e+000
    outer loop
      vertex   -1.816756e+002 2.607400e+001 1.000000e+000
      vertex   -1.816756e+002 2.607400e+001 0.000000e+000
      vertex   -1.815000e+002 2.595998e+001 0.000000e+000
    endloop
  endfacet
  facet normal -5.330855e-001 -8.208752e-001 1.387779e-017
    outer loop
      vertex   -1.816756e+002 2.607400e+001 1.000000e+000
      vertex   -1.815000e+002 2.595998e+001 0.000000e+000
      vertex   -1.815000e+002 2.595998e+001 1.000000e+000
    endloop
  endfacet
  facet normal -9.302478e-002 -1.825660e-001 -0.000000e+000
    outer loop
      vertex   -1.815000e+002 2.595998e+001 1.000000e+000
      vertex   -1.815000e+002 2.595998e+001 0.000000e+000
      vertex   -1.813135e+002 2.586494e+001 0.000000e+000
    endloop
  endfacet
  facet normal -4.443687e-001 -8.720967e-001 1.387779e-017
    outer loop
      vertex   -1.815000e+002 2.595998e+001 1.000000e+000
      vertex   -1.813135e+002 2.586494e+001 0.000000e+000
      vertex   -1.813135e+002 2.586494e+001 1.000000e+000
    endloop
  endfacet
  facet normal -7.342982e-002 -1.913025e-001 -0.000000e+000
    outer loop
      vertex   -1.813135e+002 2.586494e+001 1.000000e+000
      vertex   -1.813135e+002 2.586494e+001 0.000000e+000
      vertex   -1.811180e+002 2.578992e+001 0.000000e+000
    endloop
  endfacet
  facet normal -3.507456e-001 -9.137773e-001 0.000000e+000
    outer loop
      vertex   -1.813135e+002 2.586494e+001 1.000000e+000
      vertex   -1.811180e+002 2.578992e+001 0.000000e+000
      vertex   -1.811180e+002 2.578992e+001 1.000000e+000
    endloop
  endfacet
  facet normal -5.303245e-002 -1.979191e-001 -0.000000e+000
    outer loop
      vertex   -1.811180e+002 2.578992e+001 1.000000e+000
      vertex   -1.811180e+002 2.578992e+001 0.000000e+000
      vertex   -1.809158e+002 2.573574e+001 0.000000e+000
    endloop
  endfacet
  facet normal -2.533284e-001 -9.454313e-001 0.000000e+000
    outer loop
      vertex   -1.811180e+002 2.578992e+001 1.000000e+000
      vertex   -1.809158e+002 2.573574e+001 0.000000e+000
      vertex   -1.809158e+002 2.573574e+001 1.000000e+000
    endloop
  endfacet
  facet normal -3.205438e-002 -2.023701e-001 -0.000000e+000
    outer loop
      vertex   -1.809158e+002 2.573574e+001 1.000000e+000
      vertex   -1.809158e+002 2.573574e+001 0.000000e+000
      vertex   -1.807091e+002 2.570299e+001 0.000000e+000
    endloop
  endfacet
  facet normal -1.531254e-001 -9.667324e-001 -6.938894e-018
    outer loop
      vertex   -1.809158e+002 2.573574e+001 1.000000e+000
      vertex   -1.807091e+002 2.570299e+001 0.000000e+000
      vertex   -1.807091e+002 2.570299e+001 1.000000e+000
    endloop
  endfacet
  facet normal -1.072335e-002 -2.046248e-001 -0.000000e+000
    outer loop
      vertex   -1.807091e+002 2.570299e+001 1.000000e+000
      vertex   -1.807091e+002 2.570299e+001 0.000000e+000
      vertex   -1.805000e+002 2.569203e+001 0.000000e+000
    endloop
  endfacet
  facet normal -5.122270e-002 -9.774405e-001 0.000000e+000
    outer loop
      vertex   -1.807091e+002 2.570299e+001 1.000000e+000
      vertex   -1.805000e+002 2.569203e+001 0.000000e+000
      vertex   -1.805000e+002 2.569203e+001 1.000000e+000
    endloop
  endfacet
  facet normal 0.000000e+000 -1.000000e+000 0.000000e+000
    outer loop
      vertex   -1.805000e+002 2.569203e+001 0.000000e+000
      vertex   -1.400000e+002 2.569203e+001 0.000000e+000
      vertex   -1.805000e+002 2.569203e+001 1.000000e+000
    endloop
  endfacet
  facet normal 0.000000e+000 -2.468383e-002 0.000000e+000
    outer loop
      vertex   -1.805000e+002 2.569203e+001 1.000000e+000
      vertex   -1.400000e+002 2.569203e+001 0.000000e+000
      vertex   -1.400000e+002 2.569203e+001 1.000000e+000
    endloop
  endfacet
  facet normal 0.000000e+000 -9.996953e-001 0.000000e+000
    outer loop
      vertex   -1.400000e+002 2.569203e+001 1.000000e+000
      vertex   -1.400000e+002 2.569203e+001 0.000000e+000
      vertex   -9.950000e+001 2.569203e+001 0.000000e+000
    endloop
  endfacet
  facet normal 0.000000e+000 -2.468383e-002 0.000000e+000
    outer loop
      vertex   -1.400000e+002 2.569203e+001 1.000000e+000
      vertex   -9.950000e+001 2.569203e+001 0.000000e+000
      vertex   -9.950000e+001 2.569203e+001 1.000000e+000
    endloop
  endfacet
  facet normal 5.233312e-002 -9.986297e-001 0.000000e+000
    outer loop
      vertex   -9.950000e+001 2.569203e+001 0.000000e+000
      vertex   -9.929094e+001 2.570299e+001 0.000000e+000
      vertex   -9.950000e+001 2.569203e+001 1.000000e+000
    endloop
  endfacet
  facet normal 5.122270e-002 -9.774405e-001 0.000000e+000
    outer loop
      vertex   -9.950000e+001 2.569203e+001 1.000000e+000
      vertex   -9.929094e+001 2.570299e+001 0.000000e+000
      vertex   -9.929094e+001 2.570299e+001 1.000000e+000
    endloop
  endfacet
  facet normal 3.205433e-002 -2.023773e-001 0.000000e+000
    outer loop
      vertex   -9.929094e+001 2.570299e+001 1.000000e+000
      vertex   -9.929094e+001 2.570299e+001 0.000000e+000
      vertex   -9.908418e+001 2.573574e+001 0.000000e+000
    endloop
  endfacet
  facet normal 1.531197e-001 -9.667318e-001 -6.938894e-018
    outer loop
      vertex   -9.929094e+001 2.570299e+001 1.000000e+000
      vertex   -9.908418e+001 2.573574e+001 0.000000e+000
      vertex   -9.908418e+001 2.573574e+001 1.000000e+000
    endloop
  endfacet
  facet normal 5.303245e-002 -1.979191e-001 0.000000e+000
    outer loop
      vertex   -9.908418e+001 2.573574e+001 1.000000e+000
      vertex   -9.908418e+001 2.573574e+001 0.000000e+000
      vertex   -9.888197e+001 2.578992e+001 0.000000e+000
    endloop
  endfacet
  facet normal 2.533284e-001 -9.454313e-001 0.000000e+000
    outer loop
      vertex   -9.908418e+001 2.573574e+001 1.000000e+000
      vertex   -9.888197e+001 2.578992e+001 0.000000e+000
      vertex   -9.888197e+001 2.578992e+001 1.000000e+000
    endloop
  endfacet
  facet normal 7.342993e-002 -1.912953e-001 0.000000e+000
    outer loop
      vertex   -9.888197e+001 2.578992e+001 1.000000e+000
      vertex   -9.888197e+001 2.578992e+001 0.000000e+000
      vertex   -9.868652e+001 2.586494e+001 0.000000e+000
    endloop
  endfacet
  facet normal 3.507580e-001 -9.137740e-001 0.000000e+000
    outer loop
      vertex   -9.888197e+001 2.578992e+001 1.000000e+000
      vertex   -9.868652e+001 2.586494e+001 0.000000e+000
      vertex   -9.868652e+001 2.586494e+001 1.000000e+000
    endloop
  endfacet
  facet normal 9.302478e-002 -1.825660e-001 0.000000e+000
    outer loop
      vertex   -9.868652e+001 2.586494e+001 1.000000e+000
      vertex   -9.868652e+001 2.586494e+001 0.000000e+000
      vertex   -9.850000e+001 2.595998e+001 0.000000e+000
    endloop
  endfacet
  facet normal 4.443687e-001 -8.720967e-001 -1.387779e-017
    outer loop
      vertex   -9.868652e+001 2.586494e+001 1.000000e+000
      vertex   -9.850000e+001 2.595998e+001 0.000000e+000
      vertex   -9.850000e+001 2.595998e+001 1.000000e+000
    endloop
  endfacet
  facet normal 1.115965e-001 -1.718426e-001 0.000000e+000
    outer loop
      vertex   -9.850000e+001 2.595998e+001 1.000000e+000
      vertex   -9.850000e+001 2.595998e+001 0.000000e+000
      vertex   -9.832443e+001 2.607400e+001 0.000000e+000
    endloop
  endfacet
  facet normal 5.330855e-001 -8.208752e-001 -1.387779e-017
    outer loop
      vertex   -9.850000e+001 2.595998e+001 1.000000e+000
      vertex   -9.832443e+001 2.607400e+001 0.000000e+000
      vertex   -9.832443e+001 2.607400e+001 1.000000e+000
    endloop
  endfacet
  facet normal 6.293062e-001 -7.771574e-001 0.000000e+000
    outer loop
      vertex   -9.832443e+001 2.607400e+001 1.000000e+000
      vertex   -9.832443e+001 2.607400e+001 0.000000e+000
      vertex   -9.816174e+001 2.620574e+001 1.000000e+000
    endloop
  endfacet
  facet normal 1.289490e-001 -1.592447e-001 0.000000e+000
    outer loop
      vertex   -9.816174e+001 2.620574e+001 1.000000e+000
      vertex   -9.832443e+001 2.607400e+001 0.000000e+000
      vertex   -9.816174e+001 2.620574e+001 0.000000e+000
    endloop
  endfacet
  facet normal 7.071159e-001 -7.070976e-001 0.000000e+000
    outer loop
      vertex   -9.816174e+001 2.620574e+001 1.000000e+000
      vertex   -9.816174e+001 2.620574e+001 0.000000e+000
      vertex   -9.801371e+001 2.635377e+001 1.000000e+000
    endloop
  endfacet
  facet normal 1.448886e-001 -1.448848e-001 0.000000e+000
    outer loop
      vertex   -9.801371e+001 2.635377e+001 1.000000e+000
      vertex   -9.816174e+001 2.620574e+001 0.000000e+000
      vertex   -9.801371e+001 2.635377e+001 0.000000e+000
    endloop
  endfacet
  facet normal 7.771466e-001 -6.293195e-001 0.000000e+000
    outer loop
      vertex   -9.801371e+001 2.635377e+001 1.000000e+000
      vertex   -9.801371e+001 2.635377e+001 0.000000e+000
      vertex   -9.788197e+001 2.651646e+001 1.000000e+000
    endloop
  endfacet
  facet normal 1.592392e-001 -1.289491e-001 0.000000e+000
    outer loop
      vertex   -9.788197e+001 2.651646e+001 1.000000e+000
      vertex   -9.801371e+001 2.635377e+001 0.000000e+000
      vertex   -9.788197e+001 2.651646e+001 0.000000e+000
    endloop
  endfacet
  facet normal 1.718445e-001 -1.115946e-001 0.000000e+000
    outer loop
      vertex   -9.788197e+001 2.651646e+001 1.000000e+000
      vertex   -9.788197e+001 2.651646e+001 0.000000e+000
      vertex   -9.776795e+001 2.669203e+001 0.000000e+000
    endloop
  endfacet
  facet normal 8.208818e-001 -5.330752e-001 -1.387779e-017
    outer loop
      vertex   -9.788197e+001 2.651646e+001 1.000000e+000
      vertex   -9.776795e+001 2.669203e+001 0.000000e+000
      vertex   -9.776795e+001 2.669203e+001 1.000000e+000
    endloop
  endfacet
  facet normal 1.825696e-001 -9.302287e-002 0.000000e+000
    outer loop
      vertex   -9.776795e+001 2.669203e+001 1.000000e+000
      vertex   -9.776795e+001 2.669203e+001 0.000000e+000
      vertex   -9.767291e+001 2.687856e+001 0.000000e+000
    endloop
  endfacet
  facet normal 8.721035e-001 -4.443542e-001 0.000000e+000
    outer loop
      vertex   -9.776795e+001 2.669203e+001 1.000000e+000
      vertex   -9.767291e+001 2.687856e+001 0.000000e+000
      vertex   -9.767291e+001 2.687856e+001 1.000000e+000
    endloop
  endfacet
  facet normal 1.912916e-001 -7.343555e-002 0.000000e+000
    outer loop
      vertex   -9.767291e+001 2.687856e+001 1.000000e+000
      vertex   -9.767291e+001 2.687856e+001 0.000000e+000
      vertex   -9.759789e+001 2.707400e+001 0.000000e+000
    endloop
  endfacet
  facet normal 9.137630e-001 -3.507874e-001 0.000000e+000
    outer loop
      vertex   -9.767291e+001 2.687856e+001 1.000000e+000
      vertex   -9.759789e+001 2.707400e+001 0.000000e+000
      vertex   -9.759789e+001 2.707400e+001 1.000000e+000
    endloop
  endfacet
  facet normal 1.979209e-001 -5.303430e-002 0.000000e+000
    outer loop
      vertex   -9.759789e+001 2.707400e+001 1.000000e+000
      vertex   -9.759789e+001 2.707400e+001 0.000000e+000
      vertex   -9.754370e+001 2.727621e+001 0.000000e+000
    endloop
  endfacet
  facet normal 9.454292e-001 -2.533344e-001 0.000000e+000
    outer loop
      vertex   -9.759789e+001 2.707400e+001 1.000000e+000
      vertex   -9.754370e+001 2.727621e+001 0.000000e+000
      vertex   -9.754370e+001 2.727621e+001 1.000000e+000
    endloop
  endfacet
  facet normal 2.023791e-001 -3.205059e-002 0.000000e+000
    outer loop
      vertex   -9.754370e+001 2.727621e+001 1.000000e+000
      vertex   -9.754370e+001 2.727621e+001 0.000000e+000
      vertex   -9.751096e+001 2.748298e+001 0.000000e+000
    endloop
  endfacet
  facet normal 9.667345e-001 -1.531008e-001 6.938894e-018
    outer loop
      vertex   -9.754370e+001 2.727621e+001 1.000000e+000
      vertex   -9.751096e+001 2.748298e+001 0.000000e+000
      vertex   -9.751096e+001 2.748298e+001 1.000000e+000
    endloop
  endfacet
  facet normal 2.046212e-001 -1.072336e-002 0.000000e+000
    outer loop
      vertex   -9.751096e+001 2.748298e+001 1.000000e+000
      vertex   -9.751096e+001 2.748298e+001 0.000000e+000
      vertex   -9.750000e+001 2.769203e+001 0.000000e+000
    endloop
  endfacet
  facet normal 9.774412e-001 -5.122368e-002 1.734723e-018
    outer loop
      vertex   -9.751096e+001 2.748298e+001 1.000000e+000
      vertex   -9.750000e+001 2.769203e+001 0.000000e+000
      vertex   -9.750000e+001 2.769203e+001 1.000000e+000
    endloop
  endfacet
  facet normal 9.986296e-001 5.233407e-002 -0.000000e+000
    outer loop
      vertex   -9.750000e+001 4.469204e+001 0.000000e+000
      vertex   -9.751096e+001 4.490109e+001 0.000000e+000
      vertex   -9.750000e+001 4.469204e+001 1.000000e+000
    endloop
  endfacet
  facet normal 9.774412e-001 5.122368e-002 -1.734723e-018
    outer loop
      vertex   -9.750000e+001 4.469204e+001 1.000000e+000
      vertex   -9.751096e+001 4.490109e+001 0.000000e+000
      vertex   -9.751096e+001 4.490109e+001 1.000000e+000
    endloop
  endfacet
  facet normal 2.023773e-001 3.205060e-002 0.000000e+000
    outer loop
      vertex   -9.751096e+001 4.490109e+001 1.000000e+000
      vertex   -9.751096e+001 4.490109e+001 0.000000e+000
      vertex   -9.754370e+001 4.510786e+001 0.000000e+000
    endloop
  endfacet
  facet normal 9.667346e-001 1.531023e-001 6.938894e-018
    outer loop
      vertex   -9.751096e+001 4.490109e+001 1.000000e+000
      vertex   -9.754370e+001 4.510786e+001 0.000000e+000
      vertex   -9.754370e+001 4.510786e+001 1.000000e+000
    endloop
  endfacet
  facet normal 1.979191e-001 5.303432e-002 0.000000e+000
    outer loop
      vertex   -9.754370e+001 4.510786e+001 1.000000e+000
      vertex   -9.754370e+001 4.510786e+001 0.000000e+000
      vertex   -9.759789e+001 4.531007e+001 0.000000e+000
    endloop
  endfacet
  facet normal 9.454290e-001 2.533367e-001 0.000000e+000
    outer loop
      vertex   -9.754370e+001 4.510786e+001 1.000000e+000
      vertex   -9.759789e+001 4.531007e+001 0.000000e+000
      vertex   -9.759789e+001 4.531007e+001 1.000000e+000
    endloop
  endfacet
  facet normal 1.912952e-001 7.343550e-002 0.000000e+000
    outer loop
      vertex   -9.759789e+001 4.531007e+001 1.000000e+000
      vertex   -9.759789e+001 4.531007e+001 0.000000e+000
      vertex   -9.767291e+001 4.550551e+001 0.000000e+000
    endloop
  endfacet
  facet normal 9.137647e-001 3.507812e-001 0.000000e+000
    outer loop
      vertex   -9.759789e+001 4.531007e+001 1.000000e+000
      vertex   -9.767291e+001 4.550551e+001 0.000000e+000
      vertex   -9.767291e+001 4.550551e+001 1.000000e+000
    endloop
  endfacet
  facet normal 1.825696e-001 9.302287e-002 0.000000e+000
    outer loop
      vertex   -9.767291e+001 4.550551e+001 1.000000e+000
      vertex   -9.767291e+001 4.550551e+001 0.000000e+000
      vertex   -9.776795e+001 4.569204e+001 0.000000e+000
    endloop
  endfacet
  facet normal 8.721035e-001 4.443542e-001 0.000000e+000
    outer loop
      vertex   -9.767291e+001 4.550551e+001 1.000000e+000
      vertex   -9.776795e+001 4.569204e+001 0.000000e+000
      vertex   -9.776795e+001 4.569204e+001 1.000000e+000
    endloop
  endfacet
  facet normal 1.718427e-001 1.115947e-001 0.000000e+000
    outer loop
      vertex   -9.776795e+001 4.569204e+001 1.000000e+000
      vertex   -9.776795e+001 4.569204e+001 0.000000e+000
      vertex   -9.788197e+001 4.586760e+001 0.000000e+000
    endloop
  endfacet
  facet normal 8.208795e-001 5.330794e-001 0.000000e+000
    outer loop
      vertex   -9.776795e+001 4.569204e+001 1.000000e+000
      vertex   -9.788197e+001 4.586760e+001 0.000000e+000
      vertex   -9.788197e+001 4.586760e+001 1.000000e+000
    endloop
  endfacet
  facet normal 7.771502e-001 6.293151e-001 0.000000e+000
    outer loop
      vertex   -9.788197e+001 4.586760e+001 1.000000e+000
      vertex   -9.788197e+001 4.586760e+001 0.000000e+000
      vertex   -9.801371e+001 4.603030e+001 1.000000e+000
    endloop
  endfacet
  facet normal 1.592410e-001 1.289490e-001 0.000000e+000
    outer loop
      vertex   -9.801371e+001 4.603030e+001 1.000000e+000
      vertex   -9.788197e+001 4.586760e+001 0.000000e+000
      vertex   -9.801371e+001 4.603030e+001 0.000000e+000
    endloop
  endfacet
  facet normal 7.071068e-001 7.071068e-001 0.000000e+000
    outer loop
      vertex   -9.801371e+001 4.603030e+001 1.000000e+000
      vertex   -9.801371e+001 4.603030e+001 0.000000e+000
      vertex   -9.816174e+001 4.617832e+001 1.000000e+000
    endloop
  endfacet
  facet normal 1.448849e-001 1.448849e-001 0.000000e+000
    outer loop
      vertex   -9.816174e+001 4.617832e+001 1.000000e+000
      vertex   -9.801371e+001 4.603030e+001 0.000000e+000
      vertex   -9.816174e+001 4.617832e+001 0.000000e+000
    endloop
  endfacet
  facet normal 6.293062e-001 7.771574e-001 0.000000e+000
    outer loop
      vertex   -9.816174e+001 4.617832e+001 1.000000e+000
      vertex   -9.816174e+001 4.617832e+001 0.000000e+000
      vertex   -9.832443e+001 4.631007e+001 1.000000e+000
    endloop
  endfacet
  facet normal 1.289490e-001 1.592447e-001 0.000000e+000
    outer loop
      vertex   -9.832443e+001 4.631007e+001 1.000000e+000
      vertex   -9.816174e+001 4.617832e+001 0.000000e+000
      vertex   -9.832443e+001 4.631007e+001 0.000000e+000
    endloop
  endfacet
  facet normal 1.115984e-001 1.718426e-001 0.000000e+000
    outer loop
      vertex   -9.832443e+001 4.631007e+001 1.000000e+000
      vertex   -9.832443e+001 4.631007e+001 0.000000e+000
      vertex   -9.850000e+001 4.642408e+001 0.000000e+000
    endloop
  endfacet
  facet normal 5.330917e-001 8.208710e-001 0.000000e+000
    outer loop
      vertex   -9.832443e+001 4.631007e+001 1.000000e+000
      vertex   -9.850000e+001 4.642408e+001 0.000000e+000
      vertex   -9.850000e+001 4.642408e+001 1.000000e+000
    endloop
  endfacet
  facet normal 9.302293e-002 1.825660e-001 0.000000e+000
    outer loop
      vertex   -9.850000e+001 4.642408e+001 1.000000e+000
      vertex   -9.850000e+001 4.642408e+001 0.000000e+000
      vertex   -9.868652e+001 4.651912e+001 0.000000e+000
    endloop
  endfacet
  facet normal 4.443617e-001 8.721004e-001 1.387779e-017
    outer loop
      vertex   -9.850000e+001 4.642408e+001 1.000000e+000
      vertex   -9.868652e+001 4.651912e+001 0.000000e+000
      vertex   -9.868652e+001 4.651912e+001 1.000000e+000
    endloop
  endfacet
  facet normal 7.343179e-002 1.912953e-001 0.000000e+000
    outer loop
      vertex   -9.868652e+001 4.651912e+001 1.000000e+000
      vertex   -9.868652e+001 4.651912e+001 0.000000e+000
      vertex   -9.888197e+001 4.659415e+001 0.000000e+000
    endloop
  endfacet
  facet normal 3.507658e-001 9.137709e-001 0.000000e+000
    outer loop
      vertex   -9.868652e+001 4.651912e+001 1.000000e+000
      vertex   -9.888197e+001 4.659415e+001 0.000000e+000
      vertex   -9.888197e+001 4.659415e+001 1.000000e+000
    endloop
  endfacet
  facet normal 5.303432e-002 1.979191e-001 0.000000e+000
    outer loop
      vertex   -9.888197e+001 4.659415e+001 1.000000e+000
      vertex   -9.888197e+001 4.659415e+001 0.000000e+000
      vertex   -9.908418e+001 4.664833e+001 0.000000e+000
    endloop
  endfacet
  facet normal 2.533367e-001 9.454290e-001 0.000000e+000
    outer loop
      vertex   -9.888197e+001 4.659415e+001 1.000000e+000
      vertex   -9.908418e+001 4.664833e+001 0.000000e+000
      vertex   -9.908418e+001 4.664833e+001 1.000000e+000
    endloop
  endfacet
  facet normal 3.205060e-002 2.023773e-001 0.000000e+000
    outer loop
      vertex   -9.908418e+001 4.664833e+001 1.000000e+000
      vertex   -9.908418e+001 4.664833e+001 0.000000e+000
      vertex   -9.929094e+001 4.668108e+001 0.000000e+000
    endloop
  endfacet
  facet normal 1.531023e-001 9.667346e-001 -6.938894e-018
    outer loop
      vertex   -9.908418e+001 4.664833e+001 1.000000e+000
      vertex   -9.929094e+001 4.668108e+001 0.000000e+000
      vertex   -9.929094e+001 4.668108e+001 1.000000e+000
    endloop
  endfacet
  facet normal 1.072708e-002 2.046248e-001 0.000000e+000
    outer loop
      vertex   -9.929094e+001 4.668108e+001 1.000000e+000
      vertex   -9.929094e+001 4.668108e+001 0.000000e+000
      vertex   -9.950000e+001 4.669204e+001 0.000000e+000
    endloop
  endfacet
  facet normal 5.124049e-002 9.774395e-001 0.000000e+000
    outer loop
      vertex   -9.929094e+001 4.668108e+001 1.000000e+000
      vertex   -9.950000e+001 4.669204e+001 0.000000e+000
      vertex   -9.950000e+001 4.669204e+001 1.000000e+000
    endloop
  endfacet
  facet normal 0.000000e+000 -0.000000e+000 -7.071081e-001
    outer loop
      vertex   -1.824890e+002 4.490109e+001 0.000000e+000
      vertex   -1.805000e+002 4.669204e+001 0.000000e+000
      vertex   -1.825000e+002 4.469204e+001 0.000000e+000
    endloop
  endfacet
  facet normal 0.000000e+000 0.000000e+000 -6.730863e-001
    outer loop
      vertex   -1.825000e+002 4.469204e+001 0.000000e+000
      vertex   -1.805000e+002 4.669204e+001 0.000000e+000
      vertex   -1.400000e+002 4.669204e+001 0.000000e+000
    endloop
  endfacet
  facet normal 0.000000e+000 0.000000e+000 -4.505930e-001
    outer loop
      vertex   -1.825000e+002 4.469204e+001 0.000000e+000
      vertex   -1.400000e+002 4.669204e+001 0.000000e+000
      vertex   -1.400000e+002 2.569203e+001 0.000000e+000
    endloop
  endfacet
  facet normal 0.000000e+000 0.000000e+000 -9.129236e-001
    outer loop
      vertex   -1.400000e+002 2.569203e+001 0.000000e+000
      vertex   -1.400000e+002 4.669204e+001 0.000000e+000
      vertex   -9.750000e+001 4.469204e+001 0.000000e+000
    endloop
  endfacet
  facet normal 0.000000e+000 0.000000e+000 -3.647658e-001
    outer loop
      vertex   -1.400000e+002 2.569203e+001 0.000000e+000
      vertex   -9.750000e+001 4.469204e+001 0.000000e+000
      vertex   -9.750000e+001 2.769203e+001 0.000000e+000
    endloop
  endfacet
  facet normal 0.000000e+000 0.000000e+000 -6.293310e-001
    outer loop
      vertex   -1.824890e+002 4.490109e+001 0.000000e+000
      vertex   -1.824563e+002 4.510786e+001 0.000000e+000
      vertex   -1.805000e+002 4.669204e+001 0.000000e+000
    endloop
  endfacet
  facet normal 0.000000e+000 0.000000e+000 -5.233504e-002
    outer loop
      vertex   -1.805000e+002 4.669204e+001 0.000000e+000
      vertex   -1.824563e+002 4.510786e+001 0.000000e+000
      vertex   -1.824021e+002 4.531007e+001 0.000000e+000
    endloop
  endfacet
  facet normal 0.000000e+000 0.000000e+000 -5.233560e-002
    outer loop
      vertex   -1.805000e+002 4.669204e+001 0.000000e+000
      vertex   -1.824021e+002 4.531007e+001 0.000000e+000
      vertex   -1.823271e+002 4.550551e+001 0.000000e+000
    endloop
  endfacet
  facet normal 0.000000e+000 0.000000e+000 -5.000309e-001
    outer loop
      vertex   -1.823271e+002 4.550551e+001 0.000000e+000
      vertex   -1.822321e+002 4.569204e+001 0.000000e+000
      vertex   -1.805000e+002 4.669204e+001 0.000000e+000
    endloop
  endfacet
  facet normal 0.000000e+000 0.000000e+000 -5.233152e-002
    outer loop
      vertex   -1.805000e+002 4.669204e+001 0.000000e+000
      vertex   -1.822321e+002 4.569204e+001 0.000000e+000
      vertex   -1.821180e+002 4.586760e+001 0.000000e+000
    endloop
  endfacet
  facet normal 0.000000e+000 0.000000e+000 -5.233704e-002
    outer loop
      vertex   -1.805000e+002 4.669204e+001 0.000000e+000
      vertex   -1.821180e+002 4.586760e+001 0.000000e+000
      vertex   -1.819863e+002 4.603030e+001 0.000000e+000
    endloop
  endfacet
  facet normal 0.000000e+000 0.000000e+000 -3.583660e-001
    outer loop
      vertex   -1.819863e+002 4.603030e+001 0.000000e+000
      vertex   -1.818383e+002 4.617832e+001 0.000000e+000
      vertex   -1.805000e+002 4.669204e+001 0.000000e+000
    endloop
  endfacet
  facet normal 0.000000e+000 0.000000e+000 -5.233596e-002
    outer loop
      vertex   -1.805000e+002 4.669204e+001 0.000000e+000
      vertex   -1.818383e+002 4.617832e+001 0.000000e+000
      vertex   -1.816756e+002 4.631007e+001 0.000000e+000
    endloop
  endfacet
  facet normal 0.000000e+000 0.000000e+000 -5.233673e-002
    outer loop
      vertex   -1.805000e+002 4.669204e+001 0.000000e+000
      vertex   -1.816756e+002 4.631007e+001 0.000000e+000
      vertex   -1.815000e+002 4.642408e+001 0.000000e+000
    endloop
  endfacet
  facet normal 0.000000e+000 0.000000e+000 -2.079130e-001
    outer loop
      vertex   -1.815000e+002 4.642408e+001 0.000000e+000
      vertex   -1.813135e+002 4.651912e+001 0.000000e+000
      vertex   -1.805000e+002 4.669204e+001 0.000000e+000
    endloop
  endfacet
  facet normal 0.000000e+000 0.000000e+000 -5.233433e-002
    outer loop
      vertex   -1.805000e+002 4.669204e+001 0.000000e+000
      vertex   -1.813135e+002 4.651912e+001 0.000000e+000
      vertex   -1.811180e+002 4.659415e+001 0.000000e+000
    endloop
  endfacet
  facet normal 0.000000e+000 0.000000e+000 -5.233891e-002
    outer loop
      vertex   -1.805000e+002 4.669204e+001 0.000000e+000
      vertex   -1.811180e+002 4.659415e+001 0.000000e+000
      vertex   -1.809158e+002 4.664833e+001 0.000000e+000
    endloop
  endfacet
  facet normal 0.000000e+000 0.000000e+000 -5.232613e-002
    outer loop
      vertex   -1.809158e+002 4.664833e+001 0.000000e+000
      vertex   -1.807091e+002 4.668108e+001 0.000000e+000
      vertex   -1.805000e+002 4.669204e+001 0.000000e+000
    endloop
  endfacet
  facet normal 0.000000e+000 0.000000e+000 -4.700680e-002
    outer loop
      vertex   -1.400000e+002 4.669204e+001 0.000000e+000
      vertex   -9.950000e+001 4.669204e+001 0.000000e+000
      vertex   -9.750000e+001 4.469204e+001 0.000000e+000
    endloop
  endfacet
  facet normal 0.000000e+000 0.000000e+000 -6.691320e-001
    outer loop
      vertex   -9.750000e+001 4.469204e+001 0.000000e+000
      vertex   -9.950000e+001 4.669204e+001 0.000000e+000
      vertex   -9.751096e+001 4.490109e+001 0.000000e+000
    endloop
  endfacet
  facet normal 0.000000e+000 0.000000e+000 -6.293310e-001
    outer loop
      vertex   -9.751096e+001 4.490109e+001 0.000000e+000
      vertex   -9.950000e+001 4.669204e+001 0.000000e+000
      vertex   -9.754370e+001 4.510786e+001 0.000000e+000
    endloop
  endfacet
  facet normal 0.000000e+000 0.000000e+000 -5.877776e-001
    outer loop
      vertex   -9.754370e+001 4.510786e+001 0.000000e+000
      vertex   -9.950000e+001 4.669204e+001 0.000000e+000
      vertex   -9.759789e+001 4.531007e+001 0.000000e+000
    endloop
  endfacet
  facet normal 0.000000e+000 0.000000e+000 -5.446226e-001
    outer loop
      vertex   -9.759789e+001 4.531007e+001 0.000000e+000
      vertex   -9.950000e+001 4.669204e+001 0.000000e+000
      vertex   -9.767291e+001 4.550551e+001 0.000000e+000
    endloop
  endfacet
  facet normal 0.000000e+000 0.000000e+000 -5.000028e-001
    outer loop
      vertex   -9.767291e+001 4.550551e+001 0.000000e+000
      vertex   -9.950000e+001 4.669204e+001 0.000000e+000
      vertex   -9.776795e+001 4.569204e+001 0.000000e+000
    endloop
  endfacet
  facet normal 0.000000e+000 0.000000e+000 -4.539945e-001
    outer loop
      vertex   -9.776795e+001 4.569204e+001 0.000000e+000
      vertex   -9.950000e+001 4.669204e+001 0.000000e+000
      vertex   -9.788197e+001 4.586760e+001 0.000000e+000
    endloop
  endfacet
  facet normal 0.000000e+000 0.000000e+000 -4.067416e-001
    outer loop
      vertex   -9.788197e+001 4.586760e+001 0.000000e+000
      vertex   -9.950000e+001 4.669204e+001 0.000000e+000
      vertex   -9.801371e+001 4.603030e+001 0.000000e+000
    endloop
  endfacet
  facet normal 0.000000e+000 0.000000e+000 -3.583677e-001
    outer loop
      vertex   -9.801371e+001 4.603030e+001 0.000000e+000
      vertex   -9.950000e+001 4.669204e+001 0.000000e+000
      vertex   -9.816174e+001 4.617832e+001 0.000000e+000
    endloop
  endfacet
  facet normal 0.000000e+000 0.000000e+000 -3.089983e-001
    outer loop
      vertex   -9.816174e+001 4.617832e+001 0.000000e+000
      vertex   -9.950000e+001 4.669204e+001 0.000000e+000
      vertex   -9.832443e+001 4.631007e+001 0.000000e+000
    endloop
  endfacet
  facet normal 0.000000e+000 0.000000e+000 -2.588256e-001
    outer loop
      vertex   -9.832443e+001 4.631007e+001 0.000000e+000
      vertex   -9.950000e+001 4.669204e+001 0.000000e+000
      vertex   -9.850000e+001 4.642408e+001 0.000000e+000
    endloop
  endfacet
  facet normal 0.000000e+000 0.000000e+000 -2.079130e-001
    outer loop
      vertex   -9.850000e+001 4.642408e+001 0.000000e+000
      vertex   -9.950000e+001 4.669204e+001 0.000000e+000
      vertex   -9.868652e+001 4.651912e+001 0.000000e+000
    endloop
  endfacet
  facet normal 0.000000e+000 0.000000e+000 -1.564330e-001
    outer loop
      vertex   -9.868652e+001 4.651912e+001 0.000000e+000
      vertex   -9.950000e+001 4.669204e+001 0.000000e+000
      vertex   -9.888197e+001 4.659415e+001 0.000000e+000
    endloop
  endfacet
  facet normal 0.000000e+000 0.000000e+000 -1.045351e-001
    outer loop
      vertex   -9.888197e+001 4.659415e+001 0.000000e+000
      vertex   -9.950000e+001 4.669204e+001 0.000000e+000
      vertex   -9.908418e+001 4.664833e+001 0.000000e+000
    endloop
  endfacet
  facet normal 0.000000e+000 0.000000e+000 -5.232234e-002
    outer loop
      vertex   -9.908418e+001 4.664833e+001 0.000000e+000
      vertex   -9.950000e+001 4.669204e+001 0.000000e+000
      vertex   -9.929094e+001 4.668108e+001 0.000000e+000
    endloop
  endfacet
  facet normal 0.000000e+000 0.000000e+000 -4.700680e-002
    outer loop
      vertex   -1.400000e+002 2.569203e+001 0.000000e+000
      vertex   -9.750000e+001 2.769203e+001 0.000000e+000
      vertex   -9.950000e+001 2.569203e+001 0.000000e+000
    endloop
  endfacet
  facet normal 0.000000e+000 0.000000e+000 -5.233604e-002
    outer loop
      vertex   -9.950000e+001 2.569203e+001 0.000000e+000
      vertex   -9.750000e+001 2.769203e+001 0.000000e+000
      vertex   -9.751096e+001 2.748298e+001 0.000000e+000
    endloop
  endfacet
  facet normal 0.000000e+000 0.000000e+000 -5.233666e-002
    outer loop
      vertex   -9.950000e+001 2.569203e+001 0.000000e+000
      vertex   -9.751096e+001 2.748298e+001 0.000000e+000
      vertex   -9.754370e+001 2.727621e+001 0.000000e+000
    endloop
  endfacet
  facet normal 0.000000e+000 0.000000e+000 -5.877800e-001
    outer loop
      vertex   -9.754370e+001 2.727621e+001 0.000000e+000
      vertex   -9.759789e+001 2.707400e+001 0.000000e+000
      vertex   -9.950000e+001 2.569203e+001 0.000000e+000
    endloop
  endfacet
  facet normal 0.000000e+000 0.000000e+000 -5.233429e-002
    outer loop
      vertex   -9.950000e+001 2.569203e+001 0.000000e+000
      vertex   -9.759789e+001 2.707400e+001 0.000000e+000
      vertex   -9.767291e+001 2.687856e+001 0.000000e+000
    endloop
  endfacet
  facet normal 0.000000e+000 0.000000e+000 -5.233635e-002
    outer loop
      vertex   -9.950000e+001 2.569203e+001 0.000000e+000
      vertex   -9.767291e+001 2.687856e+001 0.000000e+000
      vertex   -9.776795e+001 2.669203e+001 0.000000e+000
    endloop
  endfacet
  facet normal 0.000000e+000 0.000000e+000 -4.539989e-001
    outer loop
      vertex   -9.776795e+001 2.669203e+001 0.000000e+000
      vertex   -9.788197e+001 2.651646e+001 0.000000e+000
      vertex   -9.950000e+001 2.569203e+001 0.000000e+000
    endloop
  endfacet
  facet normal 0.000000e+000 0.000000e+000 -5.233610e-002
    outer loop
      vertex   -9.950000e+001 2.569203e+001 0.000000e+000
      vertex   -9.788197e+001 2.651646e+001 0.000000e+000
      vertex   -9.801371e+001 2.635377e+001 0.000000e+000
    endloop
  endfacet
  facet normal 0.000000e+000 0.000000e+000 -5.233721e-002
    outer loop
      vertex   -9.950000e+001 2.569203e+001 0.000000e+000
      vertex   -9.801371e+001 2.635377e+001 0.000000e+000
      vertex   -9.816174e+001 2.620574e+001 0.000000e+000
    endloop
  endfacet
  facet normal 0.000000e+000 0.000000e+000 -3.090006e-001
    outer loop
      vertex   -9.816174e+001 2.620574e+001 0.000000e+000
      vertex   -9.832443e+001 2.607400e+001 0.000000e+000
      vertex   -9.950000e+001 2.569203e+001 0.000000e+000
    endloop
  endfacet
  facet normal 0.000000e+000 0.000000e+000 -5.233558e-002
    outer loop
      vertex   -9.950000e+001 2.569203e+001 0.000000e+000
      vertex   -9.832443e+001 2.607400e+001 0.000000e+000
      vertex   -9.850000e+001 2.595998e+001 0.000000e+000
    endloop
  endfacet
  facet normal 0.000000e+000 0.000000e+000 -5.233793e-002
    outer loop
      vertex   -9.950000e+001 2.569203e+001 0.000000e+000
      vertex   -9.850000e+001 2.595998e+001 0.000000e+000
      vertex   -9.868652e+001 2.586494e+001 0.000000e+000
    endloop
  endfacet
  facet normal 0.000000e+000 0.000000e+000 -1.564291e-001
    outer loop
      vertex   -9.868652e+001 2.586494e+001 0.000000e+000
      vertex   -9.888197e+001 2.578992e+001 0.000000e+000
      vertex   -9.950000e+001 2.569203e+001 0.000000e+000
    endloop
  endfacet
  facet normal 0.000000e+000 0.000000e+000 -5.233591e-002
    outer loop
      vertex   -9.950000e+001 2.569203e+001 0.000000e+000
      vertex   -9.888197e+001 2.578992e+001 0.000000e+000
      vertex   -9.908418e+001 2.573574e+001 0.000000e+000
    endloop
  endfacet
  facet normal 0.000000e+000 0.000000e+000 -5.233886e-002
    outer loop
      vertex   -9.950000e+001 2.569203e+001 0.000000e+000
      vertex   -9.908418e+001 2.573574e+001 0.000000e+000
      vertex   -9.929094e+001 2.570299e+001 0.000000e+000
    endloop
  endfacet
  facet normal 0.000000e+000 0.000000e+000 -5.233312e-002
    outer loop
      vertex   -1.805000e+002 2.569203e+001 0.000000e+000
      vertex   -1.807091e+002 2.570299e+001 0.000000e+000
      vertex   -1.400000e+002 2.569203e+001 0.000000e+000
    endloop
  endfacet
  facet normal 0.000000e+000 0.000000e+000 -4.673797e-002
    outer loop
      vertex   -1.400000e+002 2.569203e+001 0.000000e+000
      vertex   -1.807091e+002 2.570299e+001 0.000000e+000
      vertex   -1.825000e+002 2.769203e+001 0.000000e+000
    endloop
  endfacet
  facet normal 0.000000e+000 0.000000e+000 -3.647658e-001
    outer loop
      vertex   -1.400000e+002 2.569203e+001 0.000000e+000
      vertex   -1.825000e+002 2.769203e+001 0.000000e+000
      vertex   -1.825000e+002 4.469204e+001 0.000000e+000
    endloop
  endfacet
  facet normal 0.000000e+000 0.000000e+000 -2.588071e-001
    outer loop
      vertex   -1.809158e+002 2.573574e+001 0.000000e+000
      vertex   -1.816756e+002 2.607400e+001 0.000000e+000
      vertex   -1.807091e+002 2.570299e+001 0.000000e+000
    endloop
  endfacet
  facet normal 0.000000e+000 0.000000e+000 -5.233636e-002
    outer loop
      vertex   -1.807091e+002 2.570299e+001 0.000000e+000
      vertex   -1.816756e+002 2.607400e+001 0.000000e+000
      vertex   -1.818383e+002 2.620574e+001 0.000000e+000
    endloop
  endfacet
  facet normal 0.000000e+000 0.000000e+000 -5.233733e-002
    outer loop
      vertex   -1.807091e+002 2.570299e+001 0.000000e+000
      vertex   -1.818383e+002 2.620574e+001 0.000000e+000
      vertex   -1.819863e+002 2.635377e+001 0.000000e+000
    endloop
  endfacet
  facet normal 0.000000e+000 0.000000e+000 -1.045080e-001
    outer loop
      vertex   -1.811180e+002 2.578992e+001 0.000000e+000
      vertex   -1.813135e+002 2.586494e+001 0.000000e+000
      vertex   -1.809158e+002 2.573574e+001 0.000000e+000
    endloop
  endfacet
  facet normal 0.000000e+000 0.000000e+000 -5.234151e-002
    outer loop
      vertex   -1.809158e+002 2.573574e+001 0.000000e+000
      vertex   -1.813135e+002 2.586494e+001 0.000000e+000
      vertex   -1.815000e+002 2.595998e+001 0.000000e+000
    endloop
  endfacet
  facet normal 0.000000e+000 0.000000e+000 -5.233625e-002
    outer loop
      vertex   -1.809158e+002 2.573574e+001 0.000000e+000
      vertex   -1.815000e+002 2.595998e+001 0.000000e+000
      vertex   -1.816756e+002 2.607400e+001 0.000000e+000
    endloop
  endfacet
  facet normal 0.000000e+000 0.000000e+000 -4.067339e-001
    outer loop
      vertex   -1.819863e+002 2.635377e+001 0.000000e+000
      vertex   -1.821180e+002 2.651646e+001 0.000000e+000
      vertex   -1.807091e+002 2.570299e+001 0.000000e+000
    endloop
  endfacet
  facet normal 0.000000e+000 0.000000e+000 -5.233170e-002
    outer loop
      vertex   -1.807091e+002 2.570299e+001 0.000000e+000
      vertex   -1.821180e+002 2.651646e+001 0.000000e+000
      vertex   -1.822321e+002 2.669203e+001 0.000000e+000
    endloop
  endfacet
  facet normal 0.000000e+000 0.000000e+000 -5.233862e-002
    outer loop
      vertex   -1.807091e+002 2.570299e+001 0.000000e+000
      vertex   -1.822321e+002 2.669203e+001 0.000000e+000
      vertex   -1.823271e+002 2.687856e+001 0.000000e+000
    endloop
  endfacet
  facet normal 0.000000e+000 0.000000e+000 -5.446156e-001
    outer loop
      vertex   -1.823271e+002 2.687856e+001 0.000000e+000
      vertex   -1.824021e+002 2.707400e+001 0.000000e+000
      vertex   -1.807091e+002 2.570299e+001 0.000000e+000
    endloop
  endfacet
  facet normal 0.000000e+000 0.000000e+000 -5.233568e-002
    outer loop
      vertex   -1.807091e+002 2.570299e+001 0.000000e+000
      vertex   -1.824021e+002 2.707400e+001 0.000000e+000
      vertex   -1.824563e+002 2.727621e+001 0.000000e+000
    endloop
  endfacet
  facet normal 0.000000e+000 0.000000e+000 -5.233674e-002
    outer loop
      vertex   -1.807091e+002 2.570299e+001 0.000000e+000
      vertex   -1.824563e+002 2.727621e+001 0.000000e+000
      vertex   -1.824890e+002 2.748298e+001 0.000000e+000
    endloop
  endfacet
  facet normal 0.000000e+000 0.000000e+000 -6.691312e-001
    outer loop
      vertex   -1.824890e+002 2.748298e+001 0.000000e+000
      vertex   -1.825000e+002 2.769203e+001 0.000000e+000
      vertex   -1.807091e+002 2.570299e+001 0.000000e+000
    endloop
  endfacet
  facet normal -1.000000e+000 -0.000000e+000 -0.000000e+000
    outer loop
      vertex   -1.825000e+002 4.469204e+001 1.000000e+000
      vertex   -1.825000e+002 4.469204e+001 0.000000e+000
      vertex   -1.825000e+002 2.769203e+001 1.000000e+000
    endloop
  endfacet
  facet normal -9.982744e-001 0.000000e+000 0.000000e+000
    outer loop
      vertex   -1.825000e+002 2.769203e+001 1.000000e+000
      vertex   -1.825000e+002 4.469204e+001 0.000000e+000
      vertex   -1.825000e+002 2.769203e+001 0.000000e+000
    endloop
  endfacet
  facet normal 1.000000e+000 -0.000000e+000 0.000000e+000
    outer loop
      vertex   -9.750000e+001 2.769203e+001 1.000000e+000
      vertex   -9.750000e+001 2.769203e+001 0.000000e+000
      vertex   -9.750000e+001 4.469204e+001 1.000000e+000
    endloop
  endfacet
  facet normal 9.982744e-001 0.000000e+000 0.000000e+000
    outer loop
      vertex   -9.750000e+001 4.469204e+001 1.000000e+000
      vertex   -9.750000e+001 2.769203e+001 0.000000e+000
      vertex   -9.750000e+001 4.469204e+001 0.000000e+000
    endloop
  endfacet
endsolid
